SplineFontDB: 3.0
FontName: TeXGyreAdventor-Regular
FullName: TeXGyreAdventor-Regular
FamilyName: TeXGyreAdventor
Weight: Regular
Copyright: Copyright 2007-2018 for TeX Gyre extensions by B. Jackowski, J.M. Nowacki, et al. (on behalf of TeX USERS GROUPS). Vietnamese characters were added by Han The Thanh.
UComments: "2018-5-8: Created with FontForge (http://fontforge.org)"
Version: 2.501
ItalicAngle: 0
UnderlinePosition: -100
UnderlineWidth: 58
Ascent: 750
Descent: 250
InvalidEm: 0
sfntRevision: 0x00028042
LayerCount: 2
Layer: 0 0 "Back" 1
Layer: 1 0 "Fore" 0
XUID: [1021 720 -1925797841 8544]
StyleMap: 0x0040
FSType: 0
OS2Version: 0
OS2_WeightWidthSlopeOnly: 0
OS2_UseTypoMetrics: 1
CreationTime: 1525767988
ModificationTime: 1525767993
PfmFamily: 16
TTFWeight: 400
TTFWidth: 5
LineGap: 0
VLineGap: 90
Panose: 2 0 5 3 2 2 0 0 0 4
OS2TypoAscent: 739
OS2TypoAOffset: 0
OS2TypoDescent: -192
OS2TypoDOffset: 0
OS2TypoLinegap: 0
OS2WinAscent: 0
OS2WinAOffset: 1
OS2WinDescent: 0
OS2WinDOffset: 1
HheadAscent: 739
HheadAOffset: 0
HheadDescent: -192
HheadDOffset: 0
OS2SubXSize: 650
OS2SubYSize: 699
OS2SubXOff: 0
OS2SubYOff: 140
OS2SupXSize: 650
OS2SupYSize: 699
OS2SupXOff: 0
OS2SupYOff: 479
OS2StrikeYSize: 49
OS2StrikeYPos: 258
Lookup: 3 0 0 "'aalt' Access All Alternates lookup 0" { "'aalt' Access All Alternates lookup 0 subtable"  } ['aalt' ('DFLT' <'dflt' > ) ]
Lookup: 3 0 0 "'aalt' Access All Alternates in Latin lookup 0" { "'aalt' Access All Alternates in Latin lookup 0 subtable"  } ['aalt' ('latn' <'ROM ' 'MOL ' 'dflt' 'AZE ' 'CRT ' 'NLD ' 'PLK ' 'TRK ' > ) ]
Lookup: 2 0 0 "ccmp_decomp_sub" { "ccmp_decomp_sub subtable"  } []
Lookup: 1 0 0 "locl_ROM" { "locl_ROM subtable"  } ['locl' ('latn' <'ROM ' 'MOL ' > ) ]
Lookup: 1 0 0 "'smcp' Lowercase to Small Capitals in Latin lookup 2" { "'smcp' Lowercase to Small Capitals in Latin lookup 2 subtable"  } ['smcp' ('latn' <'dflt' 'AZE ' 'CRT ' 'MOL ' 'NLD ' 'PLK ' 'ROM ' 'TRK ' > 'DFLT' <'dflt' > ) ]

StartChar: acute
Encoding: 256 180 0
Width: 375
VWidth: 0
Flags: W
TeX: 782 0
HStem: 594 172
VStem: 112 227
LayerCount: 2
Fore
SplineSet
112 650 m 1
 305 766 l 1
 339 708 l 1
 146 594 l 1
 112 650 l 1
EndSplineSet
Validated: 1
EndChar

StartChar: acute.cap
Encoding: 257 -1 1
Width: 375
VWidth: 0
Flags: W
TeX: 756 0
HStem: 584 172
VStem: 112 227
LayerCount: 2
Fore
SplineSet
112 640 m 1
 305 756 l 1
 339 698 l 1
 146 584 l 1
 112 640 l 1
EndSplineSet
Validated: 1
EndChar

StartChar: circumflex
Encoding: 258 710 2
Width: 502
VWidth: 0
Flags: W
TeX: 749 0
HStem: 607 126
LayerCount: 2
Fore
SplineSet
74 607 m 1
 219 733 l 1
 285 733 l 1
 428 607 l 1
 339 607 l 1
 253 681 l 1
 165 607 l 1
 74 607 l 1
EndSplineSet
Validated: 1
EndChar

StartChar: circumflex.cap
Encoding: 259 -1 3
Width: 502
VWidth: 0
Flags: W
TeX: 723 0
HStem: 597 126
LayerCount: 2
Fore
SplineSet
74 597 m 1
 219 723 l 1
 285 723 l 1
 428 597 l 1
 339 597 l 1
 253 671 l 1
 165 597 l 1
 74 597 l 1
EndSplineSet
Validated: 1
EndChar

StartChar: dieresis
Encoding: 260 168 4
Width: 369
VWidth: 0
Flags: W
TeX: 749 0
HStem: 607 126<74 148 221 295>
VStem: 74 74<607 733> 221 74<607 733>
LayerCount: 2
Fore
SplineSet
74 607 m 1
 74 733 l 1
 148 733 l 1
 148 607 l 1
 74 607 l 1
221 607 m 1
 221 733 l 1
 295 733 l 1
 295 607 l 1
 221 607 l 1
EndSplineSet
Validated: 1
EndChar

StartChar: breve
Encoding: 261 728 5
Width: 453
VWidth: 0
Flags: W
TeX: 743 0
HStem: 610 58<159.122 294.29>
VStem: 74 64<688.476 730> 314 64<689.112 730>
LayerCount: 2
Fore
SplineSet
74 730 m 1
 138 730 l 1
 146 680 187 668 226 668 c 0
 265 668 306 680 314 730 c 1
 378 730 l 1
 362 641 308 610 226 610 c 0
 137 610 89 648 74 730 c 1
EndSplineSet
Validated: 1
EndChar

StartChar: breve.cap
Encoding: 262 -1 6
Width: 453
VWidth: 0
Flags: W
TeX: 720 0
HStem: 600 58<160.122 295.29>
VStem: 75 64<678.476 720> 315 64<679.112 720>
LayerCount: 2
Fore
SplineSet
75 720 m 1
 139 720 l 1
 147 670 188 658 227 658 c 0
 266 658 307 670 315 720 c 1
 379 720 l 1
 363 631 309 600 227 600 c 0
 138 600 90 638 75 720 c 1
EndSplineSet
Validated: 1
EndChar

StartChar: dotaccent
Encoding: 263 729 7
Width: 222
VWidth: 0
Flags: W
TeX: 749 0
HStem: 607 126<74 148>
VStem: 74 74<607 733>
LayerCount: 2
Fore
SplineSet
74 607 m 1
 74 733 l 1
 148 733 l 1
 148 607 l 1
 74 607 l 1
EndSplineSet
Validated: 1
EndChar

StartChar: macron
Encoding: 264 175 8
Width: 485
VWidth: 0
Flags: W
TeX: 707 0
HStem: 638 64<74 411>
LayerCount: 2
Fore
SplineSet
74 638 m 1
 74 702 l 1
 411 702 l 1
 411 638 l 1
 74 638 l 1
EndSplineSet
Validated: 1
AlternateSubs2: "'aalt' Access All Alternates lookup 0 subtable" macron.alt
AlternateSubs2: "'aalt' Access All Alternates in Latin lookup 0 subtable" macron.alt
Substitution2: "'ss04' Style Set 4 in Latin lookup 18 subtable" macron.alt
Substitution2: "'ss01' Style Set 1 in Latin lookup 15 subtable" macron.alt
Substitution2: "'salt' Stylistic Alternatives in Latin lookup 14 subtable" macron.alt
EndChar

StartChar: ring
Encoding: 265 730 9
Width: 332
VWidth: 0
Flags: W
TeX: 794 0
HStem: 579 45<122.019 209.981> 736 45<122.205 209.067>
VStem: 65 45<635.796 723.758> 222 45<636.019 723.608>
LayerCount: 2
Fore
SplineSet
65 679 m 0
 65 736 110 781 167 781 c 0
 222 781 267 735 267 680 c 0
 267 624 222 579 166 579 c 0
 110 579 65 624 65 679 c 0
110 679 m 0
 110 649 135 624 166 624 c 0
 197 624 222 649 222 680 c 0
 222 710 197 736 166 736 c 0
 135 736 110 711 110 679 c 0
EndSplineSet
Validated: 1
EndChar

StartChar: hungarumlaut
Encoding: 266 733 10
Width: 552
VWidth: 0
Flags: W
TeX: 780 0
HStem: 585 170
LayerCount: 2
Fore
SplineSet
144 632 m 1
 315 755 l 1
 353 706 l 1
 179 585 l 1
 144 632 l 1
340 632 m 1
 511 755 l 1
 549 706 l 1
 375 585 l 1
 340 632 l 1
EndSplineSet
Validated: 1
EndChar

StartChar: caron
Encoding: 267 711 11
Width: 502
VWidth: 0
Flags: W
TeX: 749 0
HStem: 607 126
LayerCount: 2
Fore
SplineSet
74 733 m 1
 163 733 l 1
 249 659 l 1
 337 733 l 1
 428 733 l 1
 283 607 l 1
 217 607 l 1
 74 733 l 1
EndSplineSet
Validated: 1
EndChar

StartChar: tilde
Encoding: 268 732 12
Width: 439
VWidth: 0
Flags: W
TeX: 728 0
HStem: 615 61<227.821 315.945> 664 61<124.827 212.179>
VStem: 76 289
LayerCount: 2
Fore
SplineSet
76 673 m 1x60
 92 701 116 725 147 725 c 0x60
 173 725 197 715 220 702 c 0
 238 692 265 676 276 676 c 0
 302 676 319 699 333 722 c 1
 365 667 l 1
 348 639 324 615 293 615 c 0xa0
 267 615 243 625 220 638 c 0
 202 648 175 664 164 664 c 0
 138 664 121 641 108 618 c 1
 76 673 l 1x60
EndSplineSet
Validated: 1
EndChar

StartChar: ogonek
Encoding: 269 731 13
Width: 302
VWidth: 0
Flags: W
TeX: 5 -250
HStem: -250 74<145.481 233> -20 20G<124 220>
VStem: 62 74<-167.62 -60.306>
LayerCount: 2
Fore
SplineSet
62 -125 m 0
 62 -72 102 -31 146 0 c 1
 220 0 l 1
 173 -27 136 -71 136 -125 c 0
 136 -152 156 -176 183 -176 c 0
 200 -176 216 -174 233 -171 c 1
 233 -246 l 1
 217 -249 200 -250 183 -250 c 0
 115 -250 62 -193 62 -125 c 0
EndSplineSet
Validated: 1
EndChar

StartChar: cedilla
Encoding: 270 184 14
Width: 324
VWidth: 0
Flags: W
TeX: 0 -213
HStem: -249 56<141.77 220.463> -97 56<174.686 219.366> -19 20G<135.421 199>
VStem: 79 57<-186.672 -160> 229 56<-185.428 -104.696>
LayerCount: 2
Fore
SplineSet
79 -160 m 1
 136 -160 l 1
 142 -179 160 -193 181 -193 c 0
 208 -193 229 -172 229 -145 c 0
 229 -119 208 -97 181 -97 c 0
 164 -97 148 -107 140 -121 c 1
 92 -94 l 1
 147 1 l 1
 199 1 l 1
 174 -41 l 2
 177 -41 179 -41 181 -41 c 0
 239 -41 285 -88 285 -145 c 0
 285 -202 239 -249 181 -249 c 0
 129 -249 86 -210 79 -160 c 1
EndSplineSet
Validated: 1
EndChar

StartChar: space_uni0309
Encoding: 271 -1 15
Width: 195
VWidth: 0
Flags: W
TeX: 258 0
HStem: 740 50<56.0951 142.774>
VStem: -3 52<687 723.717> 73 53<590 635.554> 145 54<683.987 735.923>
LayerCount: 2
Fore
SplineSet
-3 687 m 1
 -1 763 41 790 100 790 c 0
 158 790 199 756 199 709 c 0
 199 684 189 666 160 645 c 0
 135 629 127 614 126 590 c 1
 73 590 l 1
 74 633 89 657 117 679 c 0
 138 694 145 702 145 710 c 0
 145 728 126 740 100 740 c 0
 80 740 66 734 57 723 c 1
 57 724 l 2
 54 718 52 709 49 687 c 1
 -3 687 l 1
EndSplineSet
Validated: 1
EndChar

StartChar: space_uni0309.cap
Encoding: 272 -1 16
Width: 195
VWidth: 0
Flags: W
TeX: 258 0
HStem: 730 50<56.0951 142.774>
VStem: -3 52<677 713.717> 73 53<580 625.554> 145 54<673.987 725.923>
LayerCount: 2
Fore
SplineSet
-3 677 m 1
 -1 753 41 780 100 780 c 0
 158 780 199 746 199 699 c 0
 199 674 189 656 160 635 c 0
 135 619 127 604 126 580 c 1
 73 580 l 1
 74 623 89 647 117 669 c 0
 138 684 145 692 145 700 c 0
 145 718 126 730 100 730 c 0
 80 730 66 724 57 713 c 1
 57 714 l 2
 54 708 52 699 49 677 c 1
 -3 677 l 1
EndSplineSet
Validated: 1
EndChar

StartChar: dotlessi
Encoding: 273 305 17
Width: 200
VWidth: 0
GlyphClass: 2
Flags: W
TeX: 547 0
HStem: 0 21G<63 137> 527 20G<63 137>
VStem: 63 74<0 547>
AnchorPoint: "bot_acc" 100 -123 basechar 0
AnchorPoint: "dotbelow" 100 -123 basechar 0
AnchorPoint: "ogon_acc" 65 -123 basechar 0
AnchorPoint: "top_accl" 100 670 basechar 0
AnchorPoint: "dotabove" 100 670 basechar 0
LayerCount: 2
Fore
SplineSet
63 0 m 1
 63 547 l 1
 137 547 l 1
 137 0 l 1
 63 0 l 1
EndSplineSet
Validated: 1
AlternateSubs2: "'aalt' Access All Alternates lookup 0 subtable" dotlessi.sc
AlternateSubs2: "'aalt' Access All Alternates in Latin lookup 0 subtable" dotlessi.sc
Substitution2: "'smcp' Lowercase to Small Capitals in Latin lookup 2 subtable" dotlessi.sc
EndChar

StartChar: i
Encoding: 105 105 18
Width: 200
VWidth: 0
GlyphClass: 2
Flags: W
TeX: 733 0
HStem: 0 21G<63 137> 527 20G<63 137> 607 126<63 137>
VStem: 63 74<0 547 607 733>
AnchorPoint: "bot_acc" 100 -123 basechar 0
AnchorPoint: "dotbelow" 100 -123 basechar 0
AnchorPoint: "ogon_acc" 65 -123 basechar 0
LayerCount: 2
Fore
SplineSet
63 0 m 1
 63 547 l 1
 137 547 l 1
 137 0 l 1
 63 0 l 1
63 607 m 1
 63 733 l 1
 137 733 l 1
 137 607 l 1
 63 607 l 1
EndSplineSet
Validated: 1
AlternateSubs2: "'aalt' Access All Alternates lookup 0 subtable" dotlessi i.sc
AlternateSubs2: "'aalt' Access All Alternates in Latin lookup 0 subtable" dotlessi i.sc
Substitution2: "ccmp_sub_acc subtable" dotlessi
Substitution2: "'smcp' Lowercase to Small Capitals in Latin lookup 2 subtable" i.sc
EndChar

StartChar: Lslash
Encoding: 163 321 19
Width: 517
VWidth: 0
GlyphClass: 2
Flags: W
TeX: 739 0
HStem: 0 67<196 502> 719 20G<122 196>
VStem: 122 74<67 303 436 739>
AnchorPoint: "bot_acc" 312 -123 basechar 0
AnchorPoint: "dotbelow" 312 -123 basechar 0
AnchorPoint: "ogon_acc" 430 -123 basechar 0
AnchorPoint: "top_accu" 159 852 basechar 0
AnchorPoint: "dotabove" 159 852 basechar 0
LayerCount: 2
Fore
SplineSet
26 224 m 1
 26 307 l 1
 122 387 l 1
 122 739 l 1
 196 739 l 1
 196 436 l 1
 356 569 l 1
 356 485 l 1
 196 353 l 1
 196 67 l 1
 502 67 l 1
 502 0 l 1
 122 0 l 1
 122 303 l 1
 26 224 l 1
EndSplineSet
Validated: 1
AlternateSubs2: "'aalt' Access All Alternates lookup 0 subtable" lslash.sc
AlternateSubs2: "'aalt' Access All Alternates in Latin lookup 0 subtable" lslash.sc
Substitution2: "'c2sc' Capitals to Small Capitals in Latin lookup 13 subtable" lslash.sc
Position2: "'cpsp' Capital Spacing in Latin lookup 13 subtable" dx=7 dy=0 dh=14 dv=0
EndChar

StartChar: lslash
Encoding: 179 322 20
Width: 300
VWidth: 0
GlyphClass: 2
Flags: W
TeX: 739 0
HStem: 0 21G<114 188> 719 20G<114 188>
VStem: 114 74<0 346 451 739>
AnchorPoint: "bot_acc" 153 -123 basechar 0
AnchorPoint: "dotbelow" 153 -123 basechar 0
AnchorPoint: "ogon_acc" 116 -123 basechar 0
AnchorPoint: "top_accl" 153 862 basechar 0
AnchorPoint: "dotabove" 153 862 basechar 0
LayerCount: 2
Fore
SplineSet
36 293 m 1
 36 365 l 1
 114 418 l 1
 114 739 l 1
 188 739 l 1
 188 451 l 1
 270 506 l 1
 270 433 l 1
 188 379 l 1
 188 0 l 1
 114 0 l 1
 114 346 l 1
 36 293 l 1
EndSplineSet
Validated: 1
AlternateSubs2: "'aalt' Access All Alternates lookup 0 subtable" lslash.sc
AlternateSubs2: "'aalt' Access All Alternates in Latin lookup 0 subtable" lslash.sc
Substitution2: "'smcp' Lowercase to Small Capitals in Latin lookup 2 subtable" lslash.sc
EndChar

StartChar: exclam
Encoding: 33 33 21
Width: 295
VWidth: 0
Flags: W
TeX: 739 0
HStem: 0 126<111 185> 719 20G<111 185>
VStem: 111 74<0 126 197 739>
LayerCount: 2
Fore
SplineSet
111 0 m 1
 111 126 l 1
 185 126 l 1
 185 0 l 1
 111 0 l 1
111 197 m 1
 111 739 l 1
 185 739 l 1
 185 197 l 1
 111 197 l 1
EndSplineSet
Validated: 1
EndChar

StartChar: quotedbl
Encoding: 34 34 22
Width: 309
VWidth: 0
Flags: W
TeX: 739 0
HStem: 513 226<74 124 187 237>
VStem: 74 50<513 739> 187 50<513 739>
LayerCount: 2
Fore
SplineSet
74 513 m 1
 74 739 l 1
 124 739 l 1
 124 513 l 1
 74 513 l 1
187 513 m 1
 187 739 l 1
 237 739 l 1
 237 513 l 1
 187 513 l 1
EndSplineSet
Validated: 1
EndChar

StartChar: numbersign
Encoding: 35 35 23
Width: 554
VWidth: 0
Flags: W
TeX: 739 0
HStem: 0 21G<59 127.797 290 359.629> 237 61<5 104 181 333 411 534> 453 61<21 145 221 373 450 549> 719 20G<194.267 262 420.444 491>
LayerCount: 2
Fore
SplineSet
5 237 m 1
 5 298 l 1
 116 298 l 1
 145 453 l 1
 21 453 l 1
 21 514 l 1
 156 514 l 1
 198 739 l 1
 262 739 l 1
 221 514 l 1
 384 514 l 1
 424 739 l 1
 491 739 l 1
 450 514 l 1
 549 514 l 1
 549 453 l 1
 439 453 l 1
 411 298 l 1
 534 298 l 1
 534 237 l 1
 399 237 l 1
 356 0 l 1
 290 0 l 1
 333 237 l 1
 169 237 l 1
 124 0 l 1
 59 0 l 1
 104 237 l 1
 5 237 l 1
181 298 m 1
 344 298 l 1
 373 453 l 1
 210 453 l 1
 181 298 l 1
EndSplineSet
Validated: 1
EndChar

StartChar: dollar
Encoding: 36 36 24
Width: 554
VWidth: 0
Flags: W
TeX: 810 -56
HStem: 29 61<200.342 245 311 346.643> 547 21G<403 473> 665 145<245.507 308.818>
VStem: 75 69<146.543 228> 100 74<480.053 621.21> 245 66<-56 31.8716 724.583 810> 405 74<147.797 297.675 547 616.855>
LayerCount: 2
Fore
SplineSet
75 228 m 1xf6
 144 228 l 1xf6
 144 142 198 90 277 90 c 0
 351 90 405 146 405 224 c 0
 405 264 390 298 363 321 c 0
 343 337 320 348 270 363 c 0
 195 386 165 403 139 436 c 0
 114 466 100 509 100 552 c 0
 100 642 156 710 245 728 c 1
 245 810 l 1
 311 810 l 1
 311 728 l 1
 409 713 473 646 473 547 c 1
 403 547 l 1
 403 621 356 665 287 665 c 0
 218 665 174 619 174 546 c 0xee
 174 484 201 458 296 428 c 0
 367 405 397 390 424 363 c 0
 460 329 479 280 479 226 c 0
 479 121 410 40 311 29 c 1
 311 -56 l 1
 245 -56 l 1
 245 29 l 1
 131 50 75 120 75 228 c 1xf6
EndSplineSet
Validated: 1
AlternateSubs2: "'aalt' Access All Alternates lookup 0 subtable" dollar.oldstyle
AlternateSubs2: "'aalt' Access All Alternates in Latin lookup 0 subtable" dollar.oldstyle
Substitution2: "'onum' Oldstyle Figures in Latin lookup 3 subtable" dollar.oldstyle
EndChar

StartChar: percent
Encoding: 37 37 25
Width: 775
VWidth: 0
Flags: W
TeX: 739 0
HStem: -13 66<511.88 640.396> 0 21G<182 263.039> 272 66<512.012 638.144> 397 66<124.544 252.396> 683 66<123.832 250.144> 719 20G<505.015 588>
VStem: 13 66<508.028 638.393> 296 68<507.813 637.766> 401 67<97.4844 227.607> 684 68<97.7088 226.99>
LayerCount: 2
Fore
SplineSet
13 573 m 0x3bc0
 13 671 91 749 190 749 c 0
 285 749 364 669 364 573 c 0
 364 476 285 397 188 397 c 0
 92 397 13 476 13 573 c 0x3bc0
79 573 m 0
 79 513 128 463 188 463 c 0
 247 463 296 512 296 573 c 0
 296 633 248 683 189 683 c 0
 128 683 79 634 79 573 c 0
182 0 m 1x77c0
 514 739 l 1
 588 739 l 1
 254 0 l 1
 182 0 l 1x77c0
401 162 m 0
 401 260 479 338 578 338 c 0
 673 338 752 258 752 163 c 0
 752 66 673 -13 576 -13 c 0xb3c0
 480 -13 401 66 401 162 c 0
468 162 m 0
 468 102 517 53 576 53 c 0
 635 53 684 102 684 162 c 0
 684 222 636 272 577 272 c 0
 516 272 468 224 468 162 c 0
EndSplineSet
Validated: 1
EndChar

StartChar: ampersand
Encoding: 38 38 26
Width: 757
VWidth: 0
Flags: W
TeX: 739 0
HStem: -13 67<205.904 358.717> 685 67<255.854 388.411>
VStem: 57 73<129.813 281.184> 145 74<529.033 648.8> 428 70<529.959 646.669>
LayerCount: 2
Fore
SplineSet
57 213 m 0
 57 312 111 373 227 433 c 1
 165 498 145 537 145 588 c 0
 145 680 223 752 320 752 c 0
 422 752 498 680 498 583 c 0
 498 503 465 468 354 411 c 1
 494 273 l 1
 602 481 l 1
 684 481 l 1
 548 220 l 1
 735 38 l 1
 684 -13 l 1
 513 153 l 1
 455 37 388 -13 290 -13 c 0
 155 -13 57 88 57 213 c 0
130 205 m 0
 130 121 199 54 285 54 c 0
 356 54 404 96 458 206 c 1
 280 380 l 1
 171 327 130 279 130 205 c 0
219 590 m 0
 219 552 242 517 300 464 c 1
 389 498 428 537 428 589 c 0
 428 643 382 685 322 685 c 0
 264 685 219 643 219 590 c 0
EndSplineSet
Validated: 1
AlternateSubs2: "'aalt' Access All Alternates lookup 0 subtable" ampersand
AlternateSubs2: "'aalt' Access All Alternates in Latin lookup 0 subtable" ampersand
Substitution2: "'lnum' Lining Figures in Latin lookup 4 subtable" ampersand
Substitution2: "'onum' Oldstyle Figures in Latin lookup 3 subtable" ampersand
EndChar

StartChar: quotesingle
Encoding: 39 39 27
Width: 198
VWidth: 0
Flags: W
TeX: 739 0
HStem: 513 226<74 124>
VStem: 74 50<513 739>
LayerCount: 2
Fore
SplineSet
74 513 m 1
 74 739 l 1
 124 739 l 1
 124 513 l 1
 74 513 l 1
EndSplineSet
Validated: 1
EndChar

StartChar: comma
Encoding: 44 44 28
Width: 277
VWidth: 0
Flags: W
TeX: 126 -67
HStem: -67 193
VStem: 91 162
LayerCount: 2
Fore
SplineSet
91 -67 m 1
 179 126 l 1
 253 126 l 1
 165 -67 l 1
 91 -67 l 1
EndSplineSet
Validated: 1
EndChar

StartChar: hyphen
Encoding: 45 45 29
Width: 332
VWidth: 0
Flags: W
TeX: 296 0
HStem: 233 63<31 302>
VStem: 31 271<233 296>
LayerCount: 2
Fore
SplineSet
31 233 m 1
 31 296 l 1
 302 296 l 1
 302 233 l 1
 31 233 l 1
EndSplineSet
Validated: 1
EndChar

StartChar: period
Encoding: 46 46 30
Width: 277
VWidth: 0
Flags: W
TeX: 126 0
HStem: 0 126<101 175>
VStem: 101 74<0 126>
LayerCount: 2
Fore
SplineSet
101 0 m 1
 101 126 l 1
 175 126 l 1
 175 0 l 1
 101 0 l 1
EndSplineSet
Validated: 1
EndChar

StartChar: zero
Encoding: 48 48 31
Width: 554
VWidth: 0
Flags: W
TeX: 739 0
HStem: -13 67<184.025 374.275> 685 67<185.596 370.82>
VStem: 30 73<149.006 591.592> 452 73<147.357 594.858>
LayerCount: 2
Fore
SplineSet
30 269 m 2
 30 479 l 2
 30 664 126 752 277 752 c 0
 422 752 525 668 525 479 c 2
 525 269 l 2
 525 69 434 -13 283 -13 c 0
 128 -13 30 73 30 269 c 2
103 281 m 2
 103 108 173 54 280 54 c 0
 397 54 452 117 452 281 c 2
 452 462 l 2
 452 594 413 685 278 685 c 0
 168 685 103 627 103 462 c 2
 103 281 l 2
EndSplineSet
Validated: 1
AlternateSubs2: "'aalt' Access All Alternates lookup 0 subtable" zero.slash zero.prop zero.oldstyle
AlternateSubs2: "'aalt' Access All Alternates in Latin lookup 0 subtable" zero.slash zero.prop zero.oldstyle
Substitution2: "'zero' Slashed Zero in Latin lookup 21 subtable" zero.slash
Substitution2: "'pnum' Proportional Numbers in Latin lookup 5 subtable" zero.prop
Substitution2: "'onum' Oldstyle Figures in Latin lookup 3 subtable" zero.oldstyle
EndChar

StartChar: one
Encoding: 49 49 32
Width: 554
VWidth: 0
Flags: W
TeX: 739 0
HStem: 0 21G<281 354> 672 67<155 281>
VStem: 281 73<0 672>
LayerCount: 2
Fore
SplineSet
155 672 m 1
 155 739 l 1
 354 739 l 1
 354 0 l 1
 281 0 l 1
 281 672 l 1
 155 672 l 1
EndSplineSet
Validated: 1
AlternateSubs2: "'aalt' Access All Alternates lookup 0 subtable" one.prop one.oldstyle
AlternateSubs2: "'aalt' Access All Alternates in Latin lookup 0 subtable" one.prop one.oldstyle
Substitution2: "'pnum' Proportional Numbers in Latin lookup 5 subtable" one.prop
Substitution2: "'onum' Oldstyle Figures in Latin lookup 3 subtable" one.oldstyle
EndChar

StartChar: two
Encoding: 50 50 33
Width: 554
VWidth: 0
Flags: W
TeX: 739 0
HStem: 0 67<133 502> 685 67<187.976 356.334>
VStem: 39 73<500 604.291> 432 74<450.905 610.637>
LayerCount: 2
Fore
SplineSet
33 0 m 1
 33 67 l 1
 292 317 l 2
 372 393 432 449 432 531 c 0
 432 620 365 685 272 685 c 0
 175 685 112 621 112 500 c 1
 39 500 l 1
 39 657 131 752 273 752 c 0
 408 752 506 657 506 527 c 0
 506 448 474 393 370 294 c 2
 133 67 l 1
 502 67 l 1
 502 0 l 1
 33 0 l 1
EndSplineSet
Validated: 1
AlternateSubs2: "'aalt' Access All Alternates lookup 0 subtable" two.prop two.oldstyle
AlternateSubs2: "'aalt' Access All Alternates in Latin lookup 0 subtable" two.prop two.oldstyle
Substitution2: "'pnum' Proportional Numbers in Latin lookup 5 subtable" two.prop
Substitution2: "'onum' Oldstyle Figures in Latin lookup 3 subtable" two.oldstyle
EndChar

StartChar: three
Encoding: 51 51 34
Width: 554
VWidth: 0
Flags: W
TeX: 739 0
HStem: -13 67<183.363 348.75> 388 66<219 334.776> 555 21G<82 155> 685 67<200.341 336.629>
VStem: 33 73<135.001 231> 82 73<555 636.828> 381 74<498.188 640.256> 430 74<136.285 302.372>
LayerCount: 2
Fore
SplineSet
33 231 m 1xf9
 106 231 l 1
 106 107 183 54 270 54 c 0
 360 54 430 126 430 220 c 0xf9
 430 297 379 365 305 382 c 0
 285 386 268 387 219 388 c 1
 219 454 l 1
 236 453 l 2
 245 452 252 452 255 452 c 0
 332 452 381 498 381 568 c 0
 381 637 335 685 269 685 c 0
 197 685 155 637 155 555 c 1
 82 555 l 1
 82 676 158 752 269 752 c 0
 378 752 455 675 455 565 c 0xf6
 455 504 431 459 379 423 c 1
 462 381 504 313 504 224 c 0
 504 91 402 -13 272 -13 c 0
 138 -13 33 80 33 231 c 1xf9
EndSplineSet
Validated: 1
AlternateSubs2: "'aalt' Access All Alternates lookup 0 subtable" three.prop three.oldstyle
AlternateSubs2: "'aalt' Access All Alternates in Latin lookup 0 subtable" three.prop three.oldstyle
Substitution2: "'pnum' Proportional Numbers in Latin lookup 5 subtable" three.prop
Substitution2: "'onum' Oldstyle Figures in Latin lookup 3 subtable" three.oldstyle
EndChar

StartChar: four
Encoding: 52 52 35
Width: 554
VWidth: 0
Flags: W
TeX: 739 0
HStem: 0 21G<386 459> 135 67<97 386 459 527> 719 20G<358.592 459>
VStem: 386 73<0 135 202 637>
LayerCount: 2
Fore
SplineSet
12 135 m 1
 12 202 l 1
 372 739 l 1
 459 739 l 1
 459 202 l 1
 527 202 l 1
 527 135 l 1
 459 135 l 1
 459 0 l 1
 386 0 l 1
 386 135 l 1
 12 135 l 1
97 202 m 1
 386 202 l 1
 386 637 l 1
 97 202 l 1
EndSplineSet
Validated: 1
AlternateSubs2: "'aalt' Access All Alternates lookup 0 subtable" four.prop four.oldstyle
AlternateSubs2: "'aalt' Access All Alternates in Latin lookup 0 subtable" four.prop four.oldstyle
Substitution2: "'pnum' Proportional Numbers in Latin lookup 5 subtable" four.prop
Substitution2: "'onum' Oldstyle Figures in Latin lookup 3 subtable" four.oldstyle
EndChar

StartChar: five
Encoding: 53 53 36
Width: 554
VWidth: 0
Flags: W
TeX: 739 0
HStem: -13 67<197.271 359.228> 436 67<193.909 357.711> 672 67<192 466>
VStem: 26 72<159.891 232> 454 74<154.888 336.558>
LayerCount: 2
Fore
SplineSet
26 232 m 1
 98 232 l 1
 111 127 184 54 277 54 c 0
 376 54 454 138 454 246 c 0
 454 354 377 436 277 436 c 0
 219 436 169 409 124 353 c 1
 67 375 l 1
 133 739 l 1
 466 739 l 1
 466 672 l 1
 192 672 l 1
 156 468 l 1
 201 493 239 503 283 503 c 0
 421 503 528 390 528 246 c 0
 528 101 419 -13 280 -13 c 0
 146 -13 48 78 26 232 c 1
EndSplineSet
Validated: 1
AlternateSubs2: "'aalt' Access All Alternates lookup 0 subtable" five.prop five.oldstyle
AlternateSubs2: "'aalt' Access All Alternates in Latin lookup 0 subtable" five.prop five.oldstyle
Substitution2: "'pnum' Proportional Numbers in Latin lookup 5 subtable" five.prop
Substitution2: "'onum' Oldstyle Figures in Latin lookup 3 subtable" five.oldstyle
EndChar

StartChar: six
Encoding: 54 54 37
Width: 554
VWidth: 0
Flags: W
TeX: 739 0
HStem: -13 67<196.018 361.977> 436 67<207.981 364.513> 719 20G<282.544 381>
VStem: 25 74<153.491 339.279> 455 74<151.308 337.916>
LayerCount: 2
Fore
SplineSet
25 244 m 0
 25 316 42 362 113 467 c 2
 296 739 l 1
 381 739 l 1
 207 482 l 1
 240 497 263 503 294 503 c 0
 425 503 529 391 529 249 c 0
 529 98 424 -13 280 -13 c 0
 134 -13 25 97 25 244 c 0
99 248 m 0
 99 136 176 54 280 54 c 0
 381 54 455 135 455 246 c 0
 455 356 381 436 278 436 c 0
 177 436 99 354 99 248 c 0
EndSplineSet
Validated: 1
AlternateSubs2: "'aalt' Access All Alternates lookup 0 subtable" six.prop six.oldstyle
AlternateSubs2: "'aalt' Access All Alternates in Latin lookup 0 subtable" six.prop six.oldstyle
Substitution2: "'pnum' Proportional Numbers in Latin lookup 5 subtable" six.prop
Substitution2: "'onum' Oldstyle Figures in Latin lookup 3 subtable" six.oldstyle
EndChar

StartChar: seven
Encoding: 55 55 38
Width: 554
VWidth: 0
Flags: W
TeX: 739 0
HStem: 0 21G<110 196.988> 672 67<64 414>
LayerCount: 2
Fore
SplineSet
64 672 m 1
 64 739 l 1
 490 739 l 1
 490 672 l 1
 188 0 l 1
 110 0 l 1
 414 672 l 1
 64 672 l 1
EndSplineSet
Validated: 1
AlternateSubs2: "'aalt' Access All Alternates lookup 0 subtable" seven.prop seven.oldstyle
AlternateSubs2: "'aalt' Access All Alternates in Latin lookup 0 subtable" seven.prop seven.oldstyle
Substitution2: "'pnum' Proportional Numbers in Latin lookup 5 subtable" seven.prop
Substitution2: "'onum' Oldstyle Figures in Latin lookup 3 subtable" seven.oldstyle
EndChar

StartChar: eight
Encoding: 56 56 39
Width: 554
VWidth: 0
Flags: W
TeX: 739 0
HStem: -13 67<195.776 361.485> 375 69<208.955 349.387> 685 67<204.623 348.186>
VStem: 42 74<133.939 298.503> 81 74<497.005 636.902> 399 74<494.33 634.698> 438 74<130.318 298.64>
LayerCount: 2
Fore
SplineSet
42 215 m 0xf2
 42 304 86 374 167 413 c 1
 107 449 81 495 81 561 c 0
 81 670 166 752 278 752 c 0
 391 752 473 672 473 561 c 0xec
 473 488 445 441 385 413 c 1
 467 377 512 309 512 218 c 0
 512 84 415 -13 280 -13 c 0
 144 -13 42 85 42 215 c 0xf2
116 216 m 0xf2
 116 121 183 54 279 54 c 0
 372 54 438 122 438 216 c 0
 438 309 371 375 278 375 c 0
 183 375 116 309 116 216 c 0xf2
155 567 m 0xec
 155 496 208 444 281 444 c 0
 348 444 399 496 399 565 c 0
 399 635 348 685 277 685 c 0
 206 685 155 636 155 567 c 0xec
EndSplineSet
Validated: 1
AlternateSubs2: "'aalt' Access All Alternates lookup 0 subtable" eight.prop eight.oldstyle
AlternateSubs2: "'aalt' Access All Alternates in Latin lookup 0 subtable" eight.prop eight.oldstyle
Substitution2: "'pnum' Proportional Numbers in Latin lookup 5 subtable" eight.prop
Substitution2: "'onum' Oldstyle Figures in Latin lookup 3 subtable" eight.oldstyle
EndChar

StartChar: nine
Encoding: 57 57 40
Width: 554
VWidth: 0
Flags: W
TeX: 739 0
HStem: 0 21G<173 271.456> 236 67<189.487 346.019> 685 67<190.144 357.982>
VStem: 25 74<401.084 587.913> 455 74<400.907 585.509>
LayerCount: 2
Fore
SplineSet
25 490 m 0
 25 641 130 752 274 752 c 0
 420 752 529 642 529 495 c 0
 529 422 511 376 441 272 c 2
 258 0 l 1
 173 0 l 1
 347 257 l 1
 314 242 291 236 260 236 c 0
 129 236 25 348 25 490 c 0
99 493 m 0
 99 383 173 303 276 303 c 0
 377 303 455 385 455 491 c 0
 455 603 378 685 274 685 c 0
 173 685 99 605 99 493 c 0
EndSplineSet
Validated: 1
AlternateSubs2: "'aalt' Access All Alternates lookup 0 subtable" nine.prop nine.oldstyle
AlternateSubs2: "'aalt' Access All Alternates in Latin lookup 0 subtable" nine.prop nine.oldstyle
Substitution2: "'pnum' Proportional Numbers in Latin lookup 5 subtable" nine.prop
Substitution2: "'onum' Oldstyle Figures in Latin lookup 3 subtable" nine.oldstyle
EndChar

StartChar: colon
Encoding: 58 58 41
Width: 277
VWidth: 0
Flags: W
TeX: 507 0
HStem: 0 126<101 175> 381 126<101 175>
VStem: 101 74<0 126 381 507>
LayerCount: 2
Fore
SplineSet
101 0 m 1
 101 126 l 1
 175 126 l 1
 175 0 l 1
 101 0 l 1
101 381 m 1
 101 507 l 1
 175 507 l 1
 175 381 l 1
 101 381 l 1
EndSplineSet
Validated: 1
EndChar

StartChar: semicolon
Encoding: 59 59 42
Width: 277
VWidth: 0
Flags: W
TeX: 507 -67
HStem: 381 126<125 199>
VStem: 125 74<381 507>
LayerCount: 2
Fore
SplineSet
41 -67 m 1
 129 126 l 1
 203 126 l 1
 115 -67 l 1
 41 -67 l 1
125 381 m 1
 125 507 l 1
 199 507 l 1
 199 381 l 1
 125 381 l 1
EndSplineSet
Validated: 1
EndChar

StartChar: question
Encoding: 63 63 43
Width: 591
VWidth: 0
Flags: W
TeX: 739 0
HStem: 0 126<261 335> 685 67<211.804 379.4>
VStem: 65 70<508 606.432> 261 74<0 126 193 277.943> 451 74<465.166 616.371>
LayerCount: 2
Fore
SplineSet
65 508 m 1
 65 669 167 752 299 752 c 0
 430 752 525 661 525 535 c 0
 525 471 501 424 435 365 c 0
 361 299 334 257 333 193 c 1
 263 193 l 1
 264 275 291 326 367 397 c 0
 435 460 451 488 451 537 c 0
 451 623 387 685 299 685 c 0
 203 685 135 629 135 508 c 1
 65 508 l 1
261 0 m 1
 261 126 l 1
 335 126 l 1
 335 0 l 1
 261 0 l 1
EndSplineSet
Validated: 1
EndChar

StartChar: at
Encoding: 64 64 44
Width: 867
VWidth: 0
Flags: W
TeX: 739 0
HStem: -13 50<338.022 569.405> 139 52<544.625 635.676> 144 58<317.311 432.486> 539 54<400.769 519.84> 701 51<339.092 569.726>
VStem: 71 52<253.46 481.878> 219 72<228.869 398.515> 747 50<334.459 535.076>
LayerCount: 2
Fore
SplineSet
71 367 m 0xdf
 71 580 241 752 453 752 c 0
 641 752 797 613 797 433 c 0
 797 292 688 139 564 139 c 0xdf
 517 139 492 155 476 196 c 1
 439 159 404 144 357 144 c 0xbf
 276 144 219 205 219 292 c 0
 219 445 339 593 463 593 c 0
 515 593 554 577 578 524 c 1
 595 574 l 1
 656 574 l 1
 563 296 l 2
 543 235 543 234 543 219 c 0
 543 203 557 191 577 191 c 0
 659 191 747 326 747 434 c 0
 747 585 620 701 452 701 c 0
 271 701 123 551 123 368 c 0
 123 184 269 37 453 37 c 0
 544 37 624 72 687 138 c 1
 727 105 l 1
 665 32 559 -13 451 -13 c 0
 239 -13 71 155 71 367 c 0xdf
291 294 m 0
 291 239 323 202 371 202 c 0xbf
 416 202 451 229 486 291 c 0
 515 343 540 421 540 459 c 0
 540 508 511 539 466 539 c 0
 378 539 291 417 291 294 c 0
EndSplineSet
Validated: 1
AlternateSubs2: "'aalt' Access All Alternates lookup 0 subtable" at.alt
AlternateSubs2: "'aalt' Access All Alternates in Latin lookup 0 subtable" at.alt
Substitution2: "'ss02' Style Set 2 in Latin lookup 16 subtable" at.alt
Substitution2: "'ss01' Style Set 1 in Latin lookup 15 subtable" at.alt
Substitution2: "'salt' Stylistic Alternatives in Latin lookup 14 subtable" at.alt
EndChar

StartChar: A
Encoding: 65 65 45
Width: 740
VWidth: 0
GlyphClass: 2
Flags: W
TeX: 739 0
HStem: 0 21G<11 97.6747 639.406 729> 249 67<225 512> 719 20G<319.421 419.606>
AnchorPoint: "bot_acc" 370 -123 basechar 0
AnchorPoint: "dotbelow" 370 -123 basechar 0
AnchorPoint: "ogon_acc" 657 -123 basechar 0
AnchorPoint: "top_accu" 370 852 basechar 0
AnchorPoint: "dotabove" 370 852 basechar 0
LayerCount: 2
Fore
SplineSet
11 0 m 1
 328 739 l 1
 411 739 l 1
 729 0 l 1
 648 0 l 1
 541 249 l 1
 197 249 l 1
 89 0 l 1
 11 0 l 1
225 316 m 1
 512 316 l 1
 370 655 l 1
 225 316 l 1
EndSplineSet
Validated: 1
AlternateSubs2: "'aalt' Access All Alternates lookup 0 subtable" a.sc
AlternateSubs2: "'aalt' Access All Alternates in Latin lookup 0 subtable" a.sc
Substitution2: "'c2sc' Capitals to Small Capitals in Latin lookup 13 subtable" a.sc
Position2: "'cpsp' Capital Spacing in Latin lookup 13 subtable" dx=7 dy=0 dh=14 dv=0
EndChar

StartChar: B
Encoding: 66 66 46
Width: 574
VWidth: 0
GlyphClass: 2
Flags: W
TeX: 739 0
HStem: 0 67<150 396.744> 354 67<150 373.212> 672 67<150 374.176>
VStem: 76 74<67 354 421 672> 427 75<467.652 625.729> 469 75<127.705 293.15>
AnchorPoint: "bot_acc" 310 -123 basechar 0
AnchorPoint: "dotbelow" 310 -123 basechar 0
AnchorPoint: "ogon_acc" 187 -123 basechar 0
AnchorPoint: "top_accu" 310 852 basechar 0
AnchorPoint: "dotabove" 310 852 basechar 0
LayerCount: 2
Fore
SplineSet
76 0 m 1xf4
 76 739 l 1
 249 739 l 2
 429 739 502 674 502 547 c 0xf8
 502 474 477 426 420 394 c 1
 506 359 544 302 544 212 c 0
 544 66 464 0 259 0 c 2
 76 0 l 1xf4
150 67 m 1
 251 67 l 2
 402 67 469 101 469 208 c 0xf4
 469 346 369 354 238 354 c 2
 150 354 l 1
 150 67 l 1
150 421 m 1
 240 421 l 2
 379 421 427 453 427 546 c 0xf8
 427 636 388 672 239 672 c 2
 150 672 l 1
 150 421 l 1
EndSplineSet
Validated: 1
AlternateSubs2: "'aalt' Access All Alternates lookup 0 subtable" b.sc
AlternateSubs2: "'aalt' Access All Alternates in Latin lookup 0 subtable" b.sc
Substitution2: "'c2sc' Capitals to Small Capitals in Latin lookup 13 subtable" b.sc
Position2: "'cpsp' Capital Spacing in Latin lookup 13 subtable" dx=7 dy=0 dh=14 dv=0
EndChar

StartChar: C
Encoding: 67 67 47
Width: 813
VWidth: 0
GlyphClass: 2
Flags: W
TeX: 739 0
HStem: -13 68<320.272 545.546> 547 21G<652.5 767> 684 68<316.685 548.694>
VStem: 44 75<257.85 485.81>
AnchorPoint: "bot_acc" 427 -123 basechar 0
AnchorPoint: "dotbelow" 427 -123 basechar 0
AnchorPoint: "ogon_acc" 427 -123 basechar 0
AnchorPoint: "top_accu" 427 852 basechar 0
AnchorPoint: "dotabove" 427 852 basechar 0
LayerCount: 2
Fore
SplineSet
44 367 m 0
 44 588 207 752 427 752 c 0
 580 752 710 674 767 547 c 1
 684 547 l 1
 621 646 534 684 430 684 c 0
 254 684 119 548 119 370 c 0
 119 197 260 55 431 55 c 0
 539 55 610 96 688 194 c 1
 770 194 l 1
 696 57 582 -13 432 -13 c 0
 211 -13 44 151 44 367 c 0
EndSplineSet
Validated: 1
AlternateSubs2: "'aalt' Access All Alternates lookup 0 subtable" c.sc
AlternateSubs2: "'aalt' Access All Alternates in Latin lookup 0 subtable" c.sc
Substitution2: "'c2sc' Capitals to Small Capitals in Latin lookup 13 subtable" c.sc
Position2: "'cpsp' Capital Spacing in Latin lookup 13 subtable" dx=7 dy=0 dh=14 dv=0
EndChar

StartChar: D
Encoding: 68 68 48
Width: 744
VWidth: 0
GlyphClass: 2
Flags: W
TeX: 739 0
HStem: 0 67<150 432.314> 672 67<150 431.512>
VStem: 76 74<67 672> 625 75<252.561 488.981>
AnchorPoint: "bot_acc" 298 -123 basechar 0
AnchorPoint: "dotbelow" 298 -123 basechar 0
AnchorPoint: "ogon_acc" 203 -123 basechar 0
AnchorPoint: "top_accu" 298 852 basechar 0
AnchorPoint: "dotabove" 298 852 basechar 0
LayerCount: 2
Fore
SplineSet
76 0 m 1
 76 739 l 1
 250 739 l 2
 384 739 462 723 532 681 c 0
 642 616 700 506 700 367 c 0
 700 154 564 0 275 0 c 2
 76 0 l 1
150 67 m 1
 253 67 l 2
 384 67 460 86 519 133 c 0
 587 188 625 273 625 370 c 0
 625 480 576 573 491 624 c 0
 435 658 365 672 253 672 c 2
 150 672 l 1
 150 67 l 1
EndSplineSet
Validated: 1
AlternateSubs2: "'aalt' Access All Alternates lookup 0 subtable" d.sc
AlternateSubs2: "'aalt' Access All Alternates in Latin lookup 0 subtable" d.sc
Substitution2: "'c2sc' Capitals to Small Capitals in Latin lookup 13 subtable" d.sc
Position2: "'cpsp' Capital Spacing in Latin lookup 13 subtable" dx=7 dy=0 dh=14 dv=0
EndChar

StartChar: E
Encoding: 69 69 49
Width: 536
VWidth: 0
GlyphClass: 2
Flags: W
TeX: 739 0
HStem: 0 67<150 480> 340 67<150 469> 672 67<150 480>
VStem: 76 74<67 340 407 672>
AnchorPoint: "bot_acc" 278 -123 basechar 0
AnchorPoint: "dotbelow" 278 -123 basechar 0
AnchorPoint: "ogon_acc" 408 -123 basechar 0
AnchorPoint: "top_accu" 278 852 basechar 0
AnchorPoint: "dotabove" 278 852 basechar 0
LayerCount: 2
Fore
SplineSet
76 0 m 1
 76 739 l 1
 480 739 l 1
 480 672 l 1
 150 672 l 1
 150 407 l 1
 469 407 l 1
 469 340 l 1
 150 340 l 1
 150 67 l 1
 480 67 l 1
 480 0 l 1
 76 0 l 1
EndSplineSet
Validated: 1
AlternateSubs2: "'aalt' Access All Alternates lookup 0 subtable" e.sc
AlternateSubs2: "'aalt' Access All Alternates in Latin lookup 0 subtable" e.sc
Substitution2: "'c2sc' Capitals to Small Capitals in Latin lookup 13 subtable" e.sc
Position2: "'cpsp' Capital Spacing in Latin lookup 13 subtable" dx=7 dy=0 dh=14 dv=0
EndChar

StartChar: F
Encoding: 70 70 50
Width: 485
VWidth: 0
GlyphClass: 2
Flags: W
TeX: 739 0
HStem: 0 21G<76 150> 338 67<150 440> 672 67<150 451>
VStem: 76 74<0 338 405 672>
AnchorPoint: "bot_acc" 264 -123 basechar 0
AnchorPoint: "dotbelow" 264 -123 basechar 0
AnchorPoint: "ogon_acc" 78 -123 basechar 0
AnchorPoint: "top_accu" 264 852 basechar 0
AnchorPoint: "dotabove" 264 852 basechar 0
LayerCount: 2
Fore
SplineSet
76 0 m 1
 76 739 l 1
 451 739 l 1
 451 672 l 1
 150 672 l 1
 150 405 l 1
 440 405 l 1
 440 338 l 1
 150 338 l 1
 150 0 l 1
 76 0 l 1
EndSplineSet
Validated: 1
AlternateSubs2: "'aalt' Access All Alternates lookup 0 subtable" f.sc
AlternateSubs2: "'aalt' Access All Alternates in Latin lookup 0 subtable" f.sc
Substitution2: "'c2sc' Capitals to Small Capitals in Latin lookup 13 subtable" f.sc
Position2: "'cpsp' Capital Spacing in Latin lookup 13 subtable" dx=7 dy=0 dh=14 dv=0
EndChar

StartChar: G
Encoding: 71 71 51
Width: 872
VWidth: 0
GlyphClass: 2
Flags: W
TeX: 739 0
HStem: -13 68<324.164 552.883> 274 67<329 742> 684 68<324.761 559.886>
VStem: 44 75<257.678 485.895>
AnchorPoint: "bot_acc" 436 -123 basechar 0
AnchorPoint: "dotbelow" 436 -123 basechar 0
AnchorPoint: "ogon_acc" 436 -123 basechar 0
AnchorPoint: "top_accu" 436 852 basechar 0
AnchorPoint: "dotabove" 436 852 basechar 0
LayerCount: 2
Fore
SplineSet
44 371 m 0
 44 585 216 752 436 752 c 0
 597 752 737 668 786 542 c 1
 703 542 l 1
 652 632 556 684 442 684 c 0
 260 684 119 547 119 369 c 0
 119 193 262 55 443 55 c 0
 589 55 715 157 742 274 c 1
 329 274 l 1
 329 341 l 1
 831 341 l 1
 820 155 663 -13 446 -13 c 0
 220 -13 44 155 44 371 c 0
EndSplineSet
Validated: 1
AlternateSubs2: "'aalt' Access All Alternates lookup 0 subtable" g.sc
AlternateSubs2: "'aalt' Access All Alternates in Latin lookup 0 subtable" g.sc
Substitution2: "'c2sc' Capitals to Small Capitals in Latin lookup 13 subtable" g.sc
Position2: "'cpsp' Capital Spacing in Latin lookup 13 subtable" dx=7 dy=0 dh=14 dv=0
EndChar

StartChar: H
Encoding: 72 72 52
Width: 683
VWidth: 0
GlyphClass: 2
Flags: W
TeX: 739 0
HStem: 0 21G<76 150 533 607> 347 67<150 533> 719 20G<76 150 533 607>
VStem: 76 74<0 347 414 739> 533 74<0 347 414 739>
AnchorPoint: "bot_acc" 342 -123 basechar 0
AnchorPoint: "dotbelow" 342 -123 basechar 0
AnchorPoint: "ogon_acc" 535 -123 basechar 0
AnchorPoint: "top_accu" 342 852 basechar 0
AnchorPoint: "dotabove" 342 852 basechar 0
LayerCount: 2
Fore
SplineSet
76 0 m 1
 76 739 l 1
 150 739 l 1
 150 414 l 1
 533 414 l 1
 533 739 l 1
 607 739 l 1
 607 0 l 1
 533 0 l 1
 533 347 l 1
 150 347 l 1
 150 0 l 1
 76 0 l 1
EndSplineSet
Validated: 1
AlternateSubs2: "'aalt' Access All Alternates lookup 0 subtable" h.sc
AlternateSubs2: "'aalt' Access All Alternates in Latin lookup 0 subtable" h.sc
Substitution2: "'c2sc' Capitals to Small Capitals in Latin lookup 13 subtable" h.sc
Position2: "'cpsp' Capital Spacing in Latin lookup 13 subtable" dx=7 dy=0 dh=14 dv=0
EndChar

StartChar: I
Encoding: 73 73 53
Width: 226
VWidth: 0
GlyphClass: 2
Flags: W
TeX: 739 0
HStem: 0 21G<76 150> 719 20G<76 150>
VStem: 76 74<0 739>
AnchorPoint: "bot_acc" 113 -123 basechar 0
AnchorPoint: "dotbelow" 113 -123 basechar 0
AnchorPoint: "ogon_acc" 78 -123 basechar 0
AnchorPoint: "top_accu" 113 852 basechar 0
AnchorPoint: "dotabove" 113 852 basechar 0
LayerCount: 2
Fore
SplineSet
76 0 m 1
 76 739 l 1
 150 739 l 1
 150 0 l 1
 76 0 l 1
EndSplineSet
Validated: 1
AlternateSubs2: "'aalt' Access All Alternates lookup 0 subtable" i.sc
AlternateSubs2: "'aalt' Access All Alternates in Latin lookup 0 subtable" i.sc
Substitution2: "'c2sc' Capitals to Small Capitals in Latin lookup 13 subtable" i.sc
Position2: "'cpsp' Capital Spacing in Latin lookup 13 subtable" dx=7 dy=0 dh=14 dv=0
EndChar

StartChar: J
Encoding: 74 74 54
Width: 482
VWidth: 0
GlyphClass: 2
Flags: W
TeX: 739 -14
HStem: -14 68<136.373 278.853> 719 20G<332 406>
VStem: 11 73<109.113 175> 332 74<117.844 739>
AnchorPoint: "bot_acc" 369 -123 basechar 0
AnchorPoint: "dotbelow" 369 -123 basechar 0
AnchorPoint: "ogon_acc" 174 -123 basechar 0
AnchorPoint: "top_accu" 369 852 basechar 0
AnchorPoint: "dotabove" 369 852 basechar 0
AnchorPoint: "ccmped" 532 676 basechar 0
LayerCount: 2
Fore
SplineSet
11 175 m 1
 84 175 l 1
 89 100 137 54 210 54 c 0
 290 54 332 114 332 231 c 2
 332 739 l 1
 406 739 l 1
 406 231 l 2
 406 67 335 -14 209 -14 c 0
 91 -14 17 57 11 175 c 1
EndSplineSet
Validated: 1
AlternateSubs2: "'aalt' Access All Alternates lookup 0 subtable" j.sc
AlternateSubs2: "'aalt' Access All Alternates in Latin lookup 0 subtable" j.sc
Substitution2: "'c2sc' Capitals to Small Capitals in Latin lookup 13 subtable" j.sc
Position2: "'cpsp' Capital Spacing in Latin lookup 13 subtable" dx=7 dy=0 dh=14 dv=0
EndChar

StartChar: K
Encoding: 75 75 55
Width: 591
VWidth: 0
GlyphClass: 2
Flags: W
TeX: 739 0
HStem: 0 21G<76 150 476.625 585> 719 20G<76 150 475.906 585>
VStem: 76 74<0 202 314 739>
AnchorPoint: "bot_acc" 321 -123 basechar 0
AnchorPoint: "dotbelow" 321 -123 basechar 0
AnchorPoint: "ogon_acc" 513 -123 basechar 0
AnchorPoint: "top_accu" 321 852 basechar 0
AnchorPoint: "dotabove" 321 852 basechar 0
LayerCount: 2
Fore
SplineSet
76 0 m 1
 76 739 l 1
 150 739 l 1
 150 314 l 1
 492 739 l 1
 585 739 l 1
 293 379 l 1
 585 0 l 1
 492 0 l 1
 246 320 l 1
 150 202 l 1
 150 0 l 1
 76 0 l 1
EndSplineSet
Validated: 1
AlternateSubs2: "'aalt' Access All Alternates lookup 0 subtable" k.sc
AlternateSubs2: "'aalt' Access All Alternates in Latin lookup 0 subtable" k.sc
Substitution2: "'c2sc' Capitals to Small Capitals in Latin lookup 13 subtable" k.sc
Position2: "'cpsp' Capital Spacing in Latin lookup 13 subtable" dx=7 dy=0 dh=14 dv=0
EndChar

StartChar: L
Encoding: 76 76 56
Width: 462
VWidth: 0
GlyphClass: 2
Flags: W
TeX: 739 0
HStem: 0 67<150 456> 719 20G<76 150>
VStem: 76 74<67 739>
AnchorPoint: "bot_acc" 266 -123 basechar 0
AnchorPoint: "dotbelow" 266 -123 basechar 0
AnchorPoint: "ogon_acc" 384 -123 basechar 0
AnchorPoint: "top_accu" 113 852 basechar 0
AnchorPoint: "dotabove" 113 852 basechar 0
AnchorPoint: "ccmped" 289 676 basechar 0
LayerCount: 2
Fore
SplineSet
76 0 m 1
 76 739 l 1
 150 739 l 1
 150 67 l 1
 456 67 l 1
 456 0 l 1
 76 0 l 1
EndSplineSet
Validated: 1
AlternateSubs2: "'aalt' Access All Alternates lookup 0 subtable" l.sc
AlternateSubs2: "'aalt' Access All Alternates in Latin lookup 0 subtable" l.sc
Substitution2: "'c2sc' Capitals to Small Capitals in Latin lookup 13 subtable" l.sc
Position2: "'cpsp' Capital Spacing in Latin lookup 13 subtable" dx=7 dy=0 dh=14 dv=0
EndChar

StartChar: M
Encoding: 77 77 57
Width: 919
VWidth: 0
GlyphClass: 2
Flags: W
TeX: 739 0
HStem: 0 21G<76 150 418.581 499.45 769 843> 719 20G<76 199.553 719.479 843>
VStem: 76 74<0 658> 769 74<0 658>
AnchorPoint: "bot_acc" 460 -123 basechar 0
AnchorPoint: "dotbelow" 460 -123 basechar 0
AnchorPoint: "ogon_acc" 771 -123 basechar 0
AnchorPoint: "top_accu" 460 852 basechar 0
AnchorPoint: "dotabove" 460 852 basechar 0
LayerCount: 2
Fore
SplineSet
76 0 m 1
 76 739 l 1
 191 739 l 1
 460 110 l 1
 728 739 l 1
 843 739 l 1
 843 0 l 1
 769 0 l 1
 769 658 l 1
 491 0 l 1
 427 0 l 1
 150 658 l 1
 150 0 l 1
 76 0 l 1
EndSplineSet
Validated: 1
AlternateSubs2: "'aalt' Access All Alternates lookup 0 subtable" m.sc
AlternateSubs2: "'aalt' Access All Alternates in Latin lookup 0 subtable" m.sc
Substitution2: "'c2sc' Capitals to Small Capitals in Latin lookup 13 subtable" m.sc
Position2: "'cpsp' Capital Spacing in Latin lookup 13 subtable" dx=7 dy=0 dh=14 dv=0
EndChar

StartChar: N
Encoding: 78 78 58
Width: 740
VWidth: 0
GlyphClass: 2
Flags: W
TeX: 739 0
HStem: 0 21G<76 150 576.462 664> 719 20G<76 189.507 590 664>
VStem: 76 74<0 650> 590 74<126 739>
AnchorPoint: "bot_acc" 370 -123 basechar 0
AnchorPoint: "dotbelow" 370 -123 basechar 0
AnchorPoint: "ogon_acc" 592 -123 basechar 0
AnchorPoint: "top_accu" 370 852 basechar 0
AnchorPoint: "dotabove" 370 852 basechar 0
LayerCount: 2
Fore
SplineSet
76 0 m 1
 76 739 l 1
 176 739 l 1
 590 126 l 1
 590 739 l 1
 664 739 l 1
 664 0 l 1
 590 0 l 1
 150 650 l 1
 150 0 l 1
 76 0 l 1
EndSplineSet
Validated: 1
AlternateSubs2: "'aalt' Access All Alternates lookup 0 subtable" n.sc
AlternateSubs2: "'aalt' Access All Alternates in Latin lookup 0 subtable" n.sc
Substitution2: "'c2sc' Capitals to Small Capitals in Latin lookup 13 subtable" n.sc
Position2: "'cpsp' Capital Spacing in Latin lookup 13 subtable" dx=7 dy=0 dh=14 dv=0
EndChar

StartChar: O
Encoding: 79 79 59
Width: 869
VWidth: 0
GlyphClass: 2
Flags: W
TeX: 739 0
HStem: -13 68<323.466 545.483> 684 68<328.556 541.897>
VStem: 44 75<257.121 477.05> 750 75<258.632 479.37>
AnchorPoint: "bot_acc" 435 -123 basechar 0
AnchorPoint: "dotbelow" 435 -123 basechar 0
AnchorPoint: "ogon_acc" 435 -123 basechar 0
AnchorPoint: "top_accu" 435 852 basechar 0
AnchorPoint: "dotabove" 435 852 basechar 0
LayerCount: 2
Fore
SplineSet
44 374 m 0
 44 579 223 752 435 752 c 0
 649 752 825 580 825 369 c 0
 825 160 649 -13 435 -13 c 0
 218 -13 44 159 44 374 c 0
119 372 m 0
 119 197 261 55 435 55 c 0
 607 55 750 197 750 368 c 0
 750 541 607 684 435 684 c 0
 264 684 119 541 119 372 c 0
EndSplineSet
Validated: 1
AlternateSubs2: "'aalt' Access All Alternates lookup 0 subtable" o.sc
AlternateSubs2: "'aalt' Access All Alternates in Latin lookup 0 subtable" o.sc
Substitution2: "'c2sc' Capitals to Small Capitals in Latin lookup 13 subtable" o.sc
Position2: "'cpsp' Capital Spacing in Latin lookup 13 subtable" dx=7 dy=0 dh=14 dv=0
EndChar

StartChar: P
Encoding: 80 80 60
Width: 592
VWidth: 0
GlyphClass: 2
Flags: W
TeX: 739 0
HStem: 0 21G<76 150> 299 67<150 419.453> 672 67<150 421.468>
VStem: 76 74<0 299 366 672> 490 75<427.014 610.342>
AnchorPoint: "bot_acc" 321 -123 basechar 0
AnchorPoint: "dotbelow" 321 -123 basechar 0
AnchorPoint: "ogon_acc" 78 -123 basechar 0
AnchorPoint: "top_accu" 321 852 basechar 0
AnchorPoint: "dotabove" 321 852 basechar 0
LayerCount: 2
Fore
SplineSet
76 0 m 1
 76 739 l 1
 280 739 l 2
 483 739 565 670 565 515 c 0
 565 375 493 299 292 299 c 2
 150 299 l 1
 150 0 l 1
 76 0 l 1
150 366 m 1
 287 366 l 2
 434 366 490 408 490 515 c 0
 490 665 396 672 255 672 c 2
 150 672 l 1
 150 366 l 1
EndSplineSet
Validated: 1
AlternateSubs2: "'aalt' Access All Alternates lookup 0 subtable" p.sc
AlternateSubs2: "'aalt' Access All Alternates in Latin lookup 0 subtable" p.sc
Substitution2: "'c2sc' Capitals to Small Capitals in Latin lookup 13 subtable" p.sc
Position2: "'cpsp' Capital Spacing in Latin lookup 13 subtable" dx=7 dy=0 dh=14 dv=0
EndChar

StartChar: Q
Encoding: 81 81 61
Width: 871
VWidth: 0
GlyphClass: 2
Flags: W
TeX: 739 -13
HStem: -13 68<330.508 558.873 741.647 827> 237 68<163.105 416.939> 684 68<322.042 558.348>
VStem: 44 75<281.543 479.57> 764 75<255.714 487.479>
AnchorPoint: "bot_acc" 442 -123 basechar 0
AnchorPoint: "dotbelow" 442 -123 basechar 0
AnchorPoint: "ogon_acc" 442 -123 basechar 0
AnchorPoint: "top_accu" 442 852 basechar 0
AnchorPoint: "dotabove" 442 852 basechar 0
LayerCount: 2
Fore
SplineSet
44 369 m 0
 44 588 216 752 444 752 c 0
 670 752 839 590 839 371 c 0
 839 258 796 161 716 93 c 1
 754 66 777 55 808 55 c 0
 811 55 821 55 827 56 c 1
 827 -13 l 1
 758 -12 716 4 665 51 c 1
 603 9 524 -13 443 -13 c 0
 221 -13 44 157 44 369 c 0
119 363 m 0
 119 336 122 315 130 279 c 1
 187 298 231 305 288 305 c 0
 436 305 540 250 663 142 c 1
 731 207 764 284 764 371 c 0
 764 548 624 684 442 684 c 0
 259 684 119 545 119 363 c 0
161 216 m 1
 208 128 321 55 443 55 c 0
 505 55 555 69 605 100 c 1
 498 197 403 237 277 237 c 0
 231 237 201 232 161 216 c 1
EndSplineSet
Validated: 1
AlternateSubs2: "'aalt' Access All Alternates lookup 0 subtable" q.sc
AlternateSubs2: "'aalt' Access All Alternates in Latin lookup 0 subtable" q.sc
Substitution2: "'c2sc' Capitals to Small Capitals in Latin lookup 13 subtable" q.sc
Position2: "'cpsp' Capital Spacing in Latin lookup 13 subtable" dx=7 dy=0 dh=14 dv=0
EndChar

StartChar: R
Encoding: 82 82 62
Width: 607
VWidth: 0
GlyphClass: 2
Flags: W
TeX: 739 0
HStem: 0 21G<76 150 459.134 566> 672 67<150 406.562>
VStem: 76 74<0 672> 502 75<408.72 592.827>
AnchorPoint: "bot_acc" 304 -123 basechar 0
AnchorPoint: "dotbelow" 304 -123 basechar 0
AnchorPoint: "ogon_acc" 494 -123 basechar 0
AnchorPoint: "top_accu" 304 852 basechar 0
AnchorPoint: "dotabove" 304 852 basechar 0
LayerCount: 2
Fore
SplineSet
76 0 m 1
 76 739 l 1
 259 739 l 2
 491 739 577 655 577 501 c 0
 577 370 501 291 359 276 c 1
 566 0 l 1
 474 0 l 1
 225 335 l 1
 432 335 502 371 502 504 c 0
 502 627 426 672 254 672 c 2
 150 672 l 1
 150 0 l 1
 76 0 l 1
EndSplineSet
Validated: 1
AlternateSubs2: "'aalt' Access All Alternates lookup 0 subtable" r.sc
AlternateSubs2: "'aalt' Access All Alternates in Latin lookup 0 subtable" r.sc
Substitution2: "'c2sc' Capitals to Small Capitals in Latin lookup 13 subtable" r.sc
Position2: "'cpsp' Capital Spacing in Latin lookup 13 subtable" dx=7 dy=0 dh=14 dv=0
EndChar

StartChar: S
Encoding: 83 83 63
Width: 498
VWidth: 0
GlyphClass: 2
Flags: W
TeX: 739 0
HStem: -13 68<175.102 331.908> 552 21G<381 458> 684 68<177.089 324.286>
VStem: 22 79<134.54 207> 46 75<484.167 628.202> 381 77<552 624.589> 401 75<123.849 279.763>
AnchorPoint: "bot_acc" 251 -123 basechar 0
AnchorPoint: "dotbelow" 251 -123 basechar 0
AnchorPoint: "ogon_acc" 218 -123 basechar 0
AnchorPoint: "top_accu" 251 852 basechar 0
AnchorPoint: "dotabove" 251 852 basechar 0
LayerCount: 2
Fore
SplineSet
22 207 m 1xf2
 101 207 l 1
 112 108 172 55 255 55 c 0
 339 55 401 117 401 202 c 0xf2
 401 283 363 318 236 357 c 0
 150 383 127 394 98 422 c 0
 65 453 46 502 46 553 c 0
 46 668 132 752 251 752 c 0
 372 752 458 672 458 552 c 1
 381 552 l 1
 381 632 324 684 249 684 c 0
 175 684 121 629 121 555 c 0xec
 121 521 135 487 156 469 c 0
 175 452 198 443 265 423 c 0
 341 400 372 386 402 364 c 0
 449 329 476 271 476 206 c 0
 476 80 381 -13 253 -13 c 0
 120 -13 29 74 22 207 c 1xf2
EndSplineSet
Validated: 1
AlternateSubs2: "'aalt' Access All Alternates lookup 0 subtable" s.sc
AlternateSubs2: "'aalt' Access All Alternates in Latin lookup 0 subtable" s.sc
Substitution2: "'c2sc' Capitals to Small Capitals in Latin lookup 13 subtable" s.sc
Position2: "'cpsp' Capital Spacing in Latin lookup 13 subtable" dx=7 dy=0 dh=14 dv=0
EndChar

StartChar: T
Encoding: 84 84 64
Width: 426
VWidth: 0
GlyphClass: 2
Flags: W
TeX: 739 0
HStem: 0 21G<176 250> 672 67<7 176 250 419>
VStem: 176 74<0 672>
AnchorPoint: "bot_acc" 213 -123 basechar 0
AnchorPoint: "dotbelow" 213 -123 basechar 0
AnchorPoint: "ogon_acc" 178 -123 basechar 0
AnchorPoint: "top_accu" 213 852 basechar 0
AnchorPoint: "dotabove" 213 852 basechar 0
LayerCount: 2
Fore
SplineSet
7 672 m 1
 7 739 l 1
 419 739 l 1
 419 672 l 1
 250 672 l 1
 250 0 l 1
 176 0 l 1
 176 672 l 1
 7 672 l 1
EndSplineSet
Validated: 1
AlternateSubs2: "'aalt' Access All Alternates lookup 0 subtable" t.sc
AlternateSubs2: "'aalt' Access All Alternates in Latin lookup 0 subtable" t.sc
Substitution2: "'c2sc' Capitals to Small Capitals in Latin lookup 13 subtable" t.sc
Position2: "'cpsp' Capital Spacing in Latin lookup 13 subtable" dx=7 dy=0 dh=14 dv=0
EndChar

StartChar: U
Encoding: 85 85 65
Width: 655
VWidth: 0
GlyphClass: 2
Flags: W
TeX: 739 0
HStem: -13 68<235.928 418.775> 719 20G<76 150 505 579>
VStem: 76 74<154.694 739> 505 74<154.694 739>
AnchorPoint: "bot_acc" 328 -123 basechar 0
AnchorPoint: "dotbelow" 328 -123 basechar 0
AnchorPoint: "ogon_acc" 328 -123 basechar 0
AnchorPoint: "top_accu" 328 852 basechar 0
AnchorPoint: "dotabove" 328 852 basechar 0
LayerCount: 2
Fore
SplineSet
76 278 m 2
 76 739 l 1
 150 739 l 1
 150 278 l 2
 150 127 212 55 328 55 c 0
 442 55 505 127 505 278 c 2
 505 739 l 1
 579 739 l 1
 579 278 l 2
 579 77 477 -13 327 -13 c 0
 178 -13 76 77 76 278 c 2
EndSplineSet
Validated: 1
AlternateSubs2: "'aalt' Access All Alternates lookup 0 subtable" u.sc
AlternateSubs2: "'aalt' Access All Alternates in Latin lookup 0 subtable" u.sc
Substitution2: "'c2sc' Capitals to Small Capitals in Latin lookup 13 subtable" u.sc
Position2: "'cpsp' Capital Spacing in Latin lookup 13 subtable" dx=7 dy=0 dh=14 dv=0
EndChar

StartChar: V
Encoding: 86 86 66
Width: 702
VWidth: 0
GlyphClass: 2
Flags: W
TeX: 739 0
HStem: 0 21G<305.773 394.281> 719 20G<10 99.0371 603.932 692>
AnchorPoint: "bot_acc" 351 -123 basechar 0
AnchorPoint: "dotbelow" 351 -123 basechar 0
AnchorPoint: "ogon_acc" 314 -123 basechar 0
AnchorPoint: "top_accu" 351 852 basechar 0
AnchorPoint: "dotabove" 351 852 basechar 0
LayerCount: 2
Fore
SplineSet
10 739 m 1
 91 739 l 1
 351 92 l 1
 612 739 l 1
 692 739 l 1
 386 0 l 1
 314 0 l 1
 10 739 l 1
EndSplineSet
Validated: 1
AlternateSubs2: "'aalt' Access All Alternates lookup 0 subtable" v.sc
AlternateSubs2: "'aalt' Access All Alternates in Latin lookup 0 subtable" v.sc
Substitution2: "'c2sc' Capitals to Small Capitals in Latin lookup 13 subtable" v.sc
Position2: "'cpsp' Capital Spacing in Latin lookup 13 subtable" dx=7 dy=0 dh=14 dv=0
EndChar

StartChar: W
Encoding: 87 87 67
Width: 960
VWidth: 0
GlyphClass: 2
Flags: W
TeX: 739 0
HStem: 0 21G<215.29 322.347 637.587 743.737> 719 20G<10 91.661 439.495 520.505 868.339 950>
AnchorPoint: "bot_acc" 480 -123 basechar 0
AnchorPoint: "dotbelow" 480 -123 basechar 0
AnchorPoint: "ogon_acc" 666 -123 basechar 0
AnchorPoint: "top_accu" 480 852 basechar 0
AnchorPoint: "dotabove" 480 852 basechar 0
LayerCount: 2
Fore
SplineSet
10 739 m 1
 86 739 l 1
 268 96 l 1
 445 739 l 1
 515 739 l 1
 692 96 l 1
 874 739 l 1
 950 739 l 1
 738 0 l 1
 643 0 l 1
 479 606 l 1
 317 0 l 1
 221 0 l 1
 10 739 l 1
EndSplineSet
Validated: 1
AlternateSubs2: "'aalt' Access All Alternates lookup 0 subtable" w.sc
AlternateSubs2: "'aalt' Access All Alternates in Latin lookup 0 subtable" w.sc
Substitution2: "'c2sc' Capitals to Small Capitals in Latin lookup 13 subtable" w.sc
Position2: "'cpsp' Capital Spacing in Latin lookup 13 subtable" dx=7 dy=0 dh=14 dv=0
EndChar

StartChar: X
Encoding: 88 88 68
Width: 609
VWidth: 0
GlyphClass: 2
Flags: W
TeX: 739 0
HStem: 0 21G<8 108.291 500.772 601> 719 20G<22 122.243 486.824 586>
AnchorPoint: "bot_acc" 305 -123 basechar 0
AnchorPoint: "dotbelow" 305 -123 basechar 0
AnchorPoint: "ogon_acc" 529 -123 basechar 0
AnchorPoint: "top_accu" 305 852 basechar 0
AnchorPoint: "dotabove" 305 852 basechar 0
LayerCount: 2
Fore
SplineSet
8 0 m 1
 259 378 l 1
 22 739 l 1
 109 739 l 1
 305 443 l 1
 500 739 l 1
 586 739 l 1
 349 378 l 1
 601 0 l 1
 514 0 l 1
 305 316 l 1
 95 0 l 1
 8 0 l 1
EndSplineSet
Validated: 1
AlternateSubs2: "'aalt' Access All Alternates lookup 0 subtable" x.sc
AlternateSubs2: "'aalt' Access All Alternates in Latin lookup 0 subtable" x.sc
Substitution2: "'c2sc' Capitals to Small Capitals in Latin lookup 13 subtable" x.sc
Position2: "'cpsp' Capital Spacing in Latin lookup 13 subtable" dx=7 dy=0 dh=14 dv=0
EndChar

StartChar: Y
Encoding: 89 89 69
Width: 592
VWidth: 0
GlyphClass: 2
Flags: W
TeX: 739 0
HStem: 0 21G<258 332> 719 20G<2 94.1449 498.614 590>
VStem: 258 74<0 247>
AnchorPoint: "bot_acc" 295 -123 basechar 0
AnchorPoint: "dotbelow" 295 -123 basechar 0
AnchorPoint: "ogon_acc" 260 -123 basechar 0
AnchorPoint: "top_accu" 295 852 basechar 0
AnchorPoint: "dotabove" 295 852 basechar 0
LayerCount: 2
Fore
SplineSet
2 739 m 1
 84 739 l 1
 294 325 l 1
 509 739 l 1
 590 739 l 1
 332 247 l 1
 332 0 l 1
 258 0 l 1
 258 247 l 1
 2 739 l 1
EndSplineSet
Validated: 1
AlternateSubs2: "'aalt' Access All Alternates lookup 0 subtable" y.sc
AlternateSubs2: "'aalt' Access All Alternates in Latin lookup 0 subtable" y.sc
Substitution2: "'c2sc' Capitals to Small Capitals in Latin lookup 13 subtable" y.sc
Position2: "'cpsp' Capital Spacing in Latin lookup 13 subtable" dx=7 dy=0 dh=14 dv=0
EndChar

StartChar: Z
Encoding: 90 90 70
Width: 480
VWidth: 0
GlyphClass: 2
Flags: W
TeX: 739 0
HStem: 0 67<101 474> 672 67<28 380>
AnchorPoint: "bot_acc" 246 -123 basechar 0
AnchorPoint: "dotbelow" 246 -123 basechar 0
AnchorPoint: "ogon_acc" 402 -123 basechar 0
AnchorPoint: "top_accu" 246 852 basechar 0
AnchorPoint: "dotabove" 246 852 basechar 0
LayerCount: 2
Fore
SplineSet
17 0 m 1
 17 67 l 1
 380 672 l 1
 28 672 l 1
 28 739 l 1
 463 739 l 1
 463 672 l 1
 101 67 l 1
 474 67 l 1
 474 0 l 1
 17 0 l 1
EndSplineSet
Validated: 1
AlternateSubs2: "'aalt' Access All Alternates lookup 0 subtable" z.sc
AlternateSubs2: "'aalt' Access All Alternates in Latin lookup 0 subtable" z.sc
Substitution2: "'c2sc' Capitals to Small Capitals in Latin lookup 13 subtable" z.sc
Position2: "'cpsp' Capital Spacing in Latin lookup 13 subtable" dx=7 dy=0 dh=14 dv=0
EndChar

StartChar: asciicircum
Encoding: 94 94 71
Width: 606
VWidth: 0
Flags: W
TeX: 739 0
HStem: 719 20G<252.306 354.658>
LayerCount: 2
Fore
SplineSet
18 180 m 1
 261 739 l 1
 346 739 l 1
 588 180 l 1
 507 180 l 1
 304 660 l 1
 99 180 l 1
 18 180 l 1
EndSplineSet
Validated: 1
EndChar

StartChar: underscore
Encoding: 95 95 72
Width: 500
VWidth: 0
Flags: W
TeX: 0 -125
HStem: -125 58<0 500>
LayerCount: 2
Fore
SplineSet
0 -67 m 1
 500 -67 l 1
 500 -125 l 1
 0 -125 l 1
 0 -67 l 1
EndSplineSet
Validated: 1
EndChar

StartChar: a
Encoding: 97 97 73
Width: 683
VWidth: 0
GlyphClass: 2
Flags: W
TeX: 547 0
HStem: -13 68<242.65 427.631> 0 21G<546 620> 492 68<240.599 425.71> 527 20G<546 620>
VStem: 42 75<179.068 368.303> 546 74<0 96 179.34 370.825 450 547>
AnchorPoint: "bot_acc" 330 -123 basechar 0
AnchorPoint: "dotbelow" 330 -123 basechar 0
AnchorPoint: "ogon_acc" 548 -123 basechar 0
AnchorPoint: "top_accl" 330 670 basechar 0
AnchorPoint: "dotabove" 330 670 basechar 0
LayerCount: 2
Fore
SplineSet
42 272 m 0x8c
 42 436 166 560 330 560 c 0xac
 425 560 492 526 546 450 c 1
 546 547 l 1
 620 547 l 1
 620 0 l 1
 546 0 l 1x5c
 546 96 l 1
 488 18 428 -13 335 -13 c 0
 167 -13 42 109 42 272 c 0x8c
117 277 m 0
 117 152 212 55 336 55 c 0
 454 55 546 152 546 276 c 0
 546 398 452 492 332 492 c 0
 213 492 117 396 117 277 c 0
EndSplineSet
Validated: 1
AlternateSubs2: "'aalt' Access All Alternates lookup 0 subtable" a.sc
AlternateSubs2: "'aalt' Access All Alternates in Latin lookup 0 subtable" a.sc
Substitution2: "'smcp' Lowercase to Small Capitals in Latin lookup 2 subtable" a.sc
EndChar

StartChar: b
Encoding: 98 98 74
Width: 682
VWidth: 0
GlyphClass: 2
Flags: W
TeX: 739 0
HStem: -13 68<255.361 445.018> 0 21G<63 137> 492 68<255.363 445.288> 719 20G<63 137>
VStem: 63 74<0 94 171.126 379.715 453 739> 565 75<179.146 372.409>
AnchorPoint: "bot_acc" 352 -123 basechar 0
AnchorPoint: "dotbelow" 352 -123 basechar 0
AnchorPoint: "ogon_acc" 352 -123 basechar 0
AnchorPoint: "top_accu" 100 862 basechar 0
AnchorPoint: "dotabove" 352 670 basechar 0
LayerCount: 2
Fore
SplineSet
63 0 m 1x7c
 63 739 l 1
 137 739 l 1
 137 453 l 1
 184 522 260 560 352 560 c 0
 514 560 640 435 640 274 c 0
 640 110 516 -13 351 -13 c 0xbc
 261 -13 183 26 137 94 c 1
 137 0 l 1
 63 0 l 1x7c
132 276 m 0
 132 155 229 55 349 55 c 0
 472 55 565 150 565 276 c 0
 565 399 473 492 350 492 c 0
 228 492 132 397 132 276 c 0
EndSplineSet
Validated: 1
AlternateSubs2: "'aalt' Access All Alternates lookup 0 subtable" b.sc
AlternateSubs2: "'aalt' Access All Alternates in Latin lookup 0 subtable" b.sc
Substitution2: "'smcp' Lowercase to Small Capitals in Latin lookup 2 subtable" b.sc
EndChar

StartChar: c
Encoding: 99 99 75
Width: 647
VWidth: 0
GlyphClass: 2
Flags: W
TeX: 547 0
HStem: -13 68<242.034 431.008> 492 68<239.583 429.876>
VStem: 42 75<179.665 367.933>
AnchorPoint: "bot_acc" 335 -123 basechar 0
AnchorPoint: "dotbelow" 335 -123 basechar 0
AnchorPoint: "ogon_acc" 335 -123 basechar 0
AnchorPoint: "top_accl" 335 670 basechar 0
AnchorPoint: "dotabove" 335 670 basechar 0
LayerCount: 2
Fore
SplineSet
42 275 m 0
 42 434 171 560 335 560 c 0
 458 560 563 491 607 381 c 1
 524 381 l 1
 482 453 415 492 334 492 c 0
 212 492 117 396 117 273 c 0
 117 152 214 55 337 55 c 0
 414 55 467 85 524 161 c 1
 608 161 l 1
 542 36 453 -13 340 -13 c 0
 172 -13 42 112 42 275 c 0
EndSplineSet
Validated: 1
AlternateSubs2: "'aalt' Access All Alternates lookup 0 subtable" c.sc
AlternateSubs2: "'aalt' Access All Alternates in Latin lookup 0 subtable" c.sc
Substitution2: "'smcp' Lowercase to Small Capitals in Latin lookup 2 subtable" c.sc
EndChar

StartChar: d
Encoding: 100 100 76
Width: 685
VWidth: 0
GlyphClass: 2
Flags: W
TeX: 739 0
HStem: -13 68<241.808 428.981> 0 21G<548 622> 492 68<237.939 425.371> 719 20G<548 622>
VStem: 42 75<179.305 368.371> 548 74<0 99 175.506 373.857 460 739>
AnchorPoint: "bot_acc" 332 -123 basechar 0
AnchorPoint: "dotbelow" 332 -123 basechar 0
AnchorPoint: "ogon_acc" 550 -123 basechar 0
AnchorPoint: "top_accu" 585 862 basechar 0
AnchorPoint: "dotabove" 333 670 basechar 0
AnchorPoint: "ccmped" 761 676 basechar 0
LayerCount: 2
Fore
SplineSet
42 273 m 0xbc
 42 436 168 560 333 560 c 0
 419 560 494 525 548 460 c 1
 548 739 l 1
 622 739 l 1
 622 0 l 1
 548 0 l 1x7c
 548 99 l 1
 493 20 431 -13 340 -13 c 0
 171 -13 42 111 42 273 c 0xbc
117 276 m 0
 117 151 213 55 338 55 c 0xbc
 455 55 551 155 551 275 c 0
 551 395 452 492 331 492 c 0
 212 492 117 396 117 276 c 0
EndSplineSet
Validated: 1
AlternateSubs2: "'aalt' Access All Alternates lookup 0 subtable" d.sc
AlternateSubs2: "'aalt' Access All Alternates in Latin lookup 0 subtable" d.sc
Substitution2: "'smcp' Lowercase to Small Capitals in Latin lookup 2 subtable" d.sc
EndChar

StartChar: e
Encoding: 101 101 77
Width: 650
VWidth: 0
GlyphClass: 2
Flags: W
TeX: 547 0
HStem: -13 68<236.507 420.544> 249 67<118 537> 492 68<232.486 419.68>
AnchorPoint: "bot_acc" 326 -123 basechar 0
AnchorPoint: "dotbelow" 326 -123 basechar 0
AnchorPoint: "ogon_acc" 326 -123 basechar 0
AnchorPoint: "top_accl" 326 670 basechar 0
AnchorPoint: "dotabove" 326 670 basechar 0
LayerCount: 2
Fore
SplineSet
42 276 m 0
 42 435 167 560 326 560 c 0
 488 560 611 443 611 249 c 1
 116 249 l 1
 122 141 217 55 329 55 c 0
 412 55 489 105 520 180 c 1
 597 180 l 1
 562 76 455 -13 331 -13 c 0
 169 -13 42 114 42 276 c 0
118 316 m 1
 537 316 l 1
 512 425 431 492 325 492 c 0
 221 492 138 421 118 316 c 1
EndSplineSet
Validated: 1
AlternateSubs2: "'aalt' Access All Alternates lookup 0 subtable" e.sc
AlternateSubs2: "'aalt' Access All Alternates in Latin lookup 0 subtable" e.sc
Substitution2: "'smcp' Lowercase to Small Capitals in Latin lookup 2 subtable" e.sc
EndChar

StartChar: f
Encoding: 102 102 78
Width: 314
VWidth: 0
GlyphClass: 2
Flags: W
TeX: 739 0
HStem: 0 21G<101 175> 480 67<16 101 175 311> 672 67<213.514 311>
VStem: 101 74<0 480 547 633.464>
AnchorPoint: "bot_acc" 164 -123 basechar 0
AnchorPoint: "dotbelow" 164 -123 basechar 0
AnchorPoint: "ogon_acc" 103 -123 basechar 0
AnchorPoint: "top_accl" 164 862 basechar 0
AnchorPoint: "dotabove" 164 862 basechar 0
LayerCount: 2
Fore
SplineSet
16 480 m 1
 16 547 l 1
 101 547 l 1
 99 674 170 739 311 739 c 1
 311 672 l 1
 210 672 174 638 175 547 c 1
 311 547 l 1
 311 480 l 1
 175 480 l 1
 175 0 l 1
 101 0 l 1
 101 480 l 1
 16 480 l 1
EndSplineSet
Validated: 33
AlternateSubs2: "'aalt' Access All Alternates lookup 0 subtable" f.sc
AlternateSubs2: "'aalt' Access All Alternates in Latin lookup 0 subtable" f.sc
Substitution2: "'smcp' Lowercase to Small Capitals in Latin lookup 2 subtable" f.sc
EndChar

StartChar: g
Encoding: 103 103 79
Width: 673
VWidth: 0
GlyphClass: 2
Flags: W
TeX: 547 -215
HStem: -215 68<234.569 436.173> -13 68<234.395 418.399> 492 68<231.541 418.534> 527 20G<536 610>
VStem: 42 75<178.766 375.081> 536 74<-41.0659 111 180.825 372.746 450 547>
AnchorPoint: "bot_acc" 322 -338 basechar 0
AnchorPoint: "dotbelow" 322 -338 basechar 0
AnchorPoint: "ogon_acc" 322 -325 basechar 0
AnchorPoint: "top_accl" 322 670 basechar 0
AnchorPoint: "dotabove" 322 670 basechar 0
AnchorPoint: "ccmped" 322 670 basechar 0
LayerCount: 2
Fore
SplineSet
42 271 m 0xdc
 42 436 162 560 322 560 c 0xec
 414 560 481 525 536 450 c 1
 536 547 l 1
 610 547 l 1
 610 98 l 2
 610 -9 596 -67 559 -117 c 0
 512 -179 432 -215 337 -215 c 0
 199 -215 102 -145 62 -17 c 1
 134 -17 l 1
 190 -116 243 -147 335 -147 c 0
 467 -147 536 -70 536 74 c 2
 536 111 l 1
 493 27 425 -13 327 -13 c 0
 167 -13 42 111 42 271 c 0xdc
117 277 m 0
 117 150 207 55 327 55 c 0
 446 55 536 152 536 280 c 0
 536 399 444 492 326 492 c 0
 205 492 117 402 117 277 c 0
EndSplineSet
Validated: 1
AlternateSubs2: "'aalt' Access All Alternates lookup 0 subtable" g.sc
AlternateSubs2: "'aalt' Access All Alternates in Latin lookup 0 subtable" g.sc
Substitution2: "'smcp' Lowercase to Small Capitals in Latin lookup 2 subtable" g.sc
EndChar

StartChar: h
Encoding: 104 104 80
Width: 610
VWidth: 0
GlyphClass: 2
Flags: W
TeX: 739 0
HStem: 0 21G<63 137 473 547> 492 68<215.756 391.143> 719 20G<63 137>
VStem: 63 74<0 407.994 476 739> 473 74<0 404.397>
AnchorPoint: "bot_acc" 305 -123 basechar 0
AnchorPoint: "dotbelow" 305 -123 basechar 0
AnchorPoint: "ogon_acc" 475 -123 basechar 0
AnchorPoint: "top_accu" 100 862 basechar 0
AnchorPoint: "dotabove" 311 670 basechar 0
LayerCount: 2
Fore
SplineSet
63 0 m 1
 63 739 l 1
 137 739 l 1
 137 476 l 1
 174 530 236 560 311 560 c 0
 453 560 547 477 547 294 c 2
 547 0 l 1
 473 0 l 1
 473 294 l 2
 473 430 404 492 304 492 c 0
 209 492 137 434 137 300 c 2
 137 0 l 1
 63 0 l 1
EndSplineSet
Validated: 1
AlternateSubs2: "'aalt' Access All Alternates lookup 0 subtable" h.sc
AlternateSubs2: "'aalt' Access All Alternates in Latin lookup 0 subtable" h.sc
Substitution2: "'smcp' Lowercase to Small Capitals in Latin lookup 2 subtable" h.sc
EndChar

StartChar: dotlessj
Encoding: 274 567 81
Width: 203
VWidth: 0
GlyphClass: 2
Flags: W
TeX: 547 -192
HStem: -192 71<-45 22.7812> 527 20G<66 140>
VStem: 66 74<-74.3629 547>
AnchorPoint: "bot_acc" 103 -315 basechar 0
AnchorPoint: "dotbelow" 103 -315 basechar 0
AnchorPoint: "ogon_acc" -43 -302 basechar 0
AnchorPoint: "top_accl" 103 670 basechar 0
AnchorPoint: "dotabove" 103 670 basechar 0
LayerCount: 2
Fore
SplineSet
-45 -121 m 1
 38 -116 66 -76 66 38 c 2
 66 547 l 1
 140 547 l 1
 140 38 l 2
 140 -120 79 -187 -45 -192 c 1
 -45 -121 l 1
EndSplineSet
Validated: 1
AlternateSubs2: "'aalt' Access All Alternates lookup 0 subtable" dotlessj.sc
AlternateSubs2: "'aalt' Access All Alternates in Latin lookup 0 subtable" dotlessj.sc
Substitution2: "'smcp' Lowercase to Small Capitals in Latin lookup 2 subtable" dotlessj.sc
EndChar

StartChar: j
Encoding: 106 106 82
Width: 203
VWidth: 0
GlyphClass: 2
Flags: W
TeX: 733 -192
HStem: -192 71<-45 22.7812> 527 20G<66 140> 607 126<66 140>
VStem: 66 74<-74.3629 547 607 733>
AnchorPoint: "bot_acc" 103 -315 basechar 0
AnchorPoint: "dotbelow" 103 -315 basechar 0
AnchorPoint: "ogon_acc" -43 -302 basechar 0
LayerCount: 2
Fore
SplineSet
-45 -121 m 1
 38 -116 66 -76 66 38 c 2
 66 547 l 1
 140 547 l 1
 140 38 l 2
 140 -120 79 -187 -45 -192 c 1
 -45 -121 l 1
66 607 m 1
 66 733 l 1
 140 733 l 1
 140 607 l 1
 66 607 l 1
EndSplineSet
Validated: 1
AlternateSubs2: "'aalt' Access All Alternates lookup 0 subtable" dotlessj j.sc
AlternateSubs2: "'aalt' Access All Alternates in Latin lookup 0 subtable" dotlessj j.sc
Substitution2: "ccmp_sub_acc subtable" dotlessj
Substitution2: "'smcp' Lowercase to Small Capitals in Latin lookup 2 subtable" j.sc
EndChar

StartChar: k
Encoding: 107 107 83
Width: 502
VWidth: 0
GlyphClass: 2
Flags: W
TeX: 739 0
HStem: 0 21G<63 137 388.379 497> 527 20G<376.639 483> 719 20G<63 137>
VStem: 63 74<0 113 215 739>
AnchorPoint: "bot_acc" 280 -123 basechar 0
AnchorPoint: "dotbelow" 280 -123 basechar 0
AnchorPoint: "ogon_acc" 425 -123 basechar 0
AnchorPoint: "top_accu" 100 862 basechar 0
AnchorPoint: "dotabove" 295 670 basechar 0
LayerCount: 2
Fore
SplineSet
63 0 m 1
 63 739 l 1
 137 739 l 1
 137 215 l 1
 392 547 l 1
 483 547 l 1
 270 272 l 1
 497 0 l 1
 405 0 l 1
 223 219 l 1
 137 113 l 1
 137 0 l 1
 63 0 l 1
EndSplineSet
Validated: 1
AlternateSubs2: "'aalt' Access All Alternates lookup 0 subtable" k.sc
AlternateSubs2: "'aalt' Access All Alternates in Latin lookup 0 subtable" k.sc
Substitution2: "'smcp' Lowercase to Small Capitals in Latin lookup 2 subtable" k.sc
EndChar

StartChar: l
Encoding: 108 108 84
Width: 200
VWidth: 0
GlyphClass: 2
Flags: W
TeX: 739 0
HStem: 0 21G<63 137> 719 20G<63 137>
VStem: 63 74<0 739>
AnchorPoint: "bot_acc" 100 -123 basechar 0
AnchorPoint: "dotbelow" 100 -123 basechar 0
AnchorPoint: "ogon_acc" 65 -123 basechar 0
AnchorPoint: "top_accu" 100 862 basechar 0
AnchorPoint: "dotabove" 100 862 basechar 0
AnchorPoint: "ccmped" 276 676 basechar 0
LayerCount: 2
Fore
SplineSet
63 0 m 1
 63 739 l 1
 137 739 l 1
 137 0 l 1
 63 0 l 1
EndSplineSet
Validated: 1
AlternateSubs2: "'aalt' Access All Alternates lookup 0 subtable" l.sc
AlternateSubs2: "'aalt' Access All Alternates in Latin lookup 0 subtable" l.sc
Substitution2: "'smcp' Lowercase to Small Capitals in Latin lookup 2 subtable" l.sc
EndChar

StartChar: m
Encoding: 109 109 85
Width: 938
VWidth: 0
GlyphClass: 2
Flags: W
TeX: 547 0
HStem: 0 21G<63 137 432 506 801 875> 492 68<203.424 365.549 570.912 737.487> 527 20G<63 137>
VStem: 63 74<0 418.198 484 547> 432 74<0 420.164> 801 74<0 423.277>
CounterMasks: 1 1c
AnchorPoint: "bot_acc" 469 -123 basechar 0
AnchorPoint: "dotbelow" 469 -123 basechar 0
AnchorPoint: "ogon_acc" 803 -123 basechar 0
AnchorPoint: "top_accl" 469 670 basechar 0
AnchorPoint: "dotabove" 469 670 basechar 0
LayerCount: 2
Fore
SplineSet
63 0 m 1xdc
 63 547 l 1
 137 547 l 1xbc
 137 484 l 1
 179 539 222 560 291 560 c 0
 373 560 427 528 470 455 c 1
 516 528 575 561 660 561 c 0
 785 561 875 484 875 325 c 2
 875 0 l 1
 801 0 l 1
 801 317 l 2
 801 440 746 493 656 493 c 0
 569 493 506 441 506 317 c 2
 506 0 l 1
 432 0 l 1
 432 319 l 2
 432 441 368 492 284 492 c 0
 192 492 137 428 137 319 c 2
 137 0 l 1
 63 0 l 1xdc
EndSplineSet
Validated: 1
AlternateSubs2: "'aalt' Access All Alternates lookup 0 subtable" m.sc
AlternateSubs2: "'aalt' Access All Alternates in Latin lookup 0 subtable" m.sc
Substitution2: "'smcp' Lowercase to Small Capitals in Latin lookup 2 subtable" m.sc
EndChar

StartChar: n
Encoding: 110 110 86
Width: 610
VWidth: 0
GlyphClass: 2
Flags: W
TeX: 547 0
HStem: 0 21G<63 137 473 547> 492 68<214.824 393.046> 527 20G<63 137>
VStem: 63 74<0 408.742 476 547> 473 74<0 404.094>
AnchorPoint: "bot_acc" 305 -123 basechar 0
AnchorPoint: "dotbelow" 305 -123 basechar 0
AnchorPoint: "ogon_acc" 475 -123 basechar 0
AnchorPoint: "top_accl" 305 670 basechar 0
AnchorPoint: "dotabove" 305 670 basechar 0
LayerCount: 2
Fore
SplineSet
63 0 m 1xd8
 63 547 l 1
 137 547 l 1xb8
 137 476 l 1
 183 532 241 560 313 560 c 0
 450 560 547 479 547 287 c 2
 547 0 l 1
 473 0 l 1
 473 287 l 2
 473 436 405 492 304 492 c 0
 205 492 137 435 137 301 c 2
 137 0 l 1
 63 0 l 1xd8
EndSplineSet
Validated: 1
AlternateSubs2: "'aalt' Access All Alternates lookup 0 subtable" n.sc
AlternateSubs2: "'aalt' Access All Alternates in Latin lookup 0 subtable" n.sc
Substitution2: "'smcp' Lowercase to Small Capitals in Latin lookup 2 subtable" n.sc
EndChar

StartChar: o
Encoding: 111 111 87
Width: 655
VWidth: 0
GlyphClass: 2
Flags: W
TeX: 547 0
HStem: -13 68<237.146 425.53> 492 68<235.491 422.229>
VStem: 42 75<175.469 370.044> 538 75<170.759 368.206>
AnchorPoint: "bot_acc" 329 -123 basechar 0
AnchorPoint: "dotbelow" 329 -123 basechar 0
AnchorPoint: "ogon_acc" 329 -123 basechar 0
AnchorPoint: "top_accl" 329 670 basechar 0
AnchorPoint: "dotabove" 329 670 basechar 0
LayerCount: 2
Fore
SplineSet
42 277 m 0
 42 437 167 560 329 560 c 0
 493 560 613 439 613 272 c 0
 613 108 495 -13 335 -13 c 0
 165 -13 42 109 42 277 c 0
117 275 m 0
 117 147 207 55 333 55 c 0
 452 55 538 146 538 271 c 0
 538 398 449 492 329 492 c 0
 208 492 117 399 117 275 c 0
EndSplineSet
Validated: 1
AlternateSubs2: "'aalt' Access All Alternates lookup 0 subtable" o.sc
AlternateSubs2: "'aalt' Access All Alternates in Latin lookup 0 subtable" o.sc
Substitution2: "'smcp' Lowercase to Small Capitals in Latin lookup 2 subtable" o.sc
EndChar

StartChar: p
Encoding: 112 112 88
Width: 682
VWidth: 0
GlyphClass: 2
Flags: W
TeX: 547 -192
HStem: -192 21G<63 137> -13 68<252.58 444.371> 492 68<254.825 445.078> 527 20G<63 137>
VStem: 63 74<-192 94 168.91 379.715 453 547> 565 75<178.067 367.617>
AnchorPoint: "bot_acc" 352 -315 basechar 0
AnchorPoint: "dotbelow" 350 -123 basechar 0
AnchorPoint: "ogon_acc" 352 -123 basechar 0
AnchorPoint: "top_accl" 352 670 basechar 0
AnchorPoint: "dotabove" 352 670 basechar 0
LayerCount: 2
Fore
SplineSet
63 -192 m 1xec
 63 547 l 1
 137 547 l 1xdc
 137 453 l 1
 183 522 259 560 352 560 c 0
 515 560 640 435 640 272 c 0
 640 112 513 -13 350 -13 c 0
 259 -13 185 24 137 94 c 1
 137 -192 l 1
 63 -192 l 1xec
132 276 m 0
 132 150 225 55 350 55 c 0
 472 55 565 149 565 272 c 0
 565 398 472 492 349 492 c 0xec
 228 492 132 397 132 276 c 0
EndSplineSet
Validated: 1
AlternateSubs2: "'aalt' Access All Alternates lookup 0 subtable" p.sc
AlternateSubs2: "'aalt' Access All Alternates in Latin lookup 0 subtable" p.sc
Substitution2: "'smcp' Lowercase to Small Capitals in Latin lookup 2 subtable" p.sc
EndChar

StartChar: q
Encoding: 113 113 89
Width: 682
VWidth: 0
GlyphClass: 2
Flags: W
TeX: 547 -192
HStem: -192 21G<545 619> -13 68<237.815 427.155> 492 68<236.922 429.658> 527 20G<545 619>
VStem: 42 75<178.32 367.87> 545 74<-192 94 166.96 377.765 453 547>
AnchorPoint: "bot_acc" 331 -315 basechar 0
AnchorPoint: "dotbelow" 332 -123 basechar 0
AnchorPoint: "ogon_acc" 547 -315 basechar 0
AnchorPoint: "top_accl" 331 670 basechar 0
AnchorPoint: "dotabove" 331 670 basechar 0
LayerCount: 2
Fore
SplineSet
42 273 m 0xdc
 42 435 167 560 330 560 c 0xec
 423 560 499 523 545 453 c 1
 545 547 l 1
 619 547 l 1
 619 -192 l 1
 545 -192 l 1
 545 94 l 1
 497 24 423 -13 332 -13 c 0
 169 -13 42 112 42 273 c 0xdc
117 272 m 0
 117 149 210 55 333 55 c 0
 454 55 550 150 550 270 c 0
 550 397 457 492 333 492 c 0
 210 492 117 398 117 272 c 0
EndSplineSet
Validated: 1
AlternateSubs2: "'aalt' Access All Alternates lookup 0 subtable" q.sc
AlternateSubs2: "'aalt' Access All Alternates in Latin lookup 0 subtable" q.sc
Substitution2: "'smcp' Lowercase to Small Capitals in Latin lookup 2 subtable" q.sc
EndChar

StartChar: r
Encoding: 114 114 90
Width: 301
VWidth: 0
GlyphClass: 2
Flags: W
TeX: 547 0
HStem: 0 21G<63 137> 487 73<213.776 292> 527 20G<63 137>
VStem: 63 74<0 414.344 469 547>
AnchorPoint: "bot_acc" 100 -123 basechar 0
AnchorPoint: "dotbelow" 100 -123 basechar 0
AnchorPoint: "ogon_acc" 100 -123 basechar 0
AnchorPoint: "top_accl" 137 670 basechar 0
AnchorPoint: "dotabove" 137 670 basechar 0
LayerCount: 2
Fore
SplineSet
63 0 m 1xd0
 63 547 l 1
 137 547 l 1xb0
 137 469 l 1
 166 529 213 556 292 560 c 1
 292 487 l 1
 189 477 137 421 137 319 c 2
 137 0 l 1
 63 0 l 1xd0
EndSplineSet
Validated: 1
AlternateSubs2: "'aalt' Access All Alternates lookup 0 subtable" r.sc
AlternateSubs2: "'aalt' Access All Alternates in Latin lookup 0 subtable" r.sc
Substitution2: "'smcp' Lowercase to Small Capitals in Latin lookup 2 subtable" r.sc
EndChar

StartChar: s
Encoding: 115 115 91
Width: 388
VWidth: 0
GlyphClass: 2
Flags: W
TeX: 547 0
HStem: -13 68<126.512 253.58> 492 68<137.849 250.989>
VStem: 18 73<93.1172 161> 38 75<360.996 467.629> 272 75<412 468.849> 286 75<87.5249 209.134>
AnchorPoint: "bot_acc" 193 -123 basechar 0
AnchorPoint: "dotbelow" 193 -123 basechar 0
AnchorPoint: "ogon_acc" 159 -123 basechar 0
AnchorPoint: "top_accl" 193 670 basechar 0
AnchorPoint: "dotabove" 193 670 basechar 0
LayerCount: 2
Fore
SplineSet
18 161 m 1xe4
 91 161 l 1
 91 94 133 55 194 55 c 0
 247 55 286 95 286 150 c 0xe4
 286 205 259 223 180 255 c 0
 103 286 101 287 79 308 c 0
 52 333 38 367 38 406 c 0
 38 495 104 560 193 560 c 0
 281 560 347 500 347 412 c 1
 272 412 l 1
 272 464 240 492 192 492 c 0
 148 492 113 457 113 413 c 0xd8
 113 381 129 358 163 341 c 0
 179 333 183 331 266 297 c 0
 330 270 361 224 361 157 c 0
 361 57 292 -13 194 -13 c 0
 89 -13 18 55 18 161 c 1xe4
EndSplineSet
Validated: 1
AlternateSubs2: "'aalt' Access All Alternates lookup 0 subtable" s.sc
AlternateSubs2: "'aalt' Access All Alternates in Latin lookup 0 subtable" s.sc
Substitution2: "'smcp' Lowercase to Small Capitals in Latin lookup 2 subtable" s.sc
EndChar

StartChar: t
Encoding: 116 116 92
Width: 339
VWidth: 0
GlyphClass: 2
Flags: W
TeX: 739 0
HStem: 0 21G<130 204> 480 67<12 130 204 327> 719 20G<130 204>
VStem: 130 74<0 480 547 739>
AnchorPoint: "bot_acc" 170 -123 basechar 0
AnchorPoint: "dotbelow" 170 -123 basechar 0
AnchorPoint: "ogon_acc" 132 -123 basechar 0
AnchorPoint: "top_accl" 167 862 basechar 0
AnchorPoint: "dotabove" 167 862 basechar 0
AnchorPoint: "ccmped" 343 699 basechar 0
LayerCount: 2
Fore
SplineSet
12 480 m 1
 12 547 l 1
 130 547 l 1
 130 739 l 1
 204 739 l 1
 204 547 l 1
 327 547 l 1
 327 480 l 1
 204 480 l 1
 204 0 l 1
 130 0 l 1
 130 480 l 1
 12 480 l 1
EndSplineSet
Validated: 1
AlternateSubs2: "'aalt' Access All Alternates lookup 0 subtable" t.sc
AlternateSubs2: "'aalt' Access All Alternates in Latin lookup 0 subtable" t.sc
Substitution2: "'smcp' Lowercase to Small Capitals in Latin lookup 2 subtable" t.sc
EndChar

StartChar: u
Encoding: 117 117 93
Width: 608
VWidth: 0
GlyphClass: 2
Flags: W
TeX: 547 0
HStem: -13 68<209.993 389.134> 0 21G<471 545> 527 20G<63 137 471 545>
VStem: 63 74<136.436 547> 471 74<0 85 146.546 547>
AnchorPoint: "bot_acc" 304 -123 basechar 0
AnchorPoint: "dotbelow" 304 -123 basechar 0
AnchorPoint: "ogon_acc" 473 -123 basechar 0
AnchorPoint: "top_accl" 304 670 basechar 0
AnchorPoint: "dotabove" 304 670 basechar 0
LayerCount: 2
Fore
SplineSet
63 252 m 2xb8
 63 547 l 1
 137 547 l 1
 137 252 l 2
 137 113 195 55 301 55 c 0xb8
 401 55 471 117 471 266 c 2
 471 547 l 1
 545 547 l 1
 545 0 l 1
 471 0 l 1x78
 471 85 l 1
 434 17 380 -13 295 -13 c 0
 156 -13 63 61 63 252 c 2xb8
EndSplineSet
Validated: 1
AlternateSubs2: "'aalt' Access All Alternates lookup 0 subtable" u.sc
AlternateSubs2: "'aalt' Access All Alternates in Latin lookup 0 subtable" u.sc
Substitution2: "'smcp' Lowercase to Small Capitals in Latin lookup 2 subtable" u.sc
EndChar

StartChar: v
Encoding: 118 118 94
Width: 554
VWidth: 0
GlyphClass: 2
Flags: W
TeX: 547 0
HStem: 0 21G<229.59 324.41> 527 20G<8 91.3478 462.478 546>
AnchorPoint: "bot_acc" 277 -123 basechar 0
AnchorPoint: "dotbelow" 277 -123 basechar 0
AnchorPoint: "ogon_acc" 244 -123 basechar 0
AnchorPoint: "top_accl" 277 670 basechar 0
AnchorPoint: "dotabove" 277 670 basechar 0
LayerCount: 2
Fore
SplineSet
8 547 m 1
 83 547 l 1
 275 87 l 1
 471 547 l 1
 546 547 l 1
 316 0 l 1
 238 0 l 1
 8 547 l 1
EndSplineSet
Validated: 1
AlternateSubs2: "'aalt' Access All Alternates lookup 0 subtable" v.sc
AlternateSubs2: "'aalt' Access All Alternates in Latin lookup 0 subtable" v.sc
Substitution2: "'smcp' Lowercase to Small Capitals in Latin lookup 2 subtable" v.sc
EndChar

StartChar: w
Encoding: 119 119 95
Width: 831
VWidth: 0
GlyphClass: 2
Flags: W
TeX: 547 0
HStem: 0 21G<208.358 302.501 526.444 619.751> 527 20G<7 88.5983 744.227 824>
AnchorPoint: "bot_acc" 415 -123 basechar 0
AnchorPoint: "dotbelow" 415 -123 basechar 0
AnchorPoint: "ogon_acc" 540 -123 basechar 0
AnchorPoint: "top_accl" 415 670 basechar 0
AnchorPoint: "dotabove" 415 670 basechar 0
LayerCount: 2
Fore
SplineSet
7 547 m 1
 81 547 l 1
 255 89 l 1
 384 480 l 1
 445 480 l 1
 574 89 l 1
 752 547 l 1
 824 547 l 1
 612 0 l 1
 533 0 l 1
 414 363 l 1
 296 0 l 1
 216 0 l 1
 7 547 l 1
EndSplineSet
Validated: 1
AlternateSubs2: "'aalt' Access All Alternates lookup 0 subtable" w.sc
AlternateSubs2: "'aalt' Access All Alternates in Latin lookup 0 subtable" w.sc
Substitution2: "'smcp' Lowercase to Small Capitals in Latin lookup 2 subtable" w.sc
EndChar

StartChar: x
Encoding: 120 120 96
Width: 480
VWidth: 0
GlyphClass: 2
Flags: W
TeX: 547 0
HStem: 0 21G<8 105.516 373.575 472> 527 20G<8 106.028 373.066 472>
AnchorPoint: "bot_acc" 240 -123 basechar 0
AnchorPoint: "dotbelow" 240 -123 basechar 0
AnchorPoint: "ogon_acc" 400 -123 basechar 0
AnchorPoint: "top_accl" 240 670 basechar 0
AnchorPoint: "dotabove" 240 670 basechar 0
LayerCount: 2
Fore
SplineSet
8 0 m 1
 198 279 l 1
 8 547 l 1
 92 547 l 1
 240 336 l 1
 387 547 l 1
 472 547 l 1
 281 279 l 1
 472 0 l 1
 387 0 l 1
 240 219 l 1
 92 0 l 1
 8 0 l 1
EndSplineSet
Validated: 1
AlternateSubs2: "'aalt' Access All Alternates lookup 0 subtable" x.sc
AlternateSubs2: "'aalt' Access All Alternates in Latin lookup 0 subtable" x.sc
Substitution2: "'smcp' Lowercase to Small Capitals in Latin lookup 2 subtable" x.sc
EndChar

StartChar: y
Encoding: 121 121 97
Width: 536
VWidth: 0
GlyphClass: 2
Flags: W
TeX: 547 -192
HStem: -192 21G<132 219.552> 527 20G<9 97.9358 439.514 527>
AnchorPoint: "bot_acc" 269 -315 basechar 0
AnchorPoint: "dotbelow" 400 -123 basechar 0
AnchorPoint: "ogon_acc" 139 -315 basechar 0
AnchorPoint: "top_accl" 269 670 basechar 0
AnchorPoint: "dotabove" 269 670 basechar 0
LayerCount: 2
Fore
SplineSet
9 547 m 1
 90 547 l 1
 263 111 l 1
 448 547 l 1
 527 547 l 1
 211 -192 l 1
 132 -192 l 1
 221 18 l 1
 9 547 l 1
EndSplineSet
Validated: 1
AlternateSubs2: "'aalt' Access All Alternates lookup 0 subtable" y.sc
AlternateSubs2: "'aalt' Access All Alternates in Latin lookup 0 subtable" y.sc
Substitution2: "'smcp' Lowercase to Small Capitals in Latin lookup 2 subtable" y.sc
EndChar

StartChar: z
Encoding: 122 122 98
Width: 425
VWidth: 0
GlyphClass: 2
Flags: W
TeX: 547 0
HStem: 0 67<97 415> 480 67<20 312>
AnchorPoint: "bot_acc" 208 -123 basechar 0
AnchorPoint: "dotbelow" 208 -123 basechar 0
AnchorPoint: "ogon_acc" 343 -123 basechar 0
AnchorPoint: "top_accl" 208 670 basechar 0
AnchorPoint: "dotabove" 208 670 basechar 0
LayerCount: 2
Fore
SplineSet
10 0 m 1
 10 67 l 1
 312 480 l 1
 20 480 l 1
 20 547 l 1
 396 547 l 1
 396 484 l 1
 97 67 l 1
 415 67 l 1
 415 0 l 1
 10 0 l 1
EndSplineSet
Validated: 1
AlternateSubs2: "'aalt' Access All Alternates lookup 0 subtable" z.sc
AlternateSubs2: "'aalt' Access All Alternates in Latin lookup 0 subtable" z.sc
Substitution2: "'smcp' Lowercase to Small Capitals in Latin lookup 2 subtable" z.sc
EndChar

StartChar: asciitilde
Encoding: 126 126 99
Width: 606
VWidth: 0
Flags: W
TeX: 390 0
HStem: 231 77<339.876 465.636> 300 77<140.545 268.415>
LayerCount: 2
Fore
SplineSet
51 257 m 1x40
 99 343 138 377 194 377 c 0x40
 215 377 240 370 271 358 c 2
 336 331 l 2
 379 313 396 308 416 308 c 0
 448 308 477 332 511 390 c 1
 555 343 l 1
 521 276 466 231 415 231 c 0x80
 391 231 367 239 322 257 c 2
 267 279 l 2
 224 296 214 300 194 300 c 0
 149 300 132 275 93 210 c 1
 51 257 l 1x40
EndSplineSet
Validated: 1
EndChar

StartChar: Euro
Encoding: 128 8364 100
Width: 554
VWidth: 0
Flags: W
TeX: 739 0
HStem: -13 65<256.145 447.62> 272 59<-7 61 140 414> 400 59<-8 62 142 468> 559 21G<509.5 550.986> 686 66<256.521 441.863>
VStem: 60 74<331 399.206> 65 75<188.147 272 362.379 400 459 526.529>
LayerCount: 2
Fore
SplineSet
-32 400 m 1xfc
 -8 459 l 1
 67 459 l 1
 107 681 202 752 353 752 c 0
 437 752 495 731 573 628 c 1
 542 559 l 1
 477 655 431 686 354 686 c 0
 239 686 177 629 142 459 c 1
 493 459 l 1
 468 400 l 1
 136 400 l 1
 135 383 134 369 134 362 c 0xfc
 134 353 134 345 135 331 c 1
 438 331 l 1
 414 272 l 1
 140 272 l 1
 159 130 233 52 348 52 c 0
 428 52 460 72 536 143 c 1
 536 62 l 1
 482 8 429 -13 349 -13 c 0
 193 -13 99 75 65 272 c 1xfa
 -31 272 l 1
 -7 331 l 1
 61 331 l 1
 60 345 60 355 60 362 c 0
 60 370 61 383 62 400 c 1
 -32 400 l 1xfc
EndSplineSet
Validated: 1
EndChar

StartChar: quotesinglbase
Encoding: 275 8218 101
Width: 354
VWidth: 0
Flags: W
TeX: 126 -67
HStem: -67 193
VStem: 89 162
LayerCount: 2
Fore
SplineSet
89 -67 m 1
 177 126 l 1
 251 126 l 1
 163 -67 l 1
 89 -67 l 1
EndSplineSet
Validated: 1
EndChar

StartChar: florin
Encoding: 276 402 102
Width: 554
VWidth: 0
Flags: W
TeX: 818 -153
HStem: -153 67<28.1307 161.694> 517 67<211 311 392 492> 751 67<455.957 535.859>
LayerCount: 2
Fore
SplineSet
18 -146 m 1
 30 -82 l 1
 53 -85 65 -86 78 -86 c 0
 170 -86 204 -48 231 92 c 2
 311 517 l 1
 198 517 l 1
 211 584 l 1
 322 584 l 1
 326 607 l 2
 354 751 427 818 517 818 c 0
 525 818 532 817 546 815 c 1
 535 749 l 1
 524 751 520 751 513 751 c 0
 458 751 416 708 396 607 c 2
 392 584 l 1
 504 584 l 1
 492 517 l 1
 380 517 l 1
 300 86 l 2
 279 -29 264 -66 225 -101 c 0
 187 -135 136 -153 76 -153 c 0
 52 -153 35 -151 18 -146 c 1
EndSplineSet
Validated: 1
EndChar

StartChar: quotedblbase
Encoding: 132 8222 103
Width: 502
VWidth: 0
GlyphClass: 3
Flags: W
TeX: 126 -67
HStem: -67 193
VStem: 89 309
LayerCount: 2
Fore
SplineSet
89 -67 m 1
 177 126 l 1
 251 126 l 1
 163 -67 l 1
 89 -67 l 1
236 -67 m 1
 324 126 l 1
 398 126 l 1
 310 -67 l 1
 236 -67 l 1
EndSplineSet
Validated: 1
Ligature2: "'dlig' Discretionary Ligatures in Latin lookup 12 subtable" comma comma
EndChar

StartChar: dagger
Encoding: 134 8224 104
Width: 553
VWidth: 0
Flags: W
TeX: 739 0
HStem: 470 66<59 237 311 494> 719 20G<237 311>
VStem: 237 74<-133 470 536 739>
LayerCount: 2
Fore
SplineSet
59 470 m 1
 59 536 l 1
 237 536 l 1
 237 739 l 1
 311 739 l 1
 311 536 l 1
 494 536 l 1
 494 470 l 1
 311 470 l 1
 311 -133 l 1
 237 -133 l 1
 237 470 l 1
 59 470 l 1
EndSplineSet
Validated: 1
EndChar

StartChar: daggerdbl
Encoding: 135 8225 105
Width: 553
VWidth: 0
Flags: W
TeX: 739 -250
HStem: 331 70<59 238 312 494> 493 70<59 238 312 494> 719 20G<238 312>
VStem: 238 74<-133 331 401 493 563 739>
LayerCount: 2
Fore
SplineSet
59 331 m 1
 59 401 l 1
 238 401 l 1
 238 493 l 1
 59 493 l 1
 59 563 l 1
 238 563 l 1
 238 739 l 1
 312 739 l 1
 312 563 l 1
 494 563 l 1
 494 493 l 1
 312 493 l 1
 312 401 l 1
 494 401 l 1
 494 331 l 1
 312 331 l 1
 312 -133 l 1
 238 -133 l 1
 238 331 l 1
 59 331 l 1
EndSplineSet
Validated: 1
EndChar

StartChar: perthousand
Encoding: 137 8240 106
Width: 1174
VWidth: 0
Flags: W
TeX: 739 0
HStem: -13 66<511.88 640.396 910.88 1039.4> 0 21G<182 263.039> 272 66<512.012 638.144 911.012 1037.14> 397 66<124.544 252.396> 683 66<123.832 250.144> 719 20G<505.015 588>
VStem: 13 66<508.028 638.393> 296 68<507.813 637.766> 401 67<97.4844 227.607> 684 68<97.7088 226.99> 800 67<97.4844 227.607> 1083 68<97.7088 226.99>
LayerCount: 2
Fore
SplineSet
13 573 m 0x3bf0
 13 671 91 749 190 749 c 0
 285 749 364 669 364 573 c 0
 364 476 285 397 188 397 c 0
 92 397 13 476 13 573 c 0x3bf0
79 573 m 0
 79 513 128 463 188 463 c 0
 247 463 296 512 296 573 c 0
 296 633 248 683 189 683 c 0
 128 683 79 634 79 573 c 0
182 0 m 1x77f0
 514 739 l 1
 588 739 l 1
 254 0 l 1
 182 0 l 1x77f0
401 162 m 0
 401 260 479 338 578 338 c 0
 673 338 752 258 752 163 c 0
 752 66 673 -13 576 -13 c 0xb3f0
 480 -13 401 66 401 162 c 0
468 162 m 0
 468 102 517 53 576 53 c 0
 635 53 684 102 684 162 c 0
 684 222 636 272 577 272 c 0
 516 272 468 224 468 162 c 0
800 162 m 0
 800 260 878 338 977 338 c 0
 1072 338 1151 258 1151 163 c 0
 1151 66 1072 -13 975 -13 c 0
 879 -13 800 66 800 162 c 0
867 162 m 0
 867 102 916 53 975 53 c 0
 1034 53 1083 102 1083 162 c 0
 1083 222 1035 272 976 272 c 0
 915 272 867 224 867 162 c 0
EndSplineSet
Validated: 1
EndChar

StartChar: guilsinglleft
Encoding: 277 8249 107
Width: 251
VWidth: 0
Flags: W
TeX: 499 0
VStem: 40 171
LayerCount: 2
Fore
SplineSet
40 300 m 1
 152 499 l 1
 211 467 l 1
 118 300 l 1
 211 132 l 1
 152 99 l 1
 40 300 l 1
EndSplineSet
Validated: 1
EndChar

StartChar: OE
Encoding: 141 338 108
Width: 1194
VWidth: 0
Flags: W
TeX: 739 0
HStem: -13 68<320.441 555.368> 0 67<819 1138> 340 67<819 1127> 672 67<819 1138> 684 68<314.023 551.965>
VStem: 44 75<254.082 488.19> 745 74<67 151 252.497 340 407 489.983 592 672>
LayerCount: 2
Fore
SplineSet
44 371 m 0xa6
 44 589 210 752 432 752 c 0xae
 570 752 683 695 745 592 c 1
 745 739 l 1
 1138 739 l 1
 1138 672 l 1
 819 672 l 1
 819 407 l 1
 1127 407 l 1
 1127 340 l 1
 819 340 l 1
 819 67 l 1
 1138 67 l 1
 1138 0 l 1
 745 0 l 1x76
 745 151 l 1
 683 44 579 -13 445 -13 c 0
 214 -13 44 150 44 371 c 0xa6
119 375 m 0
 119 191 255 55 439 55 c 0
 616 55 746 189 746 372 c 0
 746 553 614 684 432 684 c 0
 252 684 119 548 119 375 c 0
EndSplineSet
Validated: 1
AlternateSubs2: "'aalt' Access All Alternates lookup 0 subtable" oe.sc
AlternateSubs2: "'aalt' Access All Alternates in Latin lookup 0 subtable" oe.sc
Substitution2: "'c2sc' Capitals to Small Capitals in Latin lookup 13 subtable" oe.sc
Position2: "'cpsp' Capital Spacing in Latin lookup 13 subtable" dx=7 dy=0 dh=14 dv=0
EndChar

StartChar: quoteleft
Encoding: 145 8216 109
Width: 351
VWidth: 0
Flags: W
TeX: 739 0
HStem: 547 192
VStem: 98 162
LayerCount: 2
Fore
SplineSet
98 739 m 1
 172 739 l 1
 260 547 l 1
 186 547 l 1
 98 739 l 1
EndSplineSet
Validated: 1
EndChar

StartChar: quoteright
Encoding: 146 8217 110
Width: 351
VWidth: 0
Flags: W
TeX: 739 0
HStem: 547 192
VStem: 91 162
LayerCount: 2
Fore
SplineSet
91 547 m 1
 179 739 l 1
 253 739 l 1
 165 547 l 1
 91 547 l 1
EndSplineSet
Validated: 1
EndChar

StartChar: quotedblleft
Encoding: 147 8220 111
Width: 502
VWidth: 0
GlyphClass: 3
Flags: W
TeX: 739 0
HStem: 547 192
VStem: 96 310
LayerCount: 2
Fore
SplineSet
96 739 m 1
 170 739 l 1
 258 547 l 1
 184 547 l 1
 96 739 l 1
244 739 m 1
 318 739 l 1
 406 547 l 1
 332 547 l 1
 244 739 l 1
EndSplineSet
Validated: 1
Ligature2: "'dlig' Discretionary Ligatures in Latin lookup 12 subtable" quoteleft quoteleft
EndChar

StartChar: quotedblright
Encoding: 148 8221 112
Width: 484
VWidth: 0
GlyphClass: 3
Flags: W
TeX: 739 0
HStem: 547 192
VStem: 87 306
LayerCount: 2
Fore
SplineSet
87 547 m 1
 175 739 l 1
 249 739 l 1
 161 547 l 1
 87 547 l 1
231 547 m 1
 319 739 l 1
 393 739 l 1
 305 547 l 1
 231 547 l 1
EndSplineSet
Validated: 1
Ligature2: "'dlig' Discretionary Ligatures in Latin lookup 12 subtable" quoteright quoteright
EndChar

StartChar: endash
Encoding: 150 8211 113
Width: 500
VWidth: 0
GlyphClass: 3
Flags: W
TeX: 296 0
HStem: 233 63<0 500>
LayerCount: 2
Fore
SplineSet
0 233 m 1
 0 296 l 1
 500 296 l 1
 500 233 l 1
 0 233 l 1
EndSplineSet
Validated: 1
Ligature2: "'dlig' Discretionary Ligatures in Latin lookup 12 subtable" hyphen hyphen
EndChar

StartChar: emdash
Encoding: 151 8212 114
Width: 1000
VWidth: 0
GlyphClass: 3
Flags: W
TeX: 296 0
HStem: 233 63<0 1000>
LayerCount: 2
Fore
SplineSet
0 233 m 1
 0 296 l 1
 1000 296 l 1
 1000 233 l 1
 0 233 l 1
EndSplineSet
Validated: 1
Ligature2: "'dlig' Discretionary Ligatures in Latin lookup 12 subtable" hyphen hyphen hyphen hyphen
EndChar

StartChar: guilsinglright
Encoding: 278 8250 115
Width: 251
VWidth: 0
Flags: W
TeX: 499 0
VStem: 40 171
LayerCount: 2
Fore
SplineSet
40 132 m 1
 133 300 l 1
 40 467 l 1
 99 499 l 1
 211 300 l 1
 99 99 l 1
 40 132 l 1
EndSplineSet
Validated: 1
EndChar

StartChar: oe
Encoding: 157 339 116
Width: 1137
VWidth: 0
Flags: W
TeX: 547 0
HStem: -13 68<236.997 421.319 731.676 919.84> 248 67<608 1027> 492 68<232.846 419.825 723.213 910.59>
VStem: 42 75<178.976 371.852>
LayerCount: 2
Fore
SplineSet
42 274 m 0
 42 435 165 560 324 560 c 0
 431 560 511 513 571 414 c 1
 628 512 708 560 817 560 c 0
 976 560 1098 441 1098 286 c 0
 1098 278 1097 265 1096 248 c 1
 608 248 l 1
 615 135 716 55 824 55 c 0
 910 55 972 96 1012 179 c 1
 1086 179 l 1
 1060 80 958 -13 828 -13 c 0
 713 -13 617 44 571 138 c 1
 511 33 437 -13 331 -13 c 0
 168 -13 42 112 42 274 c 0
117 273 m 0
 117 150 210 55 331 55 c 0
 447 55 536 150 536 273 c 0
 536 399 446 492 326 492 c 0
 206 492 117 399 117 273 c 0
608 315 m 1
 1027 315 l 1
 1009 421 923 492 815 492 c 0
 713 492 635 425 608 315 c 1
EndSplineSet
Validated: 1
AlternateSubs2: "'aalt' Access All Alternates lookup 0 subtable" oe.sc
AlternateSubs2: "'aalt' Access All Alternates in Latin lookup 0 subtable" oe.sc
Substitution2: "'smcp' Lowercase to Small Capitals in Latin lookup 2 subtable" oe.sc
EndChar

StartChar: cent
Encoding: 279 162 117
Width: 554
VWidth: 0
Flags: W
TeX: 707 0
HStem: 152 65<203.913 259 325 361.707> 547 67<202.578 259 325 363.98>
VStem: 45 74<300.122 465.146> 259 66<62 153.846 611.643 707>
LayerCount: 2
Fore
SplineSet
45 382 m 0
 45 507 132 601 259 614 c 1
 259 707 l 1
 325 707 l 1
 325 614 l 1
 411 602 480 545 509 463 c 1
 426 463 l 1
 395 518 346 547 283 547 c 0
 189 547 119 477 119 383 c 0
 119 290 191 217 282 217 c 0
 337 217 377 238 422 290 c 1
 503 290 l 1
 476 217 405 162 325 152 c 1
 325 62 l 1
 259 62 l 1
 259 152 l 1
 136 161 45 259 45 382 c 0
EndSplineSet
Validated: 1
AlternateSubs2: "'aalt' Access All Alternates lookup 0 subtable" cent.oldstyle
AlternateSubs2: "'aalt' Access All Alternates in Latin lookup 0 subtable" cent.oldstyle
Substitution2: "'onum' Oldstyle Figures in Latin lookup 3 subtable" cent.oldstyle
EndChar

StartChar: sterling
Encoding: 280 163 118
Width: 554
VWidth: 0
Flags: W
TeX: 739 0
HStem: 0 67<59 214.365 285 441.3> 347 67<18 93 242 457> 685 67<223.086 396.211>
VStem: 71 74<426.814 604.187> 240 74<94.6537 265.133> 485 69<541 596.558> 518 74<136.49 266.884>
LayerCount: 2
Fore
SplineSet
18 347 m 1xfa
 18 414 l 1
 93 414 l 1
 76 455 71 478 71 512 c 0
 71 652 170 752 306 752 c 0
 440 752 540 666 554 541 c 1
 485 541 l 1xfc
 465 631 399 685 307 685 c 0
 211 685 145 615 145 513 c 0
 145 476 151 455 173 414 c 1
 457 414 l 1
 457 347 l 1
 242 347 l 1
 290 296 314 241 314 184 c 0
 314 147 306 115 285 67 c 1
 342 67 l 2
 468 67 518 133 518 219 c 0
 518 233 517 243 512 268 c 1
 584 268 l 1
 590 245 592 233 592 213 c 0
 592 88 511 0 344 0 c 2
 59 0 l 1
 59 67 l 1
 198 67 l 1
 226 98 240 136 240 183 c 0
 240 245 220 279 144 347 c 1
 18 347 l 1xfa
EndSplineSet
Validated: 1
EndChar

StartChar: currency
Encoding: 164 164 119
Width: 554
VWidth: 0
Flags: W
TeX: 553 0
HStem: 50 72<190.865 365.215> 483 70<190.105 366.988>
VStem: 26 71<215.054 390.928> 457 71<214.534 391.194>
LayerCount: 2
Fore
SplineSet
26 303 m 0
 26 362 40 406 73 452 c 1
 29 494 l 1
 84 548 l 1
 127 506 l 1
 180 540 221 553 276 553 c 0
 334 553 382 538 426 507 c 1
 469 549 l 1
 523 494 l 1
 482 452 l 1
 514 405 528 359 528 300 c 0
 528 240 512 191 481 153 c 1
 523 111 l 1
 469 58 l 1
 428 100 l 1
 371 62 333 50 276 50 c 0
 219 50 180 63 126 100 c 1
 84 58 l 1
 31 112 l 1
 72 153 l 1
 40 197 26 244 26 303 c 0
97 302 m 0
 97 199 175 122 279 122 c 0
 380 122 457 200 457 303 c 0
 457 406 382 483 280 483 c 0
 174 483 97 407 97 302 c 0
EndSplineSet
Validated: 1
EndChar

StartChar: yen
Encoding: 281 165 120
Width: 554
VWidth: 0
Flags: W
TeX: 739 0
HStem: 0 21G<260 333> 237 67<50 233 359 539> 396 67<43 148 443 546> 719 20G<0 86.7282 502.515 589>
VStem: 260 73<0 237>
LayerCount: 2
Fore
SplineSet
0 739 m 1
 76 739 l 1
 297 327 l 1
 513 739 l 1
 589 739 l 1
 443 463 l 1
 546 463 l 1
 546 396 l 1
 407 396 l 1
 359 304 l 1
 539 304 l 1
 539 237 l 1
 333 237 l 1
 333 0 l 1
 260 0 l 1
 260 237 l 1
 50 237 l 1
 50 304 l 1
 233 304 l 1
 184 396 l 1
 43 396 l 1
 43 463 l 1
 148 463 l 1
 0 739 l 1
EndSplineSet
Validated: 1
EndChar

StartChar: section
Encoding: 167 167 121
Width: 615
VWidth: 0
Flags: W
TeX: 739 -250
HStem: -141 67<236.412 384.391> 685 67<237.925 378.689>
VStem: 87 68<300.727 418.017> 106 68<-7.70533 64> 135 68<532.881 650.373> 412 71<606 651.409> 433 68<-27.2821 88.681> 461 68<215.276 336.88>
LayerCount: 2
Fore
SplineSet
87 339 m 0xe2
 87 401 115 450 173 491 c 1
 146 520 135 548 135 589 c 0
 135 683 208 752 307 752 c 0
 404 752 476 692 483 606 c 1
 412 606 l 1xcc
 401 658 366 685 307 685 c 0
 246 685 203 646 203 591 c 0
 203 555 224 523 262 505 c 2
 420 431 l 2
 493 397 529 349 529 289 c 0xc9
 529 234 502 182 453 146 c 1
 486 111 501 78 501 37 c 0
 501 -65 420 -141 313 -141 c 0
 196 -141 110 -56 106 64 c 1
 174 64 l 1xd2
 180 -19 235 -74 313 -74 c 0
 381 -74 433 -27 433 35 c 0
 433 75 406 104 339 137 c 2
 196 207 l 2
 114 247 87 280 87 339 c 0xe2
155 350 m 0xe1
 155 319 173 295 209 278 c 2
 407 182 l 1
 440 206 461 244 461 280 c 0
 461 317 441 346 400 365 c 2
 212 454 l 1
 177 430 155 390 155 350 c 0xe1
EndSplineSet
Validated: 1
EndChar

StartChar: ordfeminine
Encoding: 282 170 122
Width: 369
VWidth: 0
Flags: W
TeX: 739 0
HStem: 319 51<31 339> 441 49<126.166 241.796> 696 49<126.4 241.986>
VStem: 31 53<532.356 653.422> 285 48<448 493 534.404 651.579 694 739>
LayerCount: 2
Fore
SplineSet
31 319 m 1
 31 370 l 1
 339 370 l 1
 339 319 l 1
 31 319 l 1
31 594 m 0
 31 677 99 745 183 745 c 0
 224 745 266 724 285 694 c 1
 285 739 l 1
 333 739 l 1
 333 448 l 1
 285 448 l 1
 285 493 l 1
 256 456 225 441 182 441 c 0
 100 441 31 511 31 594 c 0
84 595 m 0
 84 539 131 490 184 490 c 0
 236 490 282 539 282 592 c 0
 282 648 236 696 184 696 c 0
 132 696 84 648 84 595 c 0
EndSplineSet
Validated: 1
EndChar

StartChar: guillemotleft
Encoding: 171 171 123
Width: 425
VWidth: 0
Flags: W
TeX: 499 0
LayerCount: 2
Fore
SplineSet
40 300 m 1
 153 499 l 1
 212 467 l 1
 118 300 l 1
 212 132 l 1
 153 99 l 1
 40 300 l 1
211 300 m 1
 326 499 l 1
 385 467 l 1
 291 300 l 1
 385 132 l 1
 326 99 l 1
 211 300 l 1
EndSplineSet
Validated: 1
EndChar

StartChar: degree
Encoding: 176 176 124
Width: 400
VWidth: 0
Flags: W
TeX: 739 0
HStem: 434 57<140.856 259.148> 683 57<142.092 258.938>
VStem: 50 56<526.8 647.833> 293 57<526.17 647.622>
LayerCount: 2
Fore
SplineSet
50 588 m 0
 50 673 118 740 204 740 c 0
 286 740 350 673 350 587 c 0
 350 501 284 434 200 434 c 0
 116 434 50 502 50 588 c 0
106 587 m 0
 106 534 149 491 200 491 c 0
 252 491 293 533 293 587 c 0
 293 640 252 683 202 683 c 0
 148 683 106 640 106 587 c 0
EndSplineSet
Validated: 1
EndChar

StartChar: two.superior
Encoding: 283 178 125
Width: 332
VWidth: 0
Flags: W
TeX: 739 0
HStem: 288 55<101 318> 692 55<106.943 226.687>
VStem: 16 60<583 660.354> 259 61<551.134 660.896>
LayerCount: 2
Fore
SplineSet
12 288 m 1
 12 339 l 1
 175 489 l 2
 248 556 259 569 259 608 c 0
 259 653 218 692 168 692 c 0
 115 692 76 656 76 588 c 2
 76 583 l 1
 16 583 l 1
 18 688 76 747 171 747 c 0
 254 747 320 684 320 606 c 0
 320 559 297 521 234 464 c 2
 101 343 l 1
 318 343 l 1
 318 288 l 1
 12 288 l 1
EndSplineSet
Validated: 1
EndChar

StartChar: three.superior
Encoding: 284 179 126
Width: 332
VWidth: 0
Flags: W
TeX: 739 0
HStem: 280 55<106.336 222.537> 517 54<128 213.424> 692 55<119.088 213.773>
VStem: 13 61<370.703 439> 43 61<615 675.322> 229 61<586.888 677.544> 258 61<369.371 484.656>
LayerCount: 2
Fore
SplineSet
13 439 m 1xf2
 74 439 l 1
 78 363 119 335 165 335 c 0
 215 335 258 377 258 425 c 0xf2
 258 491 208 517 128 517 c 1
 128 571 l 1
 149 570 l 2
 198 570 229 594 229 631 c 0
 229 666 202 692 166 692 c 0
 128 692 104 666 104 615 c 1
 43 615 l 1
 44 695 93 747 167 747 c 0
 236 747 290 695 290 628 c 0xec
 290 594 280 574 249 546 c 1
 296 517 319 476 319 427 c 0
 319 347 249 280 166 280 c 0
 82 280 18 336 13 439 c 1xf2
EndSplineSet
Validated: 1
EndChar

StartChar: mu
Encoding: 181 956 127
Width: 608
VWidth: 0
Flags: W
TeX: 547 -192
HStem: -192 21G<63 137> -13 67<225.46 391.751> 0 21G<471 545> 527 20G<63 137 471 545>
VStem: 63 74<-192 85 139.784 547> 471 74<0 85 146.293 547>
LayerCount: 2
Fore
SplineSet
63 -192 m 1xdc
 63 547 l 1
 137 547 l 1
 137 266 l 2
 137 173 148 140 190 101 c 0
 222 71 265 54 307 54 c 0xdc
 404 54 471 117 471 266 c 2
 471 547 l 1
 545 547 l 1
 545 0 l 1
 471 0 l 1xbc
 471 85 l 1
 437 19 384 -13 307 -13 c 0
 236 -13 175 22 137 85 c 1
 137 -192 l 1
 63 -192 l 1xdc
EndSplineSet
Validated: 1
AlternateSubs2: "'aalt' Access All Alternates lookup 0 subtable" uni00B5
AlternateSubs2: "'aalt' Access All Alternates in Latin lookup 0 subtable" uni00B5
Substitution2: "'ss03' Style Set 3 in Latin lookup 17 subtable" uni00B5
Substitution2: "'ss01' Style Set 1 in Latin lookup 15 subtable" uni00B5
Substitution2: "'salt' Stylistic Alternatives in Latin lookup 14 subtable" uni00B5
EndChar

StartChar: paragraph
Encoding: 182 182 128
Width: 564
VWidth: 0
Flags: W
TeX: 739 -133
HStem: 672 67<302 416>
VStem: 37 265<458.565 641.81> 227 75<-133 357.97> 416 75<-133 672>
LayerCount: 2
Fore
SplineSet
37 549 m 0xd0
 37 659 110 739 260 739 c 2
 491 739 l 1
 491 -133 l 1
 416 -133 l 1
 416 672 l 1
 302 672 l 1
 302 -133 l 1
 227 -133 l 1
 227 355 l 1xb0
 109 367 37 441 37 549 c 0xd0
EndSplineSet
Validated: 1
AlternateSubs2: "'aalt' Access All Alternates lookup 0 subtable" paragraph.alt
AlternateSubs2: "'aalt' Access All Alternates in Latin lookup 0 subtable" paragraph.alt
Substitution2: "'ss02' Style Set 2 in Latin lookup 16 subtable" paragraph.alt
Substitution2: "'ss01' Style Set 1 in Latin lookup 15 subtable" paragraph.alt
Substitution2: "'salt' Stylistic Alternatives in Latin lookup 14 subtable" paragraph.alt
EndChar

StartChar: one.superior
Encoding: 285 185 129
Width: 332
VWidth: 0
Flags: W
TeX: 739 0
HStem: 684 55<98 173>
VStem: 173 60<288 684>
LayerCount: 2
Fore
SplineSet
98 684 m 1
 98 739 l 1
 233 739 l 1
 233 288 l 1
 173 288 l 1
 173 684 l 1
 98 684 l 1
EndSplineSet
Validated: 1
EndChar

StartChar: ordmasculine
Encoding: 286 186 130
Width: 369
VWidth: 0
Flags: W
TeX: 739 0
HStem: 319 51<32 337> 442 49<123.874 244.379> 696 49<122.711 246.602>
VStem: 32 53<531.288 656.584> 284 53<530.914 656.206>
LayerCount: 2
Fore
SplineSet
32 319 m 1
 32 370 l 1
 337 370 l 1
 337 319 l 1
 32 319 l 1
32 596 m 0
 32 676 102 745 185 745 c 0
 267 745 337 676 337 594 c 0
 337 511 267 442 184 442 c 0
 100 442 32 510 32 596 c 0
85 594 m 0
 85 537 129 491 185 491 c 0
 239 491 284 537 284 592 c 0
 284 651 241 696 184 696 c 0
 129 696 85 650 85 594 c 0
EndSplineSet
Validated: 1
EndChar

StartChar: guillemotright
Encoding: 187 187 131
Width: 425
VWidth: 0
Flags: W
TeX: 499 0
LayerCount: 2
Fore
SplineSet
40 132 m 1
 134 300 l 1
 40 467 l 1
 99 499 l 1
 214 300 l 1
 99 99 l 1
 40 132 l 1
213 132 m 1
 307 300 l 1
 213 467 l 1
 272 499 l 1
 385 300 l 1
 272 99 l 1
 213 132 l 1
EndSplineSet
Validated: 1
EndChar

StartChar: onequarter
Encoding: 287 188 132
Width: 831
VWidth: 0
GlyphClass: 3
Flags: W
TeX: 739 0
HStem: 0 21G<211 274.256 701 761> 79 55<545 701 761 803> 684 55<101 176>
VStem: 176 60<288 684> 701 60<0 79 134 359>
LayerCount: 2
Fore
SplineSet
101 684 m 1
 101 739 l 1
 236 739 l 1
 236 288 l 1
 176 288 l 1
 176 684 l 1
 101 684 l 1
211 0 m 1
 552 739 l 1
 607 739 l 1
 265 0 l 1
 211 0 l 1
470 79 m 1
 470 129 l 1
 696 451 l 1
 761 451 l 1
 761 134 l 1
 803 134 l 1
 803 79 l 1
 761 79 l 1
 761 0 l 1
 701 0 l 1
 701 79 l 1
 470 79 l 1
545 134 m 1
 701 134 l 1
 701 359 l 1
 545 134 l 1
EndSplineSet
Validated: 1
Ligature2: "'frac' Diagonal Fractions in Latin lookup 20 subtable" one fraction four
Ligature2: "'frac' Diagonal Fractions in Latin lookup 20 subtable" one slash four
EndChar

StartChar: onehalf
Encoding: 288 189 133
Width: 831
VWidth: 0
GlyphClass: 3
Flags: W
TeX: 739 0
HStem: 0 55<595 812> 404 55<600.943 720.687> 684 55<96 171>
VStem: 171 60<288 684> 510 60<295 372.354> 753 61<263.134 372.896>
LayerCount: 2
Fore
SplineSet
96 684 m 1
 96 739 l 1
 231 739 l 1
 231 288 l 1
 171 288 l 1
 171 684 l 1
 96 684 l 1
206 0 m 1
 547 739 l 1
 602 739 l 1
 260 0 l 1
 206 0 l 1
506 0 m 1
 506 51 l 1
 669 201 l 2
 742 268 753 281 753 320 c 0
 753 365 712 404 662 404 c 0
 609 404 570 368 570 300 c 2
 570 295 l 1
 510 295 l 1
 512 400 570 459 665 459 c 0
 748 459 814 396 814 318 c 0
 814 271 791 233 728 176 c 2
 595 55 l 1
 812 55 l 1
 812 0 l 1
 506 0 l 1
EndSplineSet
Validated: 1
Ligature2: "'frac' Diagonal Fractions in Latin lookup 20 subtable" one fraction two
Ligature2: "'frac' Diagonal Fractions in Latin lookup 20 subtable" one slash two
EndChar

StartChar: threequarters
Encoding: 289 190 134
Width: 831
VWidth: 0
GlyphClass: 3
Flags: W
TeX: 739 0
HStem: 0 21G<239 302.256 701 761> 79 55<545 701 761 803> 280 55<106.318 222.537> 517 54<128 213.424> 692 55<119.088 213.773> 719 20G<570.771 635>
VStem: 13 61<367.94 439> 43 61<615 675.322> 229 61<586.888 677.544> 258 61<369.371 484.656> 701 60<0 79 134 359>
LayerCount: 2
Fore
SplineSet
13 439 m 1xfa60
 74 439 l 1
 78 361 120 335 165 335 c 0
 215 335 258 377 258 425 c 0xfa60
 258 491 208 517 128 517 c 1
 128 571 l 1
 149 570 l 2
 198 570 229 594 229 631 c 0
 229 666 202 692 166 692 c 0
 128 692 104 666 104 615 c 1
 43 615 l 1
 44 695 93 747 167 747 c 0
 236 747 290 695 290 628 c 0xf9a0
 290 594 280 574 249 546 c 1
 295 517 319 476 319 427 c 0
 319 347 249 280 166 280 c 0
 82 280 15 338 13 439 c 1xfa60
239 0 m 1
 580 739 l 1
 635 739 l 1xf420
 293 0 l 1
 239 0 l 1
470 79 m 1
 470 129 l 1
 696 451 l 1
 761 451 l 1
 761 134 l 1
 803 134 l 1
 803 79 l 1
 761 79 l 1
 761 0 l 1
 701 0 l 1
 701 79 l 1
 470 79 l 1
545 134 m 1
 701 134 l 1
 701 359 l 1
 545 134 l 1
EndSplineSet
Validated: 1
Ligature2: "'frac' Diagonal Fractions in Latin lookup 20 subtable" three fraction four
Ligature2: "'frac' Diagonal Fractions in Latin lookup 20 subtable" three slash four
EndChar

StartChar: AE
Encoding: 170 198 135
Width: 992
VWidth: 0
Flags: W
TeX: 739 0
HStem: 0 67<617 936> 250 67<319 543> 340 67<617 925> 672 67<617 936>
VStem: 543 74<67 250 317 340 407 644>
LayerCount: 2
Fore
SplineSet
11 0 m 1
 522 739 l 1
 936 739 l 1
 936 672 l 1
 617 672 l 1
 617 407 l 1
 925 407 l 1
 925 340 l 1
 617 340 l 1
 617 67 l 1
 936 67 l 1
 936 0 l 1
 543 0 l 1
 543 250 l 1
 272 250 l 1
 99 0 l 1
 11 0 l 1
319 317 m 1
 543 317 l 1
 543 644 l 1
 319 317 l 1
EndSplineSet
Validated: 1
AlternateSubs2: "'aalt' Access All Alternates lookup 0 subtable" ae.sc
AlternateSubs2: "'aalt' Access All Alternates in Latin lookup 0 subtable" ae.sc
Substitution2: "'c2sc' Capitals to Small Capitals in Latin lookup 13 subtable" ae.sc
Position2: "'cpsp' Capital Spacing in Latin lookup 13 subtable" dx=7 dy=0 dh=14 dv=0
EndChar

StartChar: Eth
Encoding: 208 208 136
Width: 790
VWidth: 0
Flags: W
TeX: 739 0
HStem: 0 67<196 478.314> 347 67<26 122 196 401> 672 67<196 477.512>
VStem: 122 74<67 347 414 672> 671 75<252.561 488.981>
LayerCount: 2
Fore
SplineSet
26 347 m 1
 26 414 l 1
 122 414 l 1
 122 739 l 1
 296 739 l 2
 430 739 508 723 578 681 c 0
 687 616 746 506 746 367 c 0
 746 154 610 0 321 0 c 2
 122 0 l 1
 122 347 l 1
 26 347 l 1
196 67 m 1
 299 67 l 2
 430 67 506 86 565 133 c 0
 633 188 671 273 671 370 c 0
 671 480 622 573 537 624 c 0
 481 658 411 672 299 672 c 2
 196 672 l 1
 196 414 l 1
 401 414 l 1
 401 347 l 1
 196 347 l 1
 196 67 l 1
EndSplineSet
Validated: 1
AlternateSubs2: "'aalt' Access All Alternates lookup 0 subtable" eth.sc
AlternateSubs2: "'aalt' Access All Alternates in Latin lookup 0 subtable" eth.sc
Substitution2: "'c2sc' Capitals to Small Capitals in Latin lookup 13 subtable" eth.sc
Position2: "'cpsp' Capital Spacing in Latin lookup 13 subtable" dx=7 dy=0 dh=14 dv=0
EndChar

StartChar: Oslash
Encoding: 216 216 137
Width: 868
VWidth: 0
GlyphClass: 2
Flags: W
TeX: 739 0
HStem: -13 68<317.667 547.698> 684 68<314.873 550.388>
VStem: 44 75<250.452 484.15> 749 75<254.922 487.417>
AnchorPoint: "bot_acc" 434 -123 basechar 0
AnchorPoint: "dotbelow" 434 -123 basechar 0
AnchorPoint: "ogon_acc" 434 -123 basechar 0
AnchorPoint: "top_accu" 434 852 basechar 0
AnchorPoint: "dotabove" 434 852 basechar 0
LayerCount: 2
Fore
SplineSet
44 370 m 0
 44 584 214 752 431 752 c 0
 507 752 586 730 636 696 c 1
 730 821 l 1
 784 779 l 1
 692 656 l 1
 780 582 824 486 824 372 c 0
 824 157 653 -13 437 -13 c 0
 365 -13 293 6 233 42 c 1
 139 -83 l 1
 83 -42 l 1
 176 82 l 1
 91 153 44 255 44 370 c 0
119 366 m 0
 119 276 152 201 219 138 c 1
 595 641 l 1
 549 669 490 684 430 684 c 0
 256 684 119 544 119 366 c 0
274 97 m 1
 331 67 378 55 436 55 c 0
 611 55 749 194 749 369 c 0
 749 461 718 534 650 600 c 1
 274 97 l 1
EndSplineSet
Validated: 1
AlternateSubs2: "'aalt' Access All Alternates lookup 0 subtable" oslash.sc
AlternateSubs2: "'aalt' Access All Alternates in Latin lookup 0 subtable" oslash.sc
Substitution2: "'c2sc' Capitals to Small Capitals in Latin lookup 13 subtable" oslash.sc
Position2: "'cpsp' Capital Spacing in Latin lookup 13 subtable" dx=7 dy=0 dh=14 dv=0
EndChar

StartChar: Thorn
Encoding: 290 222 138
Width: 592
VWidth: 0
Flags: W
TeX: 739 0
HStem: 0 21G<76 150> 166 67<150 419.453> 539 67<150 421.468> 719 20G<76 143>
VStem: 76 74<0 166 233 539> 76 67<606 739> 490 75<294.014 477.342>
LayerCount: 2
Fore
SplineSet
76 0 m 1xfa
 76 739 l 1
 143 739 l 1
 143 606 l 1xf6
 280 606 l 2
 483 606 565 537 565 382 c 0
 565 242 493 166 292 166 c 2
 150 166 l 1
 150 0 l 1
 76 0 l 1xfa
150 233 m 1xfa
 287 233 l 2
 434 233 490 275 490 382 c 0
 490 532 396 539 255 539 c 2
 150 539 l 1
 150 233 l 1xfa
EndSplineSet
Validated: 1
AlternateSubs2: "'aalt' Access All Alternates lookup 0 subtable" thorn.sc
AlternateSubs2: "'aalt' Access All Alternates in Latin lookup 0 subtable" thorn.sc
Substitution2: "'c2sc' Capitals to Small Capitals in Latin lookup 13 subtable" thorn.sc
Position2: "'cpsp' Capital Spacing in Latin lookup 13 subtable" dx=7 dy=0 dh=14 dv=0
EndChar

StartChar: germandbls
Encoding: 223 223 139
Width: 554
VWidth: 0
Flags: W
TeX: 752 0
HStem: -13 68<246.287 387.423> 0 21G<59 133> 343 65<224 331.227> 684 68<191.316 337.944>
VStem: 59 125<120.901 203> 59 74<0 109 203 613.89> 399 75<470.309 622.275> 449 75<119.709 273.273>
LayerCount: 2
Fore
SplineSet
59 0 m 1x75
 59 481 l 2
 59 666 127 752 263 752 c 0
 384 752 474 663 474 544 c 0x76
 474 472 447 424 389 389 c 1
 476 361 524 294 524 199 c 0
 524 78 436 -13 319 -13 c 0xb1
 233 -13 170 28 133 109 c 1
 133 0 l 1
 59 0 l 1x75
133 203 m 1
 184 203 l 1
 186 116 241 55 317 55 c 0
 391 55 449 117 449 197 c 0xb9
 449 288 381 343 269 343 c 0
 262 343 257 343 224 341 c 1
 224 408 l 1
 233 408 l 2
 337 408 399 460 399 548 c 0
 399 626 342 684 265 684 c 0
 175 684 133 626 133 481 c 2
 133 203 l 1
EndSplineSet
Validated: 1
AlternateSubs2: "'aalt' Access All Alternates lookup 0 subtable" germandbls.sc
AlternateSubs2: "'aalt' Access All Alternates in Latin lookup 0 subtable" germandbls.sc
Substitution2: "'smcp' Lowercase to Small Capitals in Latin lookup 2 subtable" germandbls.sc
EndChar

StartChar: ae
Encoding: 186 230 140
Width: 1157
VWidth: 0
Flags: W
TeX: 547 0
HStem: -13 68<241.117 427.534 744.346 931.16> 0 21G<548 619> 247 67<626 1046> 492 68<239.703 430.139 740.909 931.992> 527 20G<548 619>
VStem: 42 76<178.487 370.341> 548 71<0 92 182.993 247 452 547>
LayerCount: 2
Fore
SplineSet
42 272 m 0xa6
 42 430 162 560 330 560 c 0xb6
 426 560 494 526 548 452 c 1
 548 547 l 1
 619 547 l 1x2e
 619 452 l 1
 678 526 746 560 835 560 c 0
 990 560 1118 454 1118 247 c 1
 623 247 l 1
 633 137 726 55 839 55 c 0
 923 55 997 103 1028 178 c 1
 1105 178 l 1
 1067 64 960 -13 839 -13 c 0xb6
 752 -13 679 22 619 92 c 1
 619 0 l 1
 548 0 l 1x66
 548 92 l 1
 487 18 422 -13 331 -13 c 0
 167 -13 42 110 42 272 c 0xa6
118 274 m 0
 118 151 212 55 333 55 c 0
 455 55 550 151 550 274 c 0
 550 400 459 492 333 492 c 0
 211 492 118 398 118 274 c 0
626 314 m 1
 1046 314 l 1
 1026 422 943 492 836 492 c 0
 727 492 642 419 626 314 c 1
EndSplineSet
Validated: 1
AlternateSubs2: "'aalt' Access All Alternates lookup 0 subtable" ae.sc
AlternateSubs2: "'aalt' Access All Alternates in Latin lookup 0 subtable" ae.sc
Substitution2: "'smcp' Lowercase to Small Capitals in Latin lookup 2 subtable" ae.sc
EndChar

StartChar: eth
Encoding: 240 240 141
Width: 655
VWidth: 0
Flags: W
TeX: 739 0
HStem: -13 68<237.087 426.076> 492 64<234.084 408.76> 723 20G<383.762 446.727>
VStem: 42 75<178.113 371.777> 538 75<172.181 371.514>
LayerCount: 2
Fore
SplineSet
42 274 m 0
 42 434 160 556 316 556 c 0
 349 556 369 552 412 538 c 1
 351 600 349 602 317 630 c 1
 230 591 l 1
 194 637 l 1
 273 672 l 1
 257 688 256 689 240 703 c 2
 213 727 l 1
 266 756 l 1
 296 734 309 724 334 701 c 1
 429 743 l 1
 468 699 l 1
 379 660 l 1
 527 530 613 420 613 279 c 0
 613 107 498 -13 334 -13 c 0
 166 -13 42 109 42 274 c 0
117 275 m 0
 117 147 207 55 333 55 c 0
 453 55 538 145 538 272 c 0
 538 398 449 492 329 492 c 0
 208 492 117 399 117 275 c 0
EndSplineSet
Validated: 1
AlternateSubs2: "'aalt' Access All Alternates lookup 0 subtable" eth.sc
AlternateSubs2: "'aalt' Access All Alternates in Latin lookup 0 subtable" eth.sc
Substitution2: "'smcp' Lowercase to Small Capitals in Latin lookup 2 subtable" eth.sc
EndChar

StartChar: oslash
Encoding: 248 248 142
Width: 653
VWidth: 0
GlyphClass: 2
Flags: W
TeX: 547 0
HStem: -13 68<223.986 417.189> 492 68<235.842 429.18>
VStem: 42 75<167.026 365.051> 536 75<175.31 382.369>
AnchorPoint: "bot_acc" 327 -162 basechar 0
AnchorPoint: "dotbelow" 327 -162 basechar 0
AnchorPoint: "ogon_acc" 327 -123 basechar 0
AnchorPoint: "top_accl" 327 670 basechar 0
AnchorPoint: "dotabove" 327 670 basechar 0
LayerCount: 2
Fore
SplineSet
42 272 m 0
 42 432 169 560 328 560 c 0
 382 560 429 547 474 519 c 1
 531 594 l 1
 584 552 l 1
 528 478 l 1
 584 427 611 362 611 281 c 0
 611 110 493 -13 328 -13 c 0
 274 -13 234 -2 178 28 c 1
 126 -39 l 1
 73 1 l 1
 124 68 l 1
 64 138 42 193 42 272 c 0
117 266 m 0
 117 211 131 170 166 121 c 1
 434 468 l 1
 402 484 367 492 329 492 c 0
 209 492 117 394 117 266 c 0
218 79 m 1
 258 61 285 55 323 55 c 0
 449 55 536 148 536 280 c 0
 536 339 521 384 487 426 c 1
 218 79 l 1
EndSplineSet
Validated: 1
AlternateSubs2: "'aalt' Access All Alternates lookup 0 subtable" oslash.sc
AlternateSubs2: "'aalt' Access All Alternates in Latin lookup 0 subtable" oslash.sc
Substitution2: "'smcp' Lowercase to Small Capitals in Latin lookup 2 subtable" oslash.sc
EndChar

StartChar: thorn
Encoding: 291 254 143
Width: 682
VWidth: 0
Flags: W
TeX: 739 -192
HStem: -192 21G<63 137> -13 68<252.58 444.371> 492 68<254.825 445.078> 719 20G<63 137>
VStem: 63 74<-192 94 168.91 379.715 453 739> 565 75<178.067 367.617>
LayerCount: 2
Fore
SplineSet
63 -192 m 1
 63 739 l 1
 137 739 l 1
 137 453 l 1
 183 522 259 560 352 560 c 0
 515 560 640 435 640 272 c 0
 640 112 513 -13 350 -13 c 0
 259 -13 185 24 137 94 c 1
 137 -192 l 1
 63 -192 l 1
132 276 m 0
 132 150 225 55 350 55 c 0
 472 55 565 149 565 272 c 0
 565 398 472 492 349 492 c 0
 228 492 132 397 132 276 c 0
EndSplineSet
Validated: 1
AlternateSubs2: "'aalt' Access All Alternates lookup 0 subtable" thorn.sc
AlternateSubs2: "'aalt' Access All Alternates in Latin lookup 0 subtable" thorn.sc
Substitution2: "'smcp' Lowercase to Small Capitals in Latin lookup 2 subtable" thorn.sc
EndChar

StartChar: space_uni0326
Encoding: 292 -1 144
Width: 351
VWidth: 0
Flags: W
TeX: 0 -250
HStem: -225 172<149 175>
VStem: 101 122
LayerCount: 2
Fore
SplineSet
101 -225 m 1
 149 -53 l 1
 223 -53 l 1
 175 -225 l 1
 101 -225 l 1
EndSplineSet
Validated: 1
EndChar

StartChar: Hbar
Encoding: 293 294 145
Width: 683
VWidth: 0
Flags: W
TeX: 739 0
HStem: 0 21G<76 150 533 607> 347 67<150 533> 565 64<12 76 150 533 607 674> 719 20G<76 150 533 607>
VStem: 76 74<0 347 414 565 629 739> 533 74<0 347 414 565 629 739>
LayerCount: 2
Fore
SplineSet
12 565 m 1
 12 629 l 1
 76 629 l 1
 76 739 l 1
 150 739 l 1
 150 629 l 1
 533 629 l 1
 533 739 l 1
 607 739 l 1
 607 629 l 1
 674 629 l 1
 674 565 l 1
 607 565 l 1
 607 0 l 1
 533 0 l 1
 533 347 l 1
 150 347 l 1
 150 0 l 1
 76 0 l 1
 76 565 l 1
 12 565 l 1
150 414 m 1
 533 414 l 1
 533 565 l 1
 150 565 l 1
 150 414 l 1
EndSplineSet
Validated: 1
AlternateSubs2: "'aalt' Access All Alternates lookup 0 subtable" hbar.sc
AlternateSubs2: "'aalt' Access All Alternates in Latin lookup 0 subtable" hbar.sc
Substitution2: "'c2sc' Capitals to Small Capitals in Latin lookup 13 subtable" hbar.sc
Position2: "'cpsp' Capital Spacing in Latin lookup 13 subtable" dx=7 dy=0 dh=14 dv=0
EndChar

StartChar: hbar
Encoding: 294 295 146
Width: 610
VWidth: 0
Flags: W
TeX: 739 0
HStem: 0 21G<62 136 472 546> 492 68<217.699 387.814> 615 64<9 62 137 236> 719 20G<63 137>
VStem: 62 74<0 410.994 476 615 679 739> 472 74<0 407.33>
LayerCount: 2
Fore
SplineSet
9 615 m 1
 9 679 l 1
 63 679 l 1
 63 739 l 1
 137 739 l 1
 137 679 l 1
 236 679 l 1
 236 615 l 1
 137 615 l 1
 136 476 l 1
 173 530 235 560 310 560 c 0
 389 560 458 529 499 475 c 0
 531 432 546 376 546 294 c 2
 546 0 l 1
 472 0 l 1
 472 294 l 2
 472 358 461 400 435 432 c 0
 406 469 356 492 303 492 c 0
 247 492 196 467 166 424 c 0
 144 394 136 359 136 300 c 2
 136 0 l 1
 62 0 l 1
 62 615 l 1
 9 615 l 1
EndSplineSet
Validated: 1
AlternateSubs2: "'aalt' Access All Alternates lookup 0 subtable" hbar.sc
AlternateSubs2: "'aalt' Access All Alternates in Latin lookup 0 subtable" hbar.sc
Substitution2: "'smcp' Lowercase to Small Capitals in Latin lookup 2 subtable" hbar.sc
EndChar

StartChar: longs
Encoding: 295 383 147
Width: 314
VWidth: 0
Flags: W
TeX: 739 0
HStem: 0 21G<101 175> 480 67<16 101> 672 67<213.514 311>
VStem: 101 74<0 480 547 630.578>
LayerCount: 2
Fore
SplineSet
16 480 m 1
 16 547 l 1
 101 547 l 1
 99 674 170 739 311 739 c 1
 311 672 l 1
 210 671 174 638 175 547 c 2
 175 0 l 1
 101 0 l 1
 101 480 l 1
 16 480 l 1
EndSplineSet
Validated: 33
EndChar

StartChar: Ohorn
Encoding: 296 416 148
Width: 869
VWidth: 0
GlyphClass: 2
Flags: W
TeX: 739 0
HStem: -13 68<323.466 545.483> 684 68<328.556 544.794> 719 20G<758 822>
VStem: 44 75<257.121 477.05> 750 75<258.632 478.193> 758 64<664.022 739>
AnchorPoint: "bot_acc" 435 -123 basechar 0
AnchorPoint: "dotbelow" 435 -123 basechar 0
AnchorPoint: "ogon_acc" 435 -123 basechar 0
AnchorPoint: "top_accu" 435 852 basechar 0
AnchorPoint: "dotabove" 435 852 basechar 0
LayerCount: 2
Fore
SplineSet
44 374 m 0xb8
 44 579 223 752 435 752 c 0xd8
 543 752 642 707 713 636 c 1
 738 659 758 692 758 739 c 1
 822 739 l 1xb4
 822 666 794 617 756 585 c 1
 799 523 825 449 825 369 c 0
 825 160 649 -13 435 -13 c 0
 218 -13 44 159 44 374 c 0xb8
119 372 m 0
 119 197 261 55 435 55 c 0
 607 55 750 197 750 368 c 0
 750 541 607 684 435 684 c 0
 264 684 119 541 119 372 c 0
EndSplineSet
Validated: 1
AlternateSubs2: "'aalt' Access All Alternates lookup 0 subtable" ohorn.sc
AlternateSubs2: "'aalt' Access All Alternates in Latin lookup 0 subtable" ohorn.sc
Substitution2: "'c2sc' Capitals to Small Capitals in Latin lookup 13 subtable" ohorn.sc
Position2: "'cpsp' Capital Spacing in Latin lookup 13 subtable" dx=7 dy=0 dh=14 dv=0
EndChar

StartChar: Uhorn
Encoding: 297 431 149
Width: 706
VWidth: 0
GlyphClass: 2
Flags: W
TeX: 739 0
HStem: -13 68<239.525 415.404> 719 20G<76 150 505 579 624 688>
VStem: 76 74<149.012 739> 505 74<149.012 567.459 635 739> 624 64<665.487 739>
AnchorPoint: "bot_acc" 328 -123 basechar 0
AnchorPoint: "dotbelow" 328 -123 basechar 0
AnchorPoint: "ogon_acc" 328 -123 basechar 0
AnchorPoint: "top_accu" 328 852 basechar 0
AnchorPoint: "dotabove" 328 852 basechar 0
LayerCount: 2
Fore
SplineSet
76 278 m 2
 76 739 l 1
 150 739 l 1
 150 278 l 2
 150 211 161 160 184 125 c 0
 212 82 267 55 328 55 c 0
 388 55 443 82 471 125 c 0
 494 160 505 211 505 278 c 2
 505 739 l 1
 579 739 l 1
 579 635 l 1
 604 658 624 692 624 739 c 1
 688 739 l 1
 688 640 636 585 579 555 c 1
 579 278 l 2
 579 183 564 127 527 78 c 0
 483 21 409 -13 327 -13 c 0
 246 -13 172 21 128 78 c 0
 91 127 76 183 76 278 c 2
EndSplineSet
Validated: 1
AlternateSubs2: "'aalt' Access All Alternates lookup 0 subtable" uhorn.sc
AlternateSubs2: "'aalt' Access All Alternates in Latin lookup 0 subtable" uhorn.sc
Substitution2: "'c2sc' Capitals to Small Capitals in Latin lookup 13 subtable" uhorn.sc
Position2: "'cpsp' Capital Spacing in Latin lookup 13 subtable" dx=7 dy=0 dh=14 dv=0
EndChar

StartChar: ohorn
Encoding: 298 417 150
Width: 676
VWidth: 0
GlyphClass: 2
Flags: W
TeX: 547 0
HStem: -13 68<237.146 425.53> 492 68<235.491 421.101> 527 20G<590 654>
VStem: 42 75<175.469 370.044> 538 75<170.759 370.602> 590 64<472.736 547>
AnchorPoint: "bot_acc" 329 -123 basechar 0
AnchorPoint: "dotbelow" 329 -123 basechar 0
AnchorPoint: "ogon_acc" 329 -123 basechar 0
AnchorPoint: "top_accl" 329 670 basechar 0
AnchorPoint: "dotabove" 329 670 basechar 0
LayerCount: 2
Fore
SplineSet
42 277 m 0xb8
 42 437 167 560 329 560 c 0xd8
 423 560 504 519 554 453 c 1
 575 475 590 506 590 547 c 1
 654 547 l 1xb4
 654 475 626 426 589 393 c 1
 604 357 613 316 613 272 c 0
 613 108 495 -13 335 -13 c 0
 165 -13 42 109 42 277 c 0xb8
117 275 m 0
 117 147 207 55 333 55 c 0
 452 55 538 146 538 271 c 0
 538 398 449 492 329 492 c 0
 208 492 117 399 117 275 c 0
EndSplineSet
Validated: 1
AlternateSubs2: "'aalt' Access All Alternates lookup 0 subtable" ohorn.sc
AlternateSubs2: "'aalt' Access All Alternates in Latin lookup 0 subtable" ohorn.sc
Substitution2: "'smcp' Lowercase to Small Capitals in Latin lookup 2 subtable" ohorn.sc
EndChar

StartChar: uhorn
Encoding: 299 432 151
Width: 676
VWidth: 0
GlyphClass: 2
Flags: W
TeX: 547 0
HStem: -13 68<212.576 384.943> 0 21G<471 545> 527 20G<63 137 471 545 593 657>
VStem: 63 74<132.294 547> 471 74<0 85 143.081 374.133 440 547> 593 64<472.252 547>
AnchorPoint: "bot_acc" 304 -123 basechar 0
AnchorPoint: "dotbelow" 304 -123 basechar 0
AnchorPoint: "ogon_acc" 473 -123 basechar 0
AnchorPoint: "top_accl" 304 670 basechar 0
AnchorPoint: "dotabove" 304 670 basechar 0
LayerCount: 2
Fore
SplineSet
63 252 m 2xbc
 63 547 l 1
 137 547 l 1
 137 252 l 2
 137 196 146 152 163 124 c 0
 188 80 240 55 301 55 c 0xbc
 358 55 407 80 438 123 c 0
 461 157 471 199 471 266 c 2
 471 547 l 1
 545 547 l 1
 545 440 l 1
 572 463 593 498 593 547 c 1
 657 547 l 1
 657 446 603 391 545 362 c 1
 545 0 l 1
 471 0 l 1x7c
 471 85 l 1
 434 17 380 -13 295 -13 c 0
 213 -13 147 17 106 74 c 0
 77 114 63 171 63 252 c 2xbc
EndSplineSet
Validated: 1
AlternateSubs2: "'aalt' Access All Alternates lookup 0 subtable" uhorn.sc
AlternateSubs2: "'aalt' Access All Alternates in Latin lookup 0 subtable" uhorn.sc
Substitution2: "'smcp' Lowercase to Small Capitals in Latin lookup 2 subtable" uhorn.sc
EndChar

StartChar: space_uni031B
Encoding: 300 -1 152
Width: 375
VWidth: 0
Flags: W
TeX: 578 0
HStem: 362 185
VStem: 311 64<472.252 547>
LayerCount: 2
Fore
SplineSet
250 401 m 1
 263 440 l 1
 290 463 311 498 311 547 c 1
 375 547 l 1
 375 446 321 391 263 362 c 1
 250 401 l 1
EndSplineSet
Validated: 1
EndChar

StartChar: aogonek
Encoding: 185 261 153
Width: 683
VWidth: 0
GlyphClass: 3
Flags: W
TeX: 547 -250
HStem: -250 74<545.481 633> -13 68<242.65 427.631> 492 68<240.599 425.71> 527 20G<546 620>
VStem: 42 75<179.068 368.303> 462 74<-167.62 -60.306> 546 74<-13.6769 96 179.34 370.825 450 547>
AnchorPoint: "bot_acc" 548 -360 basechar 0
AnchorPoint: "dotbelow" 548 -360 basechar 0
AnchorPoint: "ogon_acc" 548 -360 basechar 0
AnchorPoint: "top_accl" 330 670 basechar 0
AnchorPoint: "dotabove" 330 670 basechar 0
LayerCount: 2
Fore
SplineSet
42 272 m 0xde
 42 436 166 560 330 560 c 0xee
 425 560 492 526 546 450 c 1
 546 547 l 1
 620 547 l 1
 620 0 l 1
 573 -27 536 -71 536 -125 c 0
 536 -152 556 -176 583 -176 c 0
 600 -176 616 -174 633 -171 c 1
 633 -246 l 1
 617 -249 600 -250 583 -250 c 0
 515 -250 462 -193 462 -125 c 0
 462 -72 502 -31 546 0 c 1
 546 96 l 1
 488 18 428 -13 335 -13 c 0
 167 -13 42 109 42 272 c 0xde
117 277 m 0
 117 152 212 55 336 55 c 0
 454 55 546 152 546 276 c 0
 546 398 452 492 332 492 c 0
 213 492 117 396 117 277 c 0
EndSplineSet
Validated: 1
AlternateSubs2: "'aalt' Access All Alternates lookup 0 subtable" aogonek.sc
AlternateSubs2: "'aalt' Access All Alternates in Latin lookup 0 subtable" aogonek.sc
Ligature2: "ccmp_lig subtable" a ogonekcomb
Substitution2: "'smcp' Lowercase to Small Capitals in Latin lookup 2 subtable" aogonek.sc
EndChar

StartChar: Aogonek
Encoding: 165 260 154
Width: 740
VWidth: 0
GlyphClass: 3
Flags: W
TeX: 739 -250
HStem: -250 74<654.481 742> 0 21G<11 97.6747> 249 67<225 512> 719 20G<319.421 419.606>
VStem: 571 74<-167.62 -60.207>
AnchorPoint: "bot_acc" 657 -360 basechar 0
AnchorPoint: "dotbelow" 657 -360 basechar 0
AnchorPoint: "ogon_acc" 657 -360 basechar 0
AnchorPoint: "top_accu" 370 852 basechar 0
AnchorPoint: "dotabove" 370 852 basechar 0
LayerCount: 2
Fore
SplineSet
11 0 m 1
 328 739 l 1
 411 739 l 1
 729 0 l 1
 682 -27 645 -71 645 -125 c 0
 645 -152 665 -176 692 -176 c 0
 709 -176 725 -174 742 -171 c 1
 742 -246 l 1
 726 -249 709 -250 692 -250 c 0
 624 -250 571 -193 571 -125 c 0
 571 -98 581 -75 597 -54 c 0
 611 -34 629 -16 648 0 c 1
 541 249 l 1
 197 249 l 1
 89 0 l 1
 11 0 l 1
225 316 m 1
 512 316 l 1
 370 655 l 1
 225 316 l 1
EndSplineSet
Validated: 1
AlternateSubs2: "'aalt' Access All Alternates lookup 0 subtable" aogonek.sc
AlternateSubs2: "'aalt' Access All Alternates in Latin lookup 0 subtable" aogonek.sc
Ligature2: "ccmp_lig subtable" A ogonekcomb
Substitution2: "'c2sc' Capitals to Small Capitals in Latin lookup 13 subtable" aogonek.sc
Position2: "'cpsp' Capital Spacing in Latin lookup 13 subtable" dx=7 dy=0 dh=14 dv=0
EndChar

StartChar: Eogonek
Encoding: 202 280 155
Width: 536
VWidth: 0
GlyphClass: 3
Flags: W
TeX: 739 -250
HStem: -250 74<405.481 493> 0 67<150 406> 340 67<150 469> 672 67<150 480>
VStem: 76 74<67 340 407 672> 322 74<-167.62 -60.306>
AnchorPoint: "bot_acc" 408 -360 basechar 0
AnchorPoint: "dotbelow" 408 -360 basechar 0
AnchorPoint: "ogon_acc" 408 -360 basechar 0
AnchorPoint: "top_accu" 278 852 basechar 0
AnchorPoint: "dotabove" 278 852 basechar 0
LayerCount: 2
Fore
SplineSet
76 0 m 1
 76 739 l 1
 480 739 l 1
 480 672 l 1
 150 672 l 1
 150 407 l 1
 469 407 l 1
 469 340 l 1
 150 340 l 1
 150 67 l 1
 480 67 l 1
 480 0 l 1
 433 -27 396 -71 396 -125 c 0
 396 -152 416 -176 443 -176 c 0
 460 -176 476 -174 493 -171 c 1
 493 -246 l 1
 477 -249 460 -250 443 -250 c 0
 375 -250 322 -193 322 -125 c 0
 322 -72 362 -31 406 0 c 1
 76 0 l 1
EndSplineSet
Validated: 1
AlternateSubs2: "'aalt' Access All Alternates lookup 0 subtable" eogonek.sc
AlternateSubs2: "'aalt' Access All Alternates in Latin lookup 0 subtable" eogonek.sc
Ligature2: "ccmp_lig subtable" E ogonekcomb
Substitution2: "'c2sc' Capitals to Small Capitals in Latin lookup 13 subtable" eogonek.sc
Position2: "'cpsp' Capital Spacing in Latin lookup 13 subtable" dx=7 dy=0 dh=14 dv=0
EndChar

StartChar: eogonek
Encoding: 234 281 156
Width: 650
VWidth: 0
GlyphClass: 3
Flags: W
TeX: 547 -250
HStem: -250 74<355.481 443> -13 68<237.385 339> 249 67<118 537> 492 68<232.486 419.68>
VStem: 272 74<-167.62 -60.3337>
AnchorPoint: "bot_acc" 358 -360 basechar 0
AnchorPoint: "dotbelow" 358 -360 basechar 0
AnchorPoint: "ogon_acc" 358 -360 basechar 0
AnchorPoint: "top_accl" 326 670 basechar 0
AnchorPoint: "dotabove" 326 670 basechar 0
LayerCount: 2
Fore
SplineSet
42 276 m 0
 42 435 167 560 326 560 c 0
 488 560 611 443 611 249 c 1
 116 249 l 1
 122 141 217 55 329 55 c 0
 412 55 489 105 520 180 c 1
 597 180 l 1
 576 118 529 61 468 25 c 0
 407 -10 346 -56 346 -125 c 0
 346 -152 366 -176 393 -176 c 0
 410 -176 426 -174 443 -171 c 1
 443 -246 l 1
 427 -249 410 -250 393 -250 c 0
 325 -250 272 -193 272 -125 c 0
 272 -79 302 -42 339 -13 c 1
 331 -13 l 2
 169 -13 42 114 42 276 c 0
118 316 m 1
 537 316 l 1
 512 425 431 492 325 492 c 0
 221 492 138 421 118 316 c 1
EndSplineSet
Validated: 1
AlternateSubs2: "'aalt' Access All Alternates lookup 0 subtable" eogonek.sc
AlternateSubs2: "'aalt' Access All Alternates in Latin lookup 0 subtable" eogonek.sc
Ligature2: "ccmp_lig subtable" e ogonekcomb
Substitution2: "'smcp' Lowercase to Small Capitals in Latin lookup 2 subtable" eogonek.sc
EndChar

StartChar: Iogonek
Encoding: 222 302 157
Width: 226
VWidth: 0
GlyphClass: 3
Flags: W
TeX: 739 -250
HStem: -250 74<75.4815 163> 719 20G<76 150>
VStem: -8 74<-167.62 -60.306> 76 74<-13.6769 739>
AnchorPoint: "bot_acc" 78 -360 basechar 0
AnchorPoint: "dotbelow" 78 -360 basechar 0
AnchorPoint: "ogon_acc" 78 -360 basechar 0
AnchorPoint: "top_accu" 113 852 basechar 0
AnchorPoint: "dotabove" 113 852 basechar 0
LayerCount: 2
Fore
SplineSet
-8 -125 m 0
 -8 -72 32 -31 76 0 c 1
 76 739 l 1
 150 739 l 1
 150 0 l 1
 103 -27 66 -71 66 -125 c 0
 66 -152 86 -176 113 -176 c 0
 130 -176 146 -174 163 -171 c 1
 163 -246 l 1
 147 -249 130 -250 113 -250 c 0
 45 -250 -8 -193 -8 -125 c 0
EndSplineSet
Validated: 1
AlternateSubs2: "'aalt' Access All Alternates lookup 0 subtable" iogonek.sc
AlternateSubs2: "'aalt' Access All Alternates in Latin lookup 0 subtable" iogonek.sc
Ligature2: "ccmp_lig subtable" I ogonekcomb
Substitution2: "'c2sc' Capitals to Small Capitals in Latin lookup 13 subtable" iogonek.sc
Position2: "'cpsp' Capital Spacing in Latin lookup 13 subtable" dx=7 dy=0 dh=14 dv=0
EndChar

StartChar: dotlessiogonek
Encoding: 301 -1 158
Width: 200
VWidth: 0
GlyphClass: 3
Flags: W
TeX: 547 -192
HStem: -250 74<62.4815 150> 527 20G<63 137>
VStem: -21 74<-167.62 -60.306> 63 74<-13.6769 547>
AnchorPoint: "bot_acc" 65 -360 basechar 0
AnchorPoint: "dotbelow" 65 -360 basechar 0
AnchorPoint: "ogon_acc" 65 -360 basechar 0
AnchorPoint: "top_accl" 100 670 basechar 0
AnchorPoint: "dotabove" 100 670 basechar 0
LayerCount: 2
Fore
SplineSet
-21 -125 m 0
 -21 -72 19 -31 63 0 c 1
 63 547 l 1
 137 547 l 1
 137 0 l 1
 90 -27 53 -71 53 -125 c 0
 53 -152 73 -176 100 -176 c 0
 117 -176 133 -174 150 -171 c 1
 150 -246 l 1
 134 -249 117 -250 100 -250 c 0
 32 -250 -21 -193 -21 -125 c 0
EndSplineSet
Validated: 1
Ligature2: "ccmp_lig subtable" dotlessi ogonekcomb
EndChar

StartChar: Oogonek
Encoding: 302 490 159
Width: 869
VWidth: 0
GlyphClass: 3
Flags: W
TeX: 739 -250
HStem: -250 74<467.481 555> -13 68<327.585 443.041> 684 68<328.556 541.897>
VStem: 44 75<257.121 477.05> 384 74<-167.62 -59.2464> 750 75<258.595 479.37>
AnchorPoint: "bot_acc" 470 -360 basechar 0
AnchorPoint: "dotbelow" 470 -360 basechar 0
AnchorPoint: "ogon_acc" 470 -360 basechar 0
AnchorPoint: "top_accu" 435 852 basechar 0
AnchorPoint: "dotabove" 435 852 basechar 0
LayerCount: 2
Fore
SplineSet
44 374 m 0
 44 579 223 752 435 752 c 0
 649 752 825 580 825 369 c 0
 825 212 726 76 586 17 c 0
 520 -10 458 -56 458 -125 c 0
 458 -152 478 -176 505 -176 c 0
 521 -176 538 -174 555 -171 c 1
 555 -246 l 1
 538 -249 521 -250 505 -250 c 0
 437 -250 384 -193 384 -125 c 0
 384 -79 414 -42 450 -13 c 1
 435 -13 l 2
 218 -13 44 159 44 374 c 0
119 372 m 0
 119 197 261 55 435 55 c 0
 607 55 750 197 750 368 c 0
 750 541 607 684 435 684 c 0
 264 684 119 541 119 372 c 0
EndSplineSet
Validated: 1
AlternateSubs2: "'aalt' Access All Alternates lookup 0 subtable" oogonek.sc
AlternateSubs2: "'aalt' Access All Alternates in Latin lookup 0 subtable" oogonek.sc
Ligature2: "ccmp_lig subtable" O ogonekcomb
Substitution2: "'c2sc' Capitals to Small Capitals in Latin lookup 13 subtable" oogonek.sc
Position2: "'cpsp' Capital Spacing in Latin lookup 13 subtable" dx=7 dy=0 dh=14 dv=0
EndChar

StartChar: oogonek
Encoding: 303 491 160
Width: 655
VWidth: 0
GlyphClass: 3
Flags: W
TeX: 547 -250
HStem: -250 74<368.481 456> -13 68<237.861 352> 492 68<235.491 422.229>
VStem: 42 75<175.469 370.044> 285 74<-167.62 -60.0507> 538 75<169.679 368.206>
AnchorPoint: "bot_acc" 371 -360 basechar 0
AnchorPoint: "dotbelow" 371 -360 basechar 0
AnchorPoint: "ogon_acc" 371 -360 basechar 0
AnchorPoint: "top_accl" 328 670 basechar 0
AnchorPoint: "dotabove" 328 670 basechar 0
LayerCount: 2
Fore
SplineSet
42 277 m 0
 42 437 167 560 329 560 c 0
 493 560 613 439 613 272 c 0
 613 165 563 77 484 28 c 0
 423 -10 359 -55 359 -125 c 0
 359 -152 379 -176 406 -176 c 0
 422 -176 439 -174 456 -171 c 1
 456 -246 l 1
 439 -249 422 -250 406 -250 c 0
 338 -250 285 -193 285 -125 c 0
 285 -79 315 -42 352 -13 c 1
 335 -13 l 2
 165 -13 42 109 42 277 c 0
117 275 m 0
 117 147 207 55 333 55 c 0
 452 55 538 146 538 271 c 0
 538 398 449 492 329 492 c 0
 208 492 117 399 117 275 c 0
EndSplineSet
Validated: 1
AlternateSubs2: "'aalt' Access All Alternates lookup 0 subtable" oogonek.sc
AlternateSubs2: "'aalt' Access All Alternates in Latin lookup 0 subtable" oogonek.sc
Ligature2: "ccmp_lig subtable" o ogonekcomb
Substitution2: "'smcp' Lowercase to Small Capitals in Latin lookup 2 subtable" oogonek.sc
EndChar

StartChar: Uogonek
Encoding: 168 370 161
Width: 655
VWidth: 0
GlyphClass: 3
Flags: W
TeX: 739 -250
HStem: -250 74<355.481 443> -13 68<236.542 338> 719 20G<76 150 505 579>
VStem: 76 74<154.694 739> 272 74<-167.62 -59.3813> 505 74<151.766 739>
AnchorPoint: "bot_acc" 358 -360 basechar 0
AnchorPoint: "dotbelow" 358 -360 basechar 0
AnchorPoint: "ogon_acc" 358 -360 basechar 0
AnchorPoint: "top_accu" 328 852 basechar 0
AnchorPoint: "dotabove" 328 852 basechar 0
LayerCount: 2
Fore
SplineSet
76 278 m 2
 76 739 l 1
 150 739 l 1
 150 278 l 2
 150 127 212 55 328 55 c 0
 442 55 505 127 505 278 c 2
 505 739 l 1
 579 739 l 1
 579 278 l 2
 579 137 529 51 448 12 c 0
 391 -15 346 -64 346 -125 c 0
 346 -152 366 -176 393 -176 c 0
 409 -176 426 -174 443 -171 c 1
 443 -246 l 1
 426 -249 409 -250 393 -250 c 0
 325 -250 272 -193 272 -125 c 0
 272 -79 302 -42 338 -13 c 1
 327 -13 l 2
 178 -13 76 77 76 278 c 2
EndSplineSet
Validated: 1
AlternateSubs2: "'aalt' Access All Alternates lookup 0 subtable" uogonek.sc
AlternateSubs2: "'aalt' Access All Alternates in Latin lookup 0 subtable" uogonek.sc
Ligature2: "ccmp_lig subtable" U ogonekcomb
Substitution2: "'c2sc' Capitals to Small Capitals in Latin lookup 13 subtable" uogonek.sc
Position2: "'cpsp' Capital Spacing in Latin lookup 13 subtable" dx=7 dy=0 dh=14 dv=0
EndChar

StartChar: uogonek
Encoding: 184 371 162
Width: 608
VWidth: 0
GlyphClass: 3
Flags: W
TeX: 547 -250
HStem: -250 74<470.481 558> -13 68<209.993 389.134> 527 20G<63 137 471 545>
VStem: 63 74<136.436 547> 387 74<-167.62 -60.306> 471 74<-13.6769 85 146.546 547>
AnchorPoint: "bot_acc" 473 -360 basechar 0
AnchorPoint: "dotbelow" 473 -360 basechar 0
AnchorPoint: "ogon_acc" 473 -360 basechar 0
AnchorPoint: "top_accl" 304 670 basechar 0
AnchorPoint: "dotabove" 304 670 basechar 0
LayerCount: 2
Fore
SplineSet
63 252 m 2
 63 547 l 1
 137 547 l 1
 137 252 l 2
 137 113 195 55 301 55 c 0
 401 55 471 117 471 266 c 2
 471 547 l 1
 545 547 l 1
 545 0 l 1
 498 -27 461 -71 461 -125 c 0
 461 -152 481 -176 508 -176 c 0
 525 -176 541 -174 558 -171 c 1
 558 -246 l 1
 542 -249 525 -250 508 -250 c 0
 440 -250 387 -193 387 -125 c 0
 387 -72 427 -31 471 0 c 1
 471 85 l 1
 434 17 380 -13 295 -13 c 0
 156 -13 63 61 63 252 c 2
EndSplineSet
Validated: 1
AlternateSubs2: "'aalt' Access All Alternates lookup 0 subtable" uogonek.sc
AlternateSubs2: "'aalt' Access All Alternates in Latin lookup 0 subtable" uogonek.sc
Ligature2: "ccmp_lig subtable" u ogonekcomb
Substitution2: "'smcp' Lowercase to Small Capitals in Latin lookup 2 subtable" uogonek.sc
EndChar

StartChar: Ccedilla
Encoding: 199 199 163
Width: 813
VWidth: 0
GlyphClass: 3
Flags: W
TeX: 739 -250
HStem: -249 56<411.77 490.463> -97 56<444.686 489.366> 547 21G<652.5 767> 684 68<316.685 548.694>
VStem: 44 75<255.313 485.81> 349 57<-186.672 -160> 499 56<-185.428 -104.696>
AnchorPoint: "bot_acc" 416 -359 basechar 0
AnchorPoint: "dotbelow" 416 -359 basechar 0
AnchorPoint: "ogon_acc" 416 -359 basechar 0
AnchorPoint: "top_accu" 407 852 basechar 0
AnchorPoint: "dotabove" 407 852 basechar 0
LayerCount: 2
Fore
SplineSet
44 367 m 0
 44 588 207 752 427 752 c 0
 580 752 710 674 767 547 c 1
 684 547 l 1
 621 646 534 684 430 684 c 0
 254 684 119 548 119 370 c 0
 119 197 260 55 431 55 c 0
 539 55 610 96 688 194 c 1
 770 194 l 1
 701 66 597 -4 461 -12 c 1
 444 -41 l 2
 447 -41 449 -41 451 -41 c 0
 509 -41 555 -88 555 -145 c 0
 555 -202 509 -249 451 -249 c 0
 399 -249 356 -210 349 -160 c 1
 406 -160 l 1
 412 -179 430 -193 451 -193 c 0
 478 -193 499 -172 499 -145 c 0
 499 -119 478 -97 451 -97 c 0
 434 -97 418 -107 410 -121 c 1
 362 -94 l 1
 409 -12 l 1
 200 -1 44 159 44 367 c 0
EndSplineSet
Validated: 1
AlternateSubs2: "'aalt' Access All Alternates lookup 0 subtable" ccedilla.sc
AlternateSubs2: "'aalt' Access All Alternates in Latin lookup 0 subtable" ccedilla.sc
Ligature2: "ccmp_lig subtable" C cedillacmb
Substitution2: "'c2sc' Capitals to Small Capitals in Latin lookup 13 subtable" ccedilla.sc
Position2: "'cpsp' Capital Spacing in Latin lookup 13 subtable" dx=7 dy=0 dh=14 dv=0
EndChar

StartChar: ccedilla
Encoding: 231 231 164
Width: 647
VWidth: 0
GlyphClass: 3
Flags: W
TeX: 547 -250
HStem: -249 56<321.77 400.463> -97 56<354.686 399.366> 492 68<239.583 429.876>
VStem: 42 75<178.335 367.933> 259 57<-186.672 -160> 409 56<-185.428 -104.696>
AnchorPoint: "bot_acc" 326 -359 basechar 0
AnchorPoint: "dotbelow" 326 -359 basechar 0
AnchorPoint: "ogon_acc" 326 -359 basechar 0
AnchorPoint: "top_accl" 325 670 basechar 0
AnchorPoint: "dotabove" 325 670 basechar 0
LayerCount: 2
Fore
SplineSet
42 275 m 0
 42 434 171 560 335 560 c 0
 458 560 563 491 607 381 c 1
 524 381 l 1
 482 453 415 492 334 492 c 0
 212 492 117 396 117 273 c 0
 117 152 214 55 337 55 c 0
 414 55 467 85 524 161 c 1
 608 161 l 1
 548 48 470 -3 371 -12 c 1
 354 -41 l 2
 357 -41 359 -41 361 -41 c 0
 419 -41 465 -88 465 -145 c 0
 465 -202 419 -249 361 -249 c 0
 309 -249 266 -210 259 -160 c 1
 316 -160 l 1
 322 -179 340 -193 361 -193 c 0
 388 -193 409 -172 409 -145 c 0
 409 -119 388 -97 361 -97 c 0
 344 -97 328 -107 320 -121 c 1
 272 -94 l 1
 319 -12 l 1
 161 -2 42 119 42 275 c 0
EndSplineSet
Validated: 1
AlternateSubs2: "'aalt' Access All Alternates lookup 0 subtable" ccedilla.sc
AlternateSubs2: "'aalt' Access All Alternates in Latin lookup 0 subtable" ccedilla.sc
Ligature2: "ccmp_lig subtable" c cedillacmb
Substitution2: "'smcp' Lowercase to Small Capitals in Latin lookup 2 subtable" ccedilla.sc
EndChar

StartChar: Scedilla
Encoding: 304 350 165
Width: 498
VWidth: 0
GlyphClass: 3
Flags: W
TeX: 739 -250
HStem: -249 56<231.77 310.463> -97 56<264.686 309.366> 552 21G<381 458> 684 68<177.089 324.286>
VStem: 22 79<136.18 207> 46 75<484.167 628.202> 169 57<-186.672 -160> 319 56<-185.428 -104.696> 381 77<552 624.589> 401 75<124.462 279.763>
AnchorPoint: "bot_acc" 236 -359 basechar 0
AnchorPoint: "dotbelow" 236 -359 basechar 0
AnchorPoint: "ogon_acc" 236 -359 basechar 0
AnchorPoint: "top_accu" 249 852 basechar 0
AnchorPoint: "dotabove" 249 852 basechar 0
LayerCount: 2
Fore
SplineSet
22 207 m 1xfb40
 101 207 l 1
 112 108 172 55 255 55 c 0
 339 55 401 117 401 202 c 0xfb40
 401 283 363 318 236 357 c 0
 150 383 127 394 98 422 c 0
 65 453 46 502 46 553 c 0
 46 668 132 752 251 752 c 0
 372 752 458 672 458 552 c 1
 381 552 l 1
 381 632 324 684 249 684 c 0
 175 684 121 629 121 555 c 0xf780
 121 521 135 487 156 469 c 0
 175 452 198 443 265 423 c 0
 341 400 372 386 402 364 c 0
 449 329 476 271 476 206 c 0
 476 90 395 1 281 -11 c 1
 264 -41 l 2
 267 -41 269 -41 271 -41 c 0
 329 -41 375 -88 375 -145 c 0
 375 -202 329 -249 271 -249 c 0
 219 -249 176 -210 169 -160 c 1
 226 -160 l 1
 232 -179 250 -193 271 -193 c 0
 298 -193 319 -172 319 -145 c 0
 319 -119 298 -97 271 -97 c 0
 254 -97 238 -107 230 -121 c 1
 182 -94 l 1
 229 -12 l 1
 109 -2 29 82 22 207 c 1xfb40
EndSplineSet
Validated: 1
AlternateSubs2: "'aalt' Access All Alternates lookup 0 subtable" scedilla.sc
AlternateSubs2: "'aalt' Access All Alternates in Latin lookup 0 subtable" scedilla.sc uni0218
Ligature2: "ccmp_lig subtable" S cedillacmb
Substitution2: "'c2sc' Capitals to Small Capitals in Latin lookup 13 subtable" scedilla.sc
Position2: "'cpsp' Capital Spacing in Latin lookup 13 subtable" dx=7 dy=0 dh=14 dv=0
Substitution2: "locl_ROM subtable" uni0218
EndChar

StartChar: scedilla
Encoding: 305 351 166
Width: 388
VWidth: 0
GlyphClass: 3
Flags: W
TeX: 547 -250
HStem: -249 56<176.77 255.463> -97 56<209.686 254.366> 492 68<137.849 250.989>
VStem: 18 73<93.3281 161> 38 75<360.996 467.629> 114 57<-186.672 -160> 264 56<-185.428 -104.696> 272 75<412 468.849> 286 75<87.8154 209.134>
AnchorPoint: "bot_acc" 181 -359 basechar 0
AnchorPoint: "dotbelow" 181 -359 basechar 0
AnchorPoint: "ogon_acc" 181 -359 basechar 0
AnchorPoint: "top_accl" 190 670 basechar 0
AnchorPoint: "dotabove" 190 670 basechar 0
LayerCount: 2
Fore
SplineSet
18 161 m 1xf6
 91 161 l 1
 91 94 133 55 194 55 c 0
 247 55 286 95 286 150 c 0xf480
 286 205 259 223 180 255 c 0
 103 286 101 287 79 308 c 0
 52 333 38 367 38 406 c 0
 38 495 104 560 193 560 c 0
 281 560 347 500 347 412 c 1
 272 412 l 1xed
 272 464 240 492 192 492 c 0
 148 492 113 457 113 413 c 0
 113 381 129 358 163 341 c 0
 179 333 183 331 266 297 c 0
 330 270 361 224 361 157 c 0xec80
 361 69 307 4 227 -10 c 1
 209 -41 l 2
 212 -41 214 -41 216 -41 c 0
 274 -41 320 -88 320 -145 c 0
 320 -202 274 -249 216 -249 c 0
 164 -249 121 -210 114 -160 c 1
 171 -160 l 1
 177 -179 195 -193 216 -193 c 0
 243 -193 264 -172 264 -145 c 0
 264 -119 243 -97 216 -97 c 0
 199 -97 183 -107 175 -121 c 1
 127 -94 l 1
 174 -12 l 1
 80 -4 18 62 18 161 c 1xf6
EndSplineSet
Validated: 1
AlternateSubs2: "'aalt' Access All Alternates lookup 0 subtable" scedilla.sc
AlternateSubs2: "'aalt' Access All Alternates in Latin lookup 0 subtable" scedilla.sc uni0219
Ligature2: "ccmp_lig subtable" s cedillacmb
Substitution2: "'smcp' Lowercase to Small Capitals in Latin lookup 2 subtable" scedilla.sc
Substitution2: "locl_ROM subtable" uni0219
EndChar

StartChar: Tcedilla
Encoding: 306 354 167
Width: 426
VWidth: 0
GlyphClass: 3
Flags: W
TeX: 739 -250
HStem: -249 56<181.77 260.463> -97 56<214.686 259.366> 672 67<7 176 250 419>
VStem: 119 57<-186.672 -160> 176 74<0 672> 269 56<-185.428 -104.696>
AnchorPoint: "bot_acc" 186 -359 basechar 0
AnchorPoint: "dotbelow" 186 -359 basechar 0
AnchorPoint: "ogon_acc" 186 -359 basechar 0
AnchorPoint: "top_accu" 213 852 basechar 0
AnchorPoint: "dotabove" 213 852 basechar 0
LayerCount: 2
Fore
SplineSet
7 672 m 1xec
 7 739 l 1
 419 739 l 1
 419 672 l 1
 250 672 l 1
 250 0 l 1xec
 238 0 l 1
 214 -41 l 2
 217 -41 219 -41 221 -41 c 0
 279 -41 325 -88 325 -145 c 0
 325 -202 279 -249 221 -249 c 0
 169 -249 126 -210 119 -160 c 1
 176 -160 l 1xf4
 182 -179 200 -193 221 -193 c 0
 248 -193 269 -172 269 -145 c 0
 269 -119 248 -97 221 -97 c 0
 204 -97 188 -107 180 -121 c 1
 132 -94 l 1
 186 0 l 1
 176 0 l 1
 176 672 l 1
 7 672 l 1xec
EndSplineSet
Validated: 1
AlternateSubs2: "'aalt' Access All Alternates lookup 0 subtable" tcedilla.sc
AlternateSubs2: "'aalt' Access All Alternates in Latin lookup 0 subtable" tcedilla.sc uni021A
Ligature2: "ccmp_lig subtable" T cedillacmb
Substitution2: "'c2sc' Capitals to Small Capitals in Latin lookup 13 subtable" tcedilla.sc
Position2: "'cpsp' Capital Spacing in Latin lookup 13 subtable" dx=7 dy=0 dh=14 dv=0
Substitution2: "locl_ROM subtable" uni021A
EndChar

StartChar: tcedilla
Encoding: 307 355 168
Width: 339
VWidth: 0
GlyphClass: 3
Flags: W
TeX: 739 -250
HStem: -249 56<136.77 215.463> -97 56<169.686 214.366> 480 67<12 130 204 327> 719 20G<130 204>
VStem: 74 57<-186.672 -160> 130 74<0 480 547 739> 224 56<-185.428 -104.696>
AnchorPoint: "bot_acc" 141 -359 basechar 0
AnchorPoint: "dotbelow" 141 -359 basechar 0
AnchorPoint: "ogon_acc" 141 -359 basechar 0
AnchorPoint: "top_accl" 167 862 basechar 0
AnchorPoint: "dotabove" 167 862 basechar 0
AnchorPoint: "ccmped" 343 699 basechar 0
LayerCount: 2
Fore
SplineSet
12 480 m 1xf6
 12 547 l 1
 130 547 l 1
 130 739 l 1
 204 739 l 1
 204 547 l 1
 327 547 l 1
 327 480 l 1
 204 480 l 1
 204 0 l 1xf6
 193 0 l 1
 169 -41 l 2
 172 -41 174 -41 176 -41 c 0
 234 -41 280 -88 280 -145 c 0
 280 -202 234 -249 176 -249 c 0
 124 -249 81 -210 74 -160 c 1
 131 -160 l 1xfa
 137 -179 155 -193 176 -193 c 0
 203 -193 224 -172 224 -145 c 0
 224 -119 203 -97 176 -97 c 0
 159 -97 143 -107 135 -121 c 1
 87 -94 l 1
 141 0 l 1
 130 0 l 1
 130 480 l 1
 12 480 l 1xf6
EndSplineSet
Validated: 1
AlternateSubs2: "'aalt' Access All Alternates lookup 0 subtable" tcedilla.sc
AlternateSubs2: "'aalt' Access All Alternates in Latin lookup 0 subtable" tcedilla.sc uni021B
Ligature2: "ccmp_lig subtable" t cedillacmb
Substitution2: "'smcp' Lowercase to Small Capitals in Latin lookup 2 subtable" tcedilla.sc
Substitution2: "locl_ROM subtable" uni021B
EndChar

StartChar: dcroat
Encoding: 308 273 169
Width: 685
VWidth: 0
Flags: W
TeX: 739 -13
HStem: -13 68<241.59 428.981> 0 21G<548 622> 492 68<237.939 425.371> 602 63<396 548 622 685> 719 20G<548 622>
VStem: 42 75<179.272 368.556> 548 74<0 99 175.506 373.857 460 602 665 739>
LayerCount: 2
Fore
SplineSet
42 273 m 0xbe
 42 436 168 560 333 560 c 0
 419 560 494 525 548 460 c 1
 548 602 l 1
 396 602 l 1
 396 665 l 1
 548 665 l 1
 548 739 l 1
 622 739 l 1
 622 665 l 1
 685 665 l 1
 685 602 l 1
 622 602 l 1
 622 0 l 1
 548 0 l 1x7e
 548 99 l 1
 493 20 431 -13 340 -13 c 0
 171 -13 42 111 42 273 c 0xbe
117 277 m 0
 117 150 212 55 338 55 c 0xbe
 455 55 551 155 551 275 c 0
 551 395 452 492 331 492 c 0
 212 492 117 396 117 277 c 0
EndSplineSet
Validated: 1
AlternateSubs2: "'aalt' Access All Alternates lookup 0 subtable" dcroat.sc
AlternateSubs2: "'aalt' Access All Alternates in Latin lookup 0 subtable" dcroat.sc
Substitution2: "'smcp' Lowercase to Small Capitals in Latin lookup 2 subtable" dcroat.sc
EndChar

StartChar: uni203D
Encoding: 309 8253 170
Width: 591
VWidth: 0
Flags: W
TeX: 839 0
HStem: 0 126<261 335> 681 68<206.309 261 335 384.842>
VStem: 65 70<508 598.437> 261 74<0 126 193 278.585 365 681 745.579 839> 451 74<465.166 615.544>
LayerCount: 2
Fore
SplineSet
65 508 m 1
 69 653 149 735 261 749 c 1
 261 839 l 1
 335 839 l 1
 335 749 l 1
 447 734 525 649 525 535 c 0
 525 471 501 424 435 365 c 0
 371 308 342 269 335 219 c 1
 335 193 l 1
 261 193 l 1
 261 681 l 1
 188 668 143 612 135 508 c 1
 65 508 l 1
261 0 m 1
 261 126 l 1
 335 126 l 1
 335 0 l 1
 261 0 l 1
335 365 m 1
 344 375 355 386 367 397 c 0
 435 460 451 488 451 537 c 0
 451 611 404 667 335 681 c 1
 335 365 l 1
EndSplineSet
Validated: 1
EndChar

StartChar: paragraph.alt
Encoding: 310 -1 171
Width: 373
VWidth: 0
Flags: W
TeX: 739 -133
HStem: 719 20G<185 302>
VStem: 37 265<458.565 641.81> 227 75<-133 357.97>
LayerCount: 2
Fore
SplineSet
37 549 m 0xc0
 37 659 110 739 260 739 c 2
 302 739 l 1
 302 -133 l 1
 227 -133 l 1
 227 355 l 1xa0
 109 367 37 441 37 549 c 0xc0
EndSplineSet
Validated: 1
EndChar

StartChar: zero.taboldstyle
Encoding: 311 -1 172
Width: 554
VWidth: 0
Flags: W
TeX: 560 -13
HStem: -13 67<171.222 389.596> 493 67<168.32 382.205>
VStem: 30 73<129.593 420.897> 452 73<121.529 422.499>
LayerCount: 2
Fore
SplineSet
30 239 m 2
 30 317 l 2
 30 502 126 560 277 560 c 0
 422 560 525 506 525 317 c 2
 525 239 l 2
 525 39 434 -13 283 -13 c 0
 128 -13 30 43 30 239 c 2
103 251 m 2
 103 78 173 54 280 54 c 0
 397 54 452 87 452 251 c 2
 452 300 l 2
 452 432 413 493 278 493 c 0
 168 493 103 465 103 300 c 2
 103 251 l 2
EndSplineSet
Validated: 1
AlternateSubs2: "'aalt' Access All Alternates lookup 0 subtable" zero.oldstyle zero
AlternateSubs2: "'aalt' Access All Alternates in Latin lookup 0 subtable" zero.oldstyle zero
Substitution2: "'pnum' Proportional Numbers in Latin lookup 5 subtable" zero.oldstyle
Substitution2: "'lnum' Lining Figures in Latin lookup 4 subtable" zero
EndChar

StartChar: one.taboldstyle
Encoding: 312 -1 173
Width: 554
VWidth: 0
Flags: W
TeX: 547 0
HStem: 0 21G<281 354> 480 67<155 281>
VStem: 281 73<0 480>
LayerCount: 2
Fore
SplineSet
155 480 m 1
 155 547 l 1
 354 547 l 1
 354 0 l 1
 281 0 l 1
 281 480 l 1
 155 480 l 1
EndSplineSet
Validated: 1
AlternateSubs2: "'aalt' Access All Alternates lookup 0 subtable" one.oldstyle one
AlternateSubs2: "'aalt' Access All Alternates in Latin lookup 0 subtable" one.oldstyle one
Substitution2: "'pnum' Proportional Numbers in Latin lookup 5 subtable" one.oldstyle
Substitution2: "'lnum' Lining Figures in Latin lookup 4 subtable" one
EndChar

StartChar: two.taboldstyle
Encoding: 313 -1 174
Width: 554
VWidth: 0
Flags: W
TeX: 562 0
HStem: 0 67<153 502> 495 67<174.545 377.681>
VStem: 39 73<336 432.133> 432 74<305.749 447.285>
LayerCount: 2
Fore
SplineSet
33 0 m 1
 33 67 l 1
 292 221 l 2
 379 273 432 295 432 377 c 0
 432 466 365 495 272 495 c 0
 175 495 112 457 112 336 c 1
 39 336 l 1
 39 493 131 562 273 562 c 0
 408 562 506 503 506 373 c 0
 506 294 481 256 370 194 c 2
 153 67 l 1
 502 67 l 1
 502 0 l 1
 33 0 l 1
EndSplineSet
Validated: 1
AlternateSubs2: "'aalt' Access All Alternates lookup 0 subtable" two.oldstyle two
AlternateSubs2: "'aalt' Access All Alternates in Latin lookup 0 subtable" two.oldstyle two
Substitution2: "'pnum' Proportional Numbers in Latin lookup 5 subtable" two.oldstyle
Substitution2: "'lnum' Lining Figures in Latin lookup 4 subtable" two
EndChar

StartChar: four.taboldstyle
Encoding: 314 -1 175
Width: 554
VWidth: 0
Flags: W
TeX: 547 -135
HStem: 0 67<97 386 459 527> 527 20G<357 459>
VStem: 386 73<-135 0 67 445>
LayerCount: 2
Fore
SplineSet
12 0 m 1
 12 67 l 1
 372 547 l 1
 459 547 l 1
 459 67 l 1
 527 67 l 1
 527 0 l 1
 459 0 l 1
 459 -135 l 1
 386 -135 l 1
 386 0 l 1
 12 0 l 1
97 67 m 1
 386 67 l 1
 386 445 l 1
 97 67 l 1
EndSplineSet
Validated: 1
AlternateSubs2: "'aalt' Access All Alternates lookup 0 subtable" four.oldstyle four
AlternateSubs2: "'aalt' Access All Alternates in Latin lookup 0 subtable" four.oldstyle four
Substitution2: "'pnum' Proportional Numbers in Latin lookup 5 subtable" four.oldstyle
Substitution2: "'lnum' Lining Figures in Latin lookup 4 subtable" four
EndChar

StartChar: three.taboldstyle
Encoding: 315 -1 176
Width: 554
VWidth: 0
Flags: W
TeX: 560 -205
HStem: -205 67<183.363 348.75> 196 66<219 334.776> 493 67<200.341 336.629>
VStem: 33 73<-56.9985 39> 82 73<363 444.828> 381 74<306.188 448.256> 430 74<-55.7149 110.372>
LayerCount: 2
Fore
SplineSet
33 39 m 1xf2
 106 39 l 1
 106 -85 183 -138 270 -138 c 0
 360 -138 430 -66 430 28 c 0xf2
 430 105 379 173 305 190 c 0
 285 194 268 195 219 196 c 1
 219 262 l 1
 236 261 l 2
 245 260 252 260 255 260 c 0
 332 260 381 306 381 376 c 0
 381 445 335 493 269 493 c 0
 197 493 155 445 155 363 c 1
 82 363 l 1
 82 484 158 560 269 560 c 0
 378 560 455 483 455 373 c 0xec
 455 312 431 267 379 231 c 1
 462 189 504 121 504 32 c 0
 504 -101 402 -205 272 -205 c 0
 138 -205 33 -112 33 39 c 1xf2
EndSplineSet
Validated: 1
AlternateSubs2: "'aalt' Access All Alternates lookup 0 subtable" three.oldstyle three
AlternateSubs2: "'aalt' Access All Alternates in Latin lookup 0 subtable" three.oldstyle three
Substitution2: "'pnum' Proportional Numbers in Latin lookup 5 subtable" three.oldstyle
Substitution2: "'lnum' Lining Figures in Latin lookup 4 subtable" three
EndChar

StartChar: five.taboldstyle
Encoding: 316 -1 177
Width: 554
VWidth: 0
Flags: W
TeX: 547 -205
HStem: -205 67<197.271 359.228> 244 67<193.909 357.711> 480 67<192 466>
VStem: 26 72<-32.1094 40> 454 74<-37.1125 144.558>
LayerCount: 2
Fore
SplineSet
26 40 m 1
 98 40 l 1
 111 -65 184 -138 277 -138 c 0
 376 -138 454 -54 454 54 c 0
 454 162 377 244 277 244 c 0
 219 244 169 217 124 161 c 1
 67 183 l 1
 133 547 l 1
 466 547 l 1
 466 480 l 1
 192 480 l 1
 156 276 l 1
 201 301 239 311 283 311 c 0
 421 311 528 198 528 54 c 0
 528 -91 419 -205 280 -205 c 0
 146 -205 48 -114 26 40 c 1
EndSplineSet
Validated: 1
AlternateSubs2: "'aalt' Access All Alternates lookup 0 subtable" five.oldstyle five
AlternateSubs2: "'aalt' Access All Alternates in Latin lookup 0 subtable" five.oldstyle five
Substitution2: "'pnum' Proportional Numbers in Latin lookup 5 subtable" five.oldstyle
Substitution2: "'lnum' Lining Figures in Latin lookup 4 subtable" five
EndChar

StartChar: six.taboldstyle
Encoding: 317 -1 178
Width: 554
VWidth: 0
Flags: W
TeX: 739 -13
HStem: -13 67<196.018 361.977> 436 67<207.981 364.513> 719 20G<282.544 381>
VStem: 25 74<153.491 339.279> 455 74<151.308 337.916>
LayerCount: 2
Fore
SplineSet
25 244 m 0
 25 316 42 362 113 467 c 2
 296 739 l 1
 381 739 l 1
 207 482 l 1
 240 497 263 503 294 503 c 0
 425 503 529 391 529 249 c 0
 529 98 424 -13 280 -13 c 0
 134 -13 25 97 25 244 c 0
99 248 m 0
 99 136 176 54 280 54 c 0
 381 54 455 135 455 246 c 0
 455 356 381 436 278 436 c 0
 177 436 99 354 99 248 c 0
EndSplineSet
Validated: 1
AlternateSubs2: "'aalt' Access All Alternates lookup 0 subtable" six.oldstyle six
AlternateSubs2: "'aalt' Access All Alternates in Latin lookup 0 subtable" six.oldstyle six
Substitution2: "'pnum' Proportional Numbers in Latin lookup 5 subtable" six.oldstyle
Substitution2: "'lnum' Lining Figures in Latin lookup 4 subtable" six
EndChar

StartChar: seven.taboldstyle
Encoding: 318 -1 179
Width: 554
VWidth: 0
Flags: W
TeX: 547 -192
HStem: -192 21G<110 196.988> 480 67<64 414>
LayerCount: 2
Fore
SplineSet
64 480 m 1
 64 547 l 1
 490 547 l 1
 490 480 l 1
 188 -192 l 1
 110 -192 l 1
 414 480 l 1
 64 480 l 1
EndSplineSet
Validated: 1
AlternateSubs2: "'aalt' Access All Alternates lookup 0 subtable" seven.oldstyle seven
AlternateSubs2: "'aalt' Access All Alternates in Latin lookup 0 subtable" seven.oldstyle seven
Substitution2: "'pnum' Proportional Numbers in Latin lookup 5 subtable" seven.oldstyle
Substitution2: "'lnum' Lining Figures in Latin lookup 4 subtable" seven
EndChar

StartChar: eight.taboldstyle
Encoding: 319 -1 180
Width: 554
VWidth: 0
Flags: W
TeX: 739 -13
HStem: -13 67<195.776 361.485> 375 69<208.955 349.387> 685 67<204.623 348.186>
VStem: 42 74<133.939 298.503> 81 74<497.005 636.902> 399 74<494.33 634.698> 438 74<130.318 298.64>
LayerCount: 2
Fore
SplineSet
42 215 m 0xf2
 42 304 86 374 167 413 c 1
 107 449 81 495 81 561 c 0
 81 670 166 752 278 752 c 0
 391 752 473 672 473 561 c 0xec
 473 488 445 441 385 413 c 1
 467 377 512 309 512 218 c 0
 512 84 415 -13 280 -13 c 0
 144 -13 42 85 42 215 c 0xf2
116 216 m 0xf2
 116 121 183 54 279 54 c 0
 372 54 438 122 438 216 c 0
 438 309 371 375 278 375 c 0
 183 375 116 309 116 216 c 0xf2
155 567 m 0xec
 155 496 208 444 281 444 c 0
 348 444 399 496 399 565 c 0
 399 635 348 685 277 685 c 0
 206 685 155 636 155 567 c 0xec
EndSplineSet
Validated: 1
AlternateSubs2: "'aalt' Access All Alternates lookup 0 subtable" eight.oldstyle eight
AlternateSubs2: "'aalt' Access All Alternates in Latin lookup 0 subtable" eight.oldstyle eight
Substitution2: "'pnum' Proportional Numbers in Latin lookup 5 subtable" eight.oldstyle
Substitution2: "'lnum' Lining Figures in Latin lookup 4 subtable" eight
EndChar

StartChar: nine.taboldstyle
Encoding: 320 -1 181
Width: 554
VWidth: 0
Flags: W
TeX: 560 -192
HStem: -192 21G<173 271.456> 44 67<189.487 346.019> 493 67<190.144 357.982>
VStem: 25 74<209.084 395.913> 455 74<208.907 393.509>
LayerCount: 2
Fore
SplineSet
25 298 m 0
 25 449 130 560 274 560 c 0
 420 560 529 450 529 303 c 0
 529 230 511 184 441 80 c 2
 258 -192 l 1
 173 -192 l 1
 347 65 l 1
 314 50 291 44 260 44 c 0
 129 44 25 156 25 298 c 0
99 301 m 0
 99 191 173 111 276 111 c 0
 377 111 455 193 455 299 c 0
 455 411 378 493 274 493 c 0
 173 493 99 413 99 301 c 0
EndSplineSet
Validated: 1
AlternateSubs2: "'aalt' Access All Alternates lookup 0 subtable" nine.oldstyle nine
AlternateSubs2: "'aalt' Access All Alternates in Latin lookup 0 subtable" nine.oldstyle nine
Substitution2: "'pnum' Proportional Numbers in Latin lookup 5 subtable" nine.oldstyle
Substitution2: "'lnum' Lining Figures in Latin lookup 4 subtable" nine
EndChar

StartChar: Eng
Encoding: 321 330 182
Width: 740
VWidth: 0
Flags: W
TeX: 739 -251
HStem: -251 68<394.373 528.271> 0 21G<76 150> 719 20G<76 189.507 590 664>
VStem: 76 74<0 650> 269 73<-127.887 -62> 590 74<-113.469 0 126 739>
LayerCount: 2
Fore
SplineSet
76 0 m 1
 76 739 l 1
 176 739 l 1
 590 126 l 1
 590 739 l 1
 664 739 l 1
 664 -6 l 2
 664 -170 593 -251 467 -251 c 0
 349 -251 275 -180 269 -62 c 1
 342 -62 l 1
 347 -137 395 -183 468 -183 c 0
 543 -183 590 -106 590 -25 c 2
 590 0 l 1
 150 650 l 1
 150 0 l 1
 76 0 l 1
EndSplineSet
Validated: 1
AlternateSubs2: "'aalt' Access All Alternates lookup 0 subtable" eng.sc
AlternateSubs2: "'aalt' Access All Alternates in Latin lookup 0 subtable" eng.sc
Substitution2: "'c2sc' Capitals to Small Capitals in Latin lookup 13 subtable" eng.sc
Position2: "'cpsp' Capital Spacing in Latin lookup 13 subtable" dx=7 dy=0 dh=14 dv=0
EndChar

StartChar: eng
Encoding: 322 331 183
Width: 610
VWidth: 0
Flags: W
TeX: 560 -192
HStem: -192 71<362 429.781> 0 21G<63 137> 492 68<214.824 393.046> 527 20G<63 137>
VStem: 63 74<0 408.742 476 547> 473 74<-74.3629 404.094>
LayerCount: 2
Fore
SplineSet
63 0 m 1xec
 63 547 l 1
 137 547 l 1xdc
 137 476 l 1
 183 532 241 560 313 560 c 0
 450 560 547 479 547 287 c 2
 547 38 l 2
 547 -120 486 -187 362 -192 c 1
 362 -121 l 1
 445 -116 473 -76 473 38 c 2
 473 287 l 2
 473 436 405 492 304 492 c 0
 205 492 137 435 137 301 c 2
 137 0 l 1
 63 0 l 1xec
EndSplineSet
Validated: 1
AlternateSubs2: "'aalt' Access All Alternates lookup 0 subtable" eng.sc
AlternateSubs2: "'aalt' Access All Alternates in Latin lookup 0 subtable" eng.sc
Substitution2: "'smcp' Lowercase to Small Capitals in Latin lookup 2 subtable" eng.sc
EndChar

StartChar: at.alt
Encoding: 323 -1 184
Width: 867
VWidth: 0
Flags: W
TeX: 608 -157
HStem: -157 50<338.022 569.405> -5 52<544.625 635.676> 0 58<317.311 432.486> 395 54<400.769 519.84> 557 51<339.092 569.726>
VStem: 71 52<109.46 337.878> 219 72<84.869 254.515> 747 50<190.459 391.076>
LayerCount: 2
Fore
SplineSet
71 223 m 0xdf
 71 436 241 608 453 608 c 0
 641 608 797 469 797 289 c 0
 797 148 688 -5 564 -5 c 0xdf
 517 -5 492 11 476 52 c 1
 439 15 404 0 357 0 c 0xbf
 276 0 219 61 219 148 c 0
 219 301 339 449 463 449 c 0
 515 449 554 433 578 380 c 1
 595 430 l 1
 656 430 l 1
 563 152 l 2
 543 91 543 90 543 75 c 0
 543 59 557 47 577 47 c 0
 659 47 747 182 747 290 c 0
 747 441 620 557 452 557 c 0
 271 557 123 407 123 224 c 0
 123 40 269 -107 453 -107 c 0
 544 -107 624 -72 687 -6 c 1
 727 -39 l 1
 665 -112 559 -157 451 -157 c 0
 239 -157 71 11 71 223 c 0xdf
291 150 m 0
 291 95 323 58 371 58 c 0xbf
 416 58 451 85 486 147 c 0
 515 199 540 277 540 315 c 0
 540 364 511 395 466 395 c 0
 378 395 291 273 291 150 c 0
EndSplineSet
Validated: 1
EndChar

StartChar: Gamma
Encoding: 324 915 185
Width: 485
VWidth: 0
Flags: W
TeX: 680 0
HStem: 0 21G<76 150> 672 67<150 451>
VStem: 76 74<0 672>
LayerCount: 2
Fore
SplineSet
76 0 m 1
 76 739 l 1
 451 739 l 1
 451 672 l 1
 150 672 l 1
 150 0 l 1
 76 0 l 1
EndSplineSet
Validated: 1
EndChar

StartChar: Lambda
Encoding: 325 923 186
Width: 740
VWidth: 0
Flags: W
TeX: 679 -1
HStem: 0 21G<11 97.5802 639.511 729> 719 20G<319.421 419.606>
LayerCount: 2
Fore
SplineSet
11 0 m 1
 328 739 l 1
 411 739 l 1
 729 0 l 1
 648 0 l 1
 370 655 l 1
 89 0 l 1
 11 0 l 1
EndSplineSet
Validated: 1
EndChar

StartChar: Theta
Encoding: 326 920 187
Width: 869
VWidth: 0
Flags: W
TeX: 690 -16
HStem: -13 68<323.466 545.483> 333 74<290 579> 684 68<328.556 541.897>
VStem: 44 75<257.121 477.05> 750 75<258.632 479.37>
LayerCount: 2
Fore
SplineSet
44 374 m 0
 44 579 223 752 435 752 c 0
 649 752 825 580 825 369 c 0
 825 160 649 -13 435 -13 c 0
 218 -13 44 159 44 374 c 0
119 372 m 0
 119 197 261 55 435 55 c 0
 607 55 750 197 750 368 c 0
 750 541 607 684 435 684 c 0
 264 684 119 541 119 372 c 0
290 333 m 1
 290 407 l 1
 579 407 l 1
 579 333 l 1
 290 333 l 1
EndSplineSet
Validated: 1
EndChar

StartChar: Upsilon
Encoding: 327 933 188
Width: 592
VWidth: 0
Flags: W
TeX: 680 0
HStem: 0 21G<258 332> 719 20G<2 94.1449 498.614 590>
VStem: 258 74<0 247>
LayerCount: 2
Fore
SplineSet
2 739 m 1
 84 739 l 1
 294 325 l 1
 509 739 l 1
 590 739 l 1
 332 247 l 1
 332 0 l 1
 258 0 l 1
 258 247 l 1
 2 739 l 1
EndSplineSet
Validated: 1
EndChar

StartChar: Xi
Encoding: 328 926 189
Width: 683
VWidth: 0
Flags: W
TeX: 680 0
HStem: 0 74<37 646> 333 74<111 572> 665 74<37 646>
LayerCount: 2
Fore
SplineSet
37 0 m 1
 37 74 l 1
 646 74 l 1
 646 0 l 1
 37 0 l 1
37 665 m 1
 37 739 l 1
 646 739 l 1
 646 665 l 1
 37 665 l 1
111 333 m 1
 111 407 l 1
 572 407 l 1
 572 333 l 1
 111 333 l 1
EndSplineSet
Validated: 1
EndChar

StartChar: Delta
Encoding: 329 916 190
Width: 645
VWidth: 0
Flags: W
TeX: 680 0
HStem: 0 75<119 527>
LayerCount: 2
Fore
SplineSet
-1 0 m 1
 285 680 l 1
 359 680 l 1
 647 0 l 1
 -1 0 l 1
119 75 m 1
 527 75 l 1
 322 572 l 1
 119 75 l 1
EndSplineSet
Validated: 1
EndChar

StartChar: Omega
Encoding: 330 937 191
Width: 797
VWidth: 0
Flags: W
TeX: 690 0
HStem: -2 76<84 166 269.092 319 482 527.654 636 714> 612 78<294.625 505.755>
VStem: 34 81<237.045 436.2> 482 232<-2 74> 684 81<240.117 434.65>
LayerCount: 2
Fore
SplineSet
34 336 m 0xe8
 30 528 203 690 399 690 c 0
 591 690 769 530 765 340 c 0xe8
 763 232 712 122 636 74 c 1
 714 74 l 1
 714 -2 l 1
 482 -2 l 1
 482 76 l 1xf0
 594 108 682 212 684 340 c 0
 686 486 548 612 400 612 c 0
 247 612 113 486 115 336 c 0
 118 210 209 108 319 76 c 1
 319 -2 l 1
 84 -2 l 1
 84 74 l 1
 166 74 l 1
 91 122 36 228 34 336 c 0xe8
EndSplineSet
Validated: 33
EndChar

StartChar: Pi
Encoding: 331 928 192
Width: 636
VWidth: 0
Flags: W
TeX: 739 0
HStem: 0 21G<62 145 526 609> 606 74<145 526>
VStem: 62 83<0 606> 526 83<0 606>
LayerCount: 2
Fore
SplineSet
62 0 m 1
 62 680 l 1
 609 680 l 1
 609 0 l 1
 526 0 l 1
 526 606 l 1
 145 606 l 1
 145 0 l 1
 62 0 l 1
EndSplineSet
Validated: 1
EndChar

StartChar: Sigma
Encoding: 332 931 193
Width: 453
VWidth: 0
Flags: W
TeX: 680 0
HStem: 0 74<105 443> 606 74<111 430>
LayerCount: 2
Fore
SplineSet
8 68 m 1
 178 346 l 1
 16 611 l 1
 16 680 l 1
 430 680 l 1
 430 606 l 1
 111 606 l 1
 272 346 l 1
 105 74 l 1
 443 74 l 1
 443 0 l 1
 9 0 l 1
 8 68 l 1
EndSplineSet
Validated: 1
EndChar

StartChar: lira
Encoding: 333 8356 194
Width: 554
VWidth: 0
Flags: W
TeX: 752 0
HStem: 0 67<59 214.365 285 441.3> 281 67<18 143 289 457> 413 67<18 73 174 457> 685 67<223.086 396.211>
VStem: 71 74<480 604.187> 240 74<94.6537 266.118> 485 69<541 596.558> 518 74<136.49 266.884>
LayerCount: 2
Fore
SplineSet
18 281 m 1xfd
 18 348 l 1
 143 348 l 1
 94 413 l 1
 18 413 l 1
 18 480 l 1
 73 480 l 1
 71 490 71 500 71 512 c 0
 71 652 170 752 306 752 c 0
 440 752 540 666 554 541 c 1
 485 541 l 1xfe
 465 631 399 685 307 685 c 0
 211 685 145 615 145 513 c 0
 145 500 145 490 147 480 c 1
 457 480 l 1
 457 413 l 1
 174 413 l 1
 241 348 l 1
 457 348 l 1
 457 281 l 1
 289 281 l 1
 305 249 314 217 314 184 c 0
 314 147 306 115 285 67 c 1
 342 67 l 2
 468 67 518 133 518 219 c 0
 518 233 517 243 512 268 c 1
 584 268 l 1
 590 245 592 233 592 213 c 0
 592 88 511 0 344 0 c 2
 59 0 l 1
 59 67 l 1
 198 67 l 1
 226 98 240 136 240 183 c 0
 240 221 232 249 208 281 c 1
 18 281 l 1xfd
EndSplineSet
Validated: 1
EndChar

StartChar: partialdiff
Encoding: 334 8706 195
Width: 494
VWidth: 0
Flags: W
TeX: 753 0
HStem: -15 56<137.33 277.242> 355 55<157.545 366.663> 698 56<91.0413 277.962>
VStem: 12 74<97.4111 275.432> 408 74<378 516.754>
LayerCount: 2
Fore
SplineSet
12 182 m 0
 12 305 104 410 224 410 c 0
 286 410 349 399 408 378 c 1
 405 539 339 698 198 698 c 0
 155 698 106 682 61 666 c 1
 37 736 l 1
 88 754 144 754 198 754 c 0
 376 754 482 566 482 370 c 0
 482 173 376 -15 198 -15 c 0
 93 -15 12 76 12 182 c 0
86 182 m 0
 86 109 130 41 198 41 c 0
 327 41 393 174 406 319 c 1
 348 343 286 355 224 355 c 0
 141 355 86 272 86 182 c 0
EndSplineSet
Validated: 1
EndChar

StartChar: eta
Encoding: 335 951 196
Width: 610
VWidth: 0
Flags: W
TeX: 560 -200
HStem: 0 21G<63 137> 492 68<214.824 393.046> 527 20G<63 137>
VStem: 63 74<0 408.742 476 547> 473 74<-200 404.094>
LayerCount: 2
Fore
SplineSet
63 0 m 1xd8
 63 547 l 1
 137 547 l 1xb8
 137 476 l 1
 183 532 241 560 313 560 c 0
 450 560 547 479 547 287 c 2
 547 -200 l 1
 473 -200 l 1
 473 287 l 2
 473 436 405 492 304 492 c 0
 205 492 137 435 137 301 c 2
 137 0 l 1
 63 0 l 1xd8
EndSplineSet
Validated: 1
EndChar

StartChar: numero
Encoding: 336 8470 197
Width: 1138
VWidth: 0
Flags: W
TeX: 739 0
HStem: 0 61<722 1088> 188 58<838.257 971.733> 492 59<838.772 972.275> 719 20G<76 189.507 590 664>
VStem: 76 74<0 650> 590 74<126 739> 722 64<299.113 440.464> 1025 63<299.885 440.034>
LayerCount: 2
Fore
SplineSet
76 0 m 1
 76 739 l 1
 176 739 l 1
 590 126 l 1
 590 739 l 1
 664 739 l 1
 664 0 l 1
 590 0 l 1
 150 650 l 1
 150 0 l 1
 76 0 l 1
722 0 m 1
 722 61 l 1
 1088 61 l 1
 1088 0 l 1
 722 0 l 1
722 372 m 0
 722 468 806 551 906 551 c 0
 1004 551 1088 468 1088 370 c 0
 1088 270 1004 188 905 188 c 0
 804 188 722 269 722 372 c 0
786 370 m 0
 786 302 839 246 906 246 c 0
 971 246 1025 302 1025 368 c 0
 1025 438 973 492 905 492 c 0
 839 492 786 437 786 370 c 0
EndSplineSet
Validated: 1
EndChar

StartChar: a.sc
Encoding: 337 -1 198
Width: 631
VWidth: 0
GlyphClass: 2
Flags: W
TeX: 547 0
HStem: 0 21G<20 108.551 519.562 611> 178 67<216 413> 527 20G<268.567 361.47>
AnchorPoint: "bot_acc" 315 -123 basechar 0
AnchorPoint: "dotbelow" 315 -123 basechar 0
AnchorPoint: "ogon_acc" 539 -123 basechar 0
AnchorPoint: "top_accl" 315 670 basechar 0
AnchorPoint: "dotabove" 315 670 basechar 0
LayerCount: 2
Fore
SplineSet
20 0 m 1
 278 547 l 1
 352 547 l 1
 611 0 l 1
 529 0 l 1
 445 178 l 1
 184 178 l 1
 99 0 l 1
 20 0 l 1
216 245 m 1
 413 245 l 1
 315 457 l 1
 216 245 l 1
EndSplineSet
Validated: 1
EndChar

StartChar: aogonek.sc
Encoding: 338 -1 199
Width: 631
VWidth: 0
GlyphClass: 3
Flags: W
TeX: 547 -250
HStem: -250 74<536.807 624> 0 21G<20 108.551> 178 67<216 413> 527 20G<268.567 361.47>
VStem: 453 74<-167.62 -60.207>
AnchorPoint: "bot_acc" 539 -360 basechar 0
AnchorPoint: "dotbelow" 539 -360 basechar 0
AnchorPoint: "ogon_acc" 539 -360 basechar 0
AnchorPoint: "top_accl" 322 670 basechar 0
AnchorPoint: "dotabove" 322 670 basechar 0
LayerCount: 2
Fore
SplineSet
20 0 m 1
 278 547 l 1
 352 547 l 1
 611 0 l 1
 564 -27 527 -71 527 -125 c 0
 527 -152 548 -176 574 -176 c 0
 591 -176 608 -174 624 -171 c 1
 624 -246 l 1
 608 -249 591 -250 574 -250 c 0
 507 -250 453 -193 453 -125 c 0
 453 -98 463 -75 479 -54 c 0
 494 -34 510 -16 529 0 c 1
 445 178 l 1
 184 178 l 1
 99 0 l 1
 20 0 l 1
216 245 m 1
 413 245 l 1
 315 457 l 1
 216 245 l 1
EndSplineSet
Validated: 1
Ligature2: "ccmp_lig subtable" a.sc ogonekcomb
EndChar

StartChar: b.sc
Encoding: 339 -1 200
Width: 501
VWidth: 0
GlyphClass: 2
Flags: W
TeX: 547 0
HStem: 0 68<151 346.396> 253 67<151 325.807> 480 67<151 324.858>
VStem: 77 74<68 253 320 480> 352 75<343.685 456.759> 385 75<100.83 220.932>
AnchorPoint: "bot_acc" 268 -123 basechar 0
AnchorPoint: "dotbelow" 268 -123 basechar 0
AnchorPoint: "ogon_acc" 156 -123 basechar 0
AnchorPoint: "top_accl" 268 670 basechar 0
AnchorPoint: "dotabove" 268 670 basechar 0
LayerCount: 2
Fore
SplineSet
77 0 m 1xf4
 77 547 l 1
 220 547 l 2
 369 547 427 496 427 400 c 0xf8
 427 352 411 317 376 293 c 1
 435 266 460 223 460 161 c 0
 460 52 397 0 228 0 c 2
 77 0 l 1xf4
151 68 m 1
 222 68 l 2
 333 68 385 87 385 158 c 0xf4
 385 251 309 253 212 253 c 2
 151 253 l 1
 151 68 l 1
151 320 m 1
 213 320 l 2
 315 320 352 338 352 400 c 0xf8
 352 459 321 480 213 480 c 2
 151 480 l 1
 151 320 l 1
EndSplineSet
Validated: 1
EndChar

StartChar: c.sc
Encoding: 340 -1 201
Width: 661
VWidth: 0
GlyphClass: 2
Flags: W
TeX: 547 0
HStem: -9 68<249.21 456.348> 488 69<246.746 457.222>
VStem: 40 74<186.217 364.447>
AnchorPoint: "bot_acc" 348 -123 basechar 0
AnchorPoint: "dotbelow" 348 -123 basechar 0
AnchorPoint: "ogon_acc" 348 -123 basechar 0
AnchorPoint: "top_accl" 348 670 basechar 0
AnchorPoint: "dotabove" 348 670 basechar 0
LayerCount: 2
Fore
SplineSet
40 272 m 0
 40 434 170 557 348 557 c 0
 478 557 587 492 629 390 c 1
 546 390 l 1
 498 461 431 488 351 488 c 0
 218 488 114 396 114 274 c 0
 114 155 222 59 351 59 c 0
 435 59 489 88 550 158 c 1
 633 158 l 1
 574 48 479 -9 352 -9 c 0
 173 -9 40 113 40 272 c 0
EndSplineSet
Validated: 1
EndChar

StartChar: ccedilla.sc
Encoding: 341 -1 202
Width: 661
VWidth: 0
GlyphClass: 3
Flags: W
TeX: 547 -249
HStem: -249 56<342.029 422.304> -97 56<374.542 419.954> -9 68<249.075 341> 488 69<246.746 457.222>
VStem: 40 74<186.988 364.447> 279 57<-184.664 -160> 430 56<-185.114 -106.189>
AnchorPoint: "bot_acc" 347 -359 basechar 0
AnchorPoint: "dotbelow" 347 -359 basechar 0
AnchorPoint: "ogon_acc" 347 -359 basechar 0
AnchorPoint: "top_accl" 348 670 basechar 0
AnchorPoint: "dotabove" 348 670 basechar 0
LayerCount: 2
Fore
SplineSet
40 272 m 0
 40 434 170 557 348 557 c 0
 478 557 587 492 629 390 c 1
 546 390 l 1
 498 461 431 488 351 488 c 0
 218 488 114 396 114 274 c 0
 114 155 222 59 351 59 c 0
 435 59 489 88 550 158 c 1
 633 158 l 1
 580 60 500 4 394 -7 c 1
 374 -41 l 2
 377 -41 379 -41 382 -41 c 0
 439 -41 486 -88 486 -145 c 0
 486 -202 439 -249 382 -249 c 0
 329 -249 286 -210 279 -160 c 1
 336 -160 l 1
 342 -179 361 -193 382 -193 c 0
 408 -193 430 -172 430 -145 c 0
 430 -119 408 -97 382 -97 c 0
 364 -97 348 -107 340 -121 c 1
 293 -94 l 1
 341 -9 l 1
 168 -4 40 116 40 272 c 0
EndSplineSet
Validated: 1
Ligature2: "ccmp_lig subtable" c.sc cedillacmb
EndChar

StartChar: d.sc
Encoding: 342 -1 203
Width: 622
VWidth: 0
GlyphClass: 2
Flags: W
TeX: 547 0
HStem: 0 68<151 376.14> 480 67<151 381.49>
VStem: 77 74<68 480> 508 74<182.632 366.396>
AnchorPoint: "bot_acc" 259 -123 basechar 0
AnchorPoint: "dotbelow" 259 -123 basechar 0
AnchorPoint: "ogon_acc" 169 -123 basechar 0
AnchorPoint: "top_accl" 259 670 basechar 0
AnchorPoint: "dotabove" 259 670 basechar 0
LayerCount: 2
Fore
SplineSet
77 0 m 1
 77 547 l 1
 221 547 l 2
 328 547 390 536 446 505 c 0
 536 457 582 375 582 272 c 0
 582 115 474 0 241 0 c 2
 77 0 l 1
151 68 m 1
 224 68 l 2
 324 68 383 81 428 114 c 0
 479 151 508 208 508 274 c 0
 508 349 471 411 407 446 c 0
 364 470 310 480 224 480 c 2
 151 480 l 1
 151 68 l 1
EndSplineSet
Validated: 1
EndChar

StartChar: e.sc
Encoding: 343 -1 204
Width: 456
VWidth: 0
GlyphClass: 2
Flags: W
TeX: 547 0
HStem: 0 68<151 410> 243 67<151 401> 480 67<151 410>
VStem: 77 74<68 243 310 480>
AnchorPoint: "bot_acc" 243 -123 basechar 0
AnchorPoint: "dotbelow" 243 -123 basechar 0
AnchorPoint: "ogon_acc" 338 -123 basechar 0
AnchorPoint: "top_accl" 243 670 basechar 0
AnchorPoint: "dotabove" 243 670 basechar 0
LayerCount: 2
Fore
SplineSet
77 0 m 1
 77 547 l 1
 410 547 l 1
 410 480 l 1
 151 480 l 1
 151 310 l 1
 401 310 l 1
 401 243 l 1
 151 243 l 1
 151 68 l 1
 410 68 l 1
 410 0 l 1
 77 0 l 1
EndSplineSet
Validated: 1
EndChar

StartChar: eogonek.sc
Encoding: 344 -1 205
Width: 456
VWidth: 0
GlyphClass: 3
Flags: W
TeX: 547 -250
HStem: -250 74<335.481 423> 0 68<151 336> 243 67<151 401> 480 67<151 410>
VStem: 77 74<68 243 310 480> 252 74<-167.62 -60.306>
AnchorPoint: "bot_acc" 338 -360 basechar 0
AnchorPoint: "dotbelow" 338 -360 basechar 0
AnchorPoint: "ogon_acc" 338 -360 basechar 0
AnchorPoint: "top_accl" 250 670 basechar 0
AnchorPoint: "dotabove" 250 670 basechar 0
LayerCount: 2
Fore
SplineSet
77 0 m 1
 77 547 l 1
 410 547 l 1
 410 480 l 1
 151 480 l 1
 151 310 l 1
 401 310 l 1
 401 243 l 1
 151 243 l 1
 151 68 l 1
 410 68 l 1
 410 0 l 1
 363 -27 326 -71 326 -125 c 0
 326 -152 346 -176 373 -176 c 0
 390 -176 406 -174 423 -171 c 1
 423 -246 l 1
 406 -249 390 -250 373 -250 c 0
 305 -250 252 -193 252 -125 c 0
 252 -72 292 -31 336 0 c 1
 77 0 l 1
EndSplineSet
Validated: 1
Ligature2: "ccmp_lig subtable" e.sc ogonekcomb
EndChar

StartChar: f.sc
Encoding: 345 -1 206
Width: 416
VWidth: 0
GlyphClass: 2
Flags: W
TeX: 547 0
HStem: 0 21G<77 151> 241 68<151 378> 480 67<151 387>
VStem: 77 74<0 241 309 480>
AnchorPoint: "bot_acc" 232 -123 basechar 0
AnchorPoint: "dotbelow" 232 -123 basechar 0
AnchorPoint: "ogon_acc" 79 -123 basechar 0
AnchorPoint: "top_accl" 232 670 basechar 0
AnchorPoint: "dotabove" 232 670 basechar 0
LayerCount: 2
Fore
SplineSet
77 0 m 1
 77 547 l 1
 387 547 l 1
 387 480 l 1
 151 480 l 1
 151 309 l 1
 378 309 l 1
 378 241 l 1
 151 241 l 1
 151 0 l 1
 77 0 l 1
EndSplineSet
Validated: 1
EndChar

StartChar: g.sc
Encoding: 346 -1 207
Width: 707
VWidth: 0
GlyphClass: 2
Flags: W
TeX: 547 0
HStem: -9 68<255.64 465.827> 196 67<263 584> 488 69<252.414 466.915>
VStem: 40 74<186.736 361.318>
AnchorPoint: "bot_acc" 355 -123 basechar 0
AnchorPoint: "dotbelow" 355 -123 basechar 0
AnchorPoint: "ogon_acc" 355 -123 basechar 0
AnchorPoint: "top_accl" 355 670 basechar 0
AnchorPoint: "dotabove" 355 670 basechar 0
LayerCount: 2
Fore
SplineSet
40 275 m 0
 40 432 177 557 355 557 c 0
 492 557 609 487 643 387 c 1
 561 387 l 1
 523 451 448 488 360 488 c 0
 222 488 114 396 114 273 c 0
 114 152 224 59 361 59 c 0
 465 59 557 121 584 196 c 1
 263 196 l 1
 263 263 l 1
 674 263 l 1
 671 122 543 -9 363 -9 c 0
 180 -9 40 116 40 275 c 0
EndSplineSet
Validated: 1
EndChar

StartChar: h.sc
Encoding: 347 -1 208
Width: 586
VWidth: 0
GlyphClass: 2
Flags: W
TeX: 547 0
HStem: 0 21G<77 151 435 509> 248 67<151 435> 527 20G<77 151 435 509>
VStem: 77 74<0 248 315 547> 435 74<0 248 315 547>
AnchorPoint: "bot_acc" 293 -123 basechar 0
AnchorPoint: "dotbelow" 293 -123 basechar 0
AnchorPoint: "ogon_acc" 437 -123 basechar 0
AnchorPoint: "top_accl" 293 670 basechar 0
AnchorPoint: "dotabove" 293 670 basechar 0
LayerCount: 2
Fore
SplineSet
77 0 m 1
 77 547 l 1
 151 547 l 1
 151 315 l 1
 435 315 l 1
 435 547 l 1
 509 547 l 1
 509 0 l 1
 435 0 l 1
 435 248 l 1
 151 248 l 1
 151 0 l 1
 77 0 l 1
EndSplineSet
Validated: 1
EndChar

StartChar: i.sc
Encoding: 348 -1 209
Width: 227
VWidth: 0
GlyphClass: 2
Flags: W
TeX: 547 0
HStem: 0 21G<77 151> 527 20G<77 151>
VStem: 77 74<0 547>
AnchorPoint: "bot_acc" 114 -123 basechar 0
AnchorPoint: "dotbelow" 114 -123 basechar 0
AnchorPoint: "ogon_acc" 79 -123 basechar 0
AnchorPoint: "top_accl" 114 670 basechar 0
AnchorPoint: "dotabove" 114 670 basechar 0
LayerCount: 2
Fore
SplineSet
77 0 m 1
 77 547 l 1
 151 547 l 1
 151 0 l 1
 77 0 l 1
EndSplineSet
Validated: 1
EndChar

StartChar: iogonek.sc
Encoding: 349 -1 210
Width: 227
VWidth: 0
GlyphClass: 3
Flags: W
TeX: 547 -250
HStem: -250 74<76.4815 164> 527 20G<77 151>
VStem: -7 74<-167.62 -58.6821> 77 74<-13.7123 547>
AnchorPoint: "bot_acc" 79 -360 basechar 0
AnchorPoint: "dotbelow" 79 -360 basechar 0
AnchorPoint: "ogon_acc" 79 -360 basechar 0
AnchorPoint: "top_accl" 114 670 basechar 0
AnchorPoint: "dotabove" 114 670 basechar 0
LayerCount: 2
Fore
SplineSet
-7 -125 m 0
 -7 -98 3 -75 18 -54 c 0
 34 -33 54 -14 77 0 c 1
 77 547 l 1
 151 547 l 1
 151 0 l 1
 104 -27 67 -71 67 -125 c 0
 67 -152 87 -176 114 -176 c 0
 131 -176 147 -174 164 -171 c 1
 164 -246 l 1
 147 -249 130 -250 114 -250 c 0
 46 -250 -7 -193 -7 -125 c 0
EndSplineSet
Validated: 1
Ligature2: "ccmp_lig subtable" i.sc ogonekcomb
EndChar

StartChar: j.sc
Encoding: 350 -1 211
Width: 428
VWidth: 0
GlyphClass: 2
Flags: W
TeX: 547 0
HStem: -10 69<126.584 247.497> 527 20G<278 352>
VStem: 25 74<87.5418 145> 278 74<89.9696 547>
AnchorPoint: "bot_acc" 315 -123 basechar 0
AnchorPoint: "dotbelow" 315 -123 basechar 0
AnchorPoint: "ogon_acc" 154 -123 basechar 0
AnchorPoint: "top_accl" 315 670 basechar 0
AnchorPoint: "dotabove" 315 670 basechar 0
LayerCount: 2
Fore
SplineSet
25 145 m 1
 99 145 l 1
 98 91 135 59 190 59 c 0
 248 59 278 98 278 175 c 2
 278 547 l 1
 352 547 l 1
 352 175 l 2
 352 51 293 -10 189 -10 c 0
 87 -10 26 49 25 145 c 1
EndSplineSet
Validated: 33
EndChar

StartChar: k.sc
Encoding: 351 -1 212
Width: 514
VWidth: 0
GlyphClass: 2
Flags: W
TeX: 547 0
HStem: 0 21G<77 151 391.111 504> 527 20G<77 151 390.276 505>
VStem: 77 74<0 150 257 547>
AnchorPoint: "bot_acc" 277 -123 basechar 0
AnchorPoint: "dotbelow" 277 -123 basechar 0
AnchorPoint: "ogon_acc" 432 -123 basechar 0
AnchorPoint: "top_accl" 277 670 basechar 0
AnchorPoint: "dotabove" 277 670 basechar 0
LayerCount: 2
Fore
SplineSet
77 0 m 1
 77 547 l 1
 151 547 l 1
 151 257 l 1
 408 547 l 1
 505 547 l 1
 267 280 l 1
 504 0 l 1
 408 0 l 1
 218 225 l 1
 151 150 l 1
 151 0 l 1
 77 0 l 1
EndSplineSet
Validated: 1
EndChar

StartChar: l.sc
Encoding: 352 -1 213
Width: 398
VWidth: 0
GlyphClass: 2
Flags: W
TeX: 547 0
HStem: 0 68<151 391> 527 20G<77 151>
VStem: 77 74<68 547>
AnchorPoint: "bot_acc" 234 -123 basechar 0
AnchorPoint: "dotbelow" 234 -123 basechar 0
AnchorPoint: "ogon_acc" 319 -123 basechar 0
AnchorPoint: "top_accl" 114 670 basechar 0
AnchorPoint: "dotabove" 114 670 basechar 0
LayerCount: 2
Fore
SplineSet
77 0 m 1
 77 547 l 1
 151 547 l 1
 151 68 l 1
 391 68 l 1
 391 0 l 1
 77 0 l 1
EndSplineSet
Validated: 1
EndChar

StartChar: lslash.sc
Encoding: 353 -1 214
Width: 441
VWidth: 0
GlyphClass: 2
Flags: W
TeX: 547 0
HStem: 0 68<187 427> 527 20G<113 187>
VStem: 113 74<68 209 339 547>
AnchorPoint: "bot_acc" 270 -123 basechar 0
AnchorPoint: "dotbelow" 270 -123 basechar 0
AnchorPoint: "ogon_acc" 355 -123 basechar 0
AnchorPoint: "top_accl" 150 670 basechar 0
AnchorPoint: "dotabove" 150 670 basechar 0
LayerCount: 2
Fore
SplineSet
37 152 m 1
 37 235 l 1
 113 292 l 1
 113 547 l 1
 187 547 l 1
 187 339 l 1
 312 434 l 1
 312 350 l 1
 187 256 l 1
 187 68 l 1
 427 68 l 1
 427 0 l 1
 113 0 l 1
 113 209 l 1
 37 152 l 1
EndSplineSet
Validated: 1
EndChar

StartChar: m.sc
Encoding: 354 -1 215
Width: 771
VWidth: 0
GlyphClass: 2
Flags: W
TeX: 547 0
HStem: 0 21G<77 151 346.724 424.321 621 695> 527 20G<77 188.431 582.615 695>
VStem: 77 74<0 442> 621 74<0 442>
AnchorPoint: "bot_acc" 386 -123 basechar 0
AnchorPoint: "dotbelow" 386 -123 basechar 0
AnchorPoint: "ogon_acc" 623 -123 basechar 0
AnchorPoint: "top_accl" 386 670 basechar 0
AnchorPoint: "dotabove" 386 670 basechar 0
LayerCount: 2
Fore
SplineSet
77 0 m 1
 77 547 l 1
 179 547 l 1
 386 108 l 1
 592 547 l 1
 695 547 l 1
 695 0 l 1
 621 0 l 1
 621 442 l 1
 415 0 l 1
 356 0 l 1
 151 442 l 1
 151 0 l 1
 77 0 l 1
EndSplineSet
Validated: 1
EndChar

StartChar: n.sc
Encoding: 355 -1 216
Width: 631
VWidth: 0
GlyphClass: 2
Flags: W
TeX: 547 0
HStem: 0 21G<77 151 470.089 554> 527 20G<77 181.834 480 554>
VStem: 77 74<0 448> 480 74<125 547>
AnchorPoint: "bot_acc" 315 -123 basechar 0
AnchorPoint: "dotbelow" 315 -123 basechar 0
AnchorPoint: "ogon_acc" 482 -123 basechar 0
AnchorPoint: "top_accl" 315 670 basechar 0
AnchorPoint: "dotabove" 315 670 basechar 0
LayerCount: 2
Fore
SplineSet
77 0 m 1
 77 547 l 1
 167 547 l 1
 480 125 l 1
 480 547 l 1
 554 547 l 1
 554 0 l 1
 485 0 l 1
 151 448 l 1
 151 0 l 1
 77 0 l 1
EndSplineSet
Validated: 1
EndChar

StartChar: eng.sc
Encoding: 356 -1 217
Width: 631
VWidth: 0
Flags: W
TeX: 547 -247
HStem: -247 69<327.27 442.751> 0 21G<77 151> 527 20G<77 181.834 480 554>
VStem: 77 74<0 448> 228 73<-149.458 -92> 480 74<-138.831 6 125 547>
LayerCount: 2
Fore
SplineSet
77 0 m 1
 77 547 l 1
 167 547 l 1
 480 125 l 1
 480 547 l 1
 554 547 l 1
 554 -62 l 2
 554 -186 496 -247 392 -247 c 0
 290 -247 228 -188 228 -92 c 1
 301 -92 l 1
 301 -146 337 -178 392 -178 c 0
 447 -178 480 -122 480 -62 c 2
 480 6 l 1
 151 448 l 1
 151 0 l 1
 77 0 l 1
EndSplineSet
Validated: 1
EndChar

StartChar: o.sc
Encoding: 357 -1 218
Width: 708
VWidth: 0
GlyphClass: 2
Flags: W
TeX: 547 0
HStem: -9 68<251.652 455.99> 488 69<252.862 455.99>
VStem: 40 74<185.529 360.433> 594 75<187.587 358.964>
AnchorPoint: "bot_acc" 354 -123 basechar 0
AnchorPoint: "dotbelow" 354 -123 basechar 0
AnchorPoint: "ogon_acc" 354 -123 basechar 0
AnchorPoint: "top_accl" 354 670 basechar 0
AnchorPoint: "dotabove" 354 670 basechar 0
LayerCount: 2
Fore
SplineSet
40 277 m 0
 40 428 183 557 354 557 c 0
 528 557 669 428 669 273 c 0
 669 120 528 -9 354 -9 c 0
 179 -9 40 119 40 277 c 0
114 275 m 0
 114 155 223 59 354 59 c 0
 484 59 594 155 594 273 c 0
 594 391 484 488 354 488 c 0
 225 488 114 391 114 275 c 0
EndSplineSet
Validated: 1
EndChar

StartChar: oogonek.sc
Encoding: 358 -1 219
Width: 708
VWidth: 0
GlyphClass: 3
Flags: W
TeX: 547 -250
HStem: -250 74<381.481 469> -9 68<252.679 370> 488 69<252.862 455.99>
VStem: 40 74<185.529 360.433> 298 74<-167.62 -60.4657> 594 75<185.593 358.964>
AnchorPoint: "bot_acc" 384 -360 basechar 0
AnchorPoint: "dotbelow" 384 -360 basechar 0
AnchorPoint: "ogon_acc" 384 -360 basechar 0
AnchorPoint: "top_accl" 354 670 basechar 0
AnchorPoint: "dotabove" 354 670 basechar 0
LayerCount: 2
Fore
SplineSet
40 277 m 0
 40 428 183 557 354 557 c 0
 528 557 669 428 669 273 c 0
 669 166 599 70 499 23 c 0
 434 -8 372 -55 372 -125 c 0
 372 -152 392 -176 419 -176 c 0
 436 -176 452 -174 469 -171 c 1
 469 -246 l 1
 453 -249 436 -250 419 -250 c 0
 351 -250 298 -193 298 -125 c 0
 298 -77 331 -39 370 -9 c 1
 354 -9 l 2
 179 -9 40 119 40 277 c 0
114 275 m 0
 114 155 223 59 354 59 c 0
 484 59 594 155 594 273 c 0
 594 391 484 488 354 488 c 0
 225 488 114 391 114 275 c 0
EndSplineSet
Validated: 1
Ligature2: "ccmp_lig subtable" o.sc ogonekcomb
EndChar

StartChar: p.sc
Encoding: 359 -1 220
Width: 503
VWidth: 0
GlyphClass: 2
Flags: W
TeX: 547 0
HStem: 0 21G<77 151> 213 68<151 363.58> 480 67<151 367.081>
VStem: 77 74<0 213 281 480> 402 74<314.418 446.312>
AnchorPoint: "bot_acc" 277 -123 basechar 0
AnchorPoint: "dotbelow" 277 -123 basechar 0
AnchorPoint: "ogon_acc" 79 -123 basechar 0
AnchorPoint: "top_accl" 277 670 basechar 0
AnchorPoint: "dotabove" 277 670 basechar 0
LayerCount: 2
Fore
SplineSet
77 0 m 1
 77 547 l 1
 245 547 l 2
 411 547 476 493 476 377 c 0
 476 273 419 213 254 213 c 2
 151 213 l 1
 151 0 l 1
 77 0 l 1
151 281 m 1
 250 281 l 2
 358 281 402 306 402 377 c 0
 402 479 330 480 225 480 c 2
 151 480 l 1
 151 281 l 1
EndSplineSet
Validated: 1
EndChar

StartChar: q.sc
Encoding: 360 -1 221
Width: 710
VWidth: 0
GlyphClass: 2
Flags: W
TeX: 547 -9
HStem: -9 68<256.858 466.27 591.981 667> 169 69<154.229 358.726> 488 69<254.185 466.706>
VStem: 40 74<222.451 359.931> 605 75<187.145 362.456>
AnchorPoint: "bot_acc" 360 -123 basechar 0
AnchorPoint: "dotbelow" 360 -123 basechar 0
AnchorPoint: "ogon_acc" 360 -123 basechar 0
AnchorPoint: "top_accl" 360 670 basechar 0
AnchorPoint: "dotabove" 360 670 basechar 0
LayerCount: 2
Fore
SplineSet
40 273 m 0
 40 434 177 557 362 557 c 0
 544 557 680 436 680 275 c 0
 680 196 649 127 591 78 c 1
 612 65 628 59 647 59 c 0
 649 59 657 59 661 60 c 2
 670 50 l 1
 670 -9 l 1
 611 -10 576 1 534 35 c 1
 485 6 424 -9 361 -9 c 0
 181 -9 40 117 40 273 c 0
114 269 m 0
 114 253 116 240 121 221 c 1
 162 233 196 238 239 238 c 0
 355 238 437 199 533 123 c 1
 581 167 605 217 605 275 c 0
 605 396 497 488 360 488 c 0
 222 488 114 394 114 269 c 0
153 159 m 1
 193 103 274 59 361 59 c 0
 402 59 437 67 471 83 c 1
 393 144 323 169 230 169 c 0
 200 169 178 167 153 159 c 1
EndSplineSet
Validated: 33
EndChar

StartChar: r.sc
Encoding: 361 -1 222
Width: 526
VWidth: 0
GlyphClass: 2
Flags: W
TeX: 547 0
HStem: 0 21G<77 151 377.629 489> 480 67<151 359.547>
VStem: 77 74<0 480> 411 75<299.943 436.027>
AnchorPoint: "bot_acc" 264 -123 basechar 0
AnchorPoint: "dotbelow" 264 -123 basechar 0
AnchorPoint: "ogon_acc" 417 -123 basechar 0
AnchorPoint: "top_accl" 264 670 basechar 0
AnchorPoint: "dotabove" 264 670 basechar 0
LayerCount: 2
Fore
SplineSet
77 0 m 1
 77 547 l 1
 228 547 l 2
 418 547 486 482 486 367 c 0
 486 274 431 214 325 199 c 1
 489 0 l 1
 394 0 l 1
 182 259 l 1
 352 257 411 276 411 370 c 0
 411 453 352 480 224 480 c 2
 151 480 l 1
 151 0 l 1
 77 0 l 1
EndSplineSet
Validated: 33
EndChar

StartChar: s.sc
Encoding: 362 -1 223
Width: 417
VWidth: 0
GlyphClass: 2
Flags: W
TeX: 547 0
HStem: -9 68<142.618 282.26> 488 69<144.882 273.651>
VStem: 22 77<103.839 168> 41 75<355.61 458.686> 304 76<394 459.619> 320 75<95.2027 210.535>
AnchorPoint: "bot_acc" 210 -123 basechar 0
AnchorPoint: "dotbelow" 210 -123 basechar 0
AnchorPoint: "ogon_acc" 177 -123 basechar 0
AnchorPoint: "top_accl" 210 670 basechar 0
AnchorPoint: "dotabove" 210 670 basechar 0
LayerCount: 2
Fore
SplineSet
22 168 m 1xe4
 99 168 l 1
 104 97 150 59 213 59 c 0
 274 59 320 98 320 154 c 0xe4
 320 208 290 229 196 255 c 0
 127 274 109 282 85 303 c 0
 57 327 41 365 41 405 c 0
 41 491 111 557 210 557 c 0
 314 557 386 490 380 394 c 1
 304 394 l 1
 309 452 265 488 208 488 c 0
 156 488 116 454 116 406 c 0xd8
 116 387 124 368 136 356 c 0
 151 342 167 337 223 322 c 0
 284 305 308 295 332 279 c 0
 372 252 395 207 395 157 c 0
 395 62 317 -9 212 -9 c 0
 98 -9 23 62 22 168 c 1xe4
EndSplineSet
Validated: 33
EndChar

StartChar: scedilla.sc
Encoding: 363 -1 224
Width: 417
VWidth: 0
GlyphClass: 3
Flags: W
TeX: 547 -249
HStem: -249 56<201.444 281.428> -97 56<234.396 280.932> -9 68<144.462 201> 488 69<144.882 273.651>
VStem: 22 77<102.311 168> 41 75<355.61 458.686> 289 56<-185.428 -104.696> 304 76<394 459.619> 320 75<96.0502 210.535>
AnchorPoint: "bot_acc" 206 -359 basechar 0
AnchorPoint: "dotbelow" 206 -359 basechar 0
AnchorPoint: "ogon_acc" 206 -359 basechar 0
AnchorPoint: "top_accl" 208 670 basechar 0
AnchorPoint: "dotabove" 208 670 basechar 0
LayerCount: 2
Fore
SplineSet
22 168 m 1xfa
 99 168 l 1
 104 97 150 59 213 59 c 0
 274 59 320 98 320 154 c 0xf880
 320 208 290 229 196 255 c 0
 127 274 109 282 85 303 c 0
 57 327 41 365 41 405 c 0
 41 491 111 557 210 557 c 0
 314 557 386 490 380 394 c 1
 304 394 l 1xf5
 309 452 265 488 208 488 c 0
 156 488 116 454 116 406 c 0
 116 387 124 368 136 356 c 0
 151 342 167 337 223 322 c 0
 284 305 308 295 332 279 c 0
 372 252 395 207 395 157 c 0xf480
 395 76 338 11 255 -5 c 1
 234 -41 l 2
 236 -41 239 -41 241 -41 c 0
 298 -41 345 -88 345 -145 c 0
 345 -202 298 -249 241 -249 c 0
 189 -249 145 -210 138 -160 c 1
 195 -160 l 1
 202 -179 220 -193 241 -193 c 0
 268 -193 289 -172 289 -145 c 0
 289 -119 268 -97 241 -97 c 0
 223 -97 208 -107 199 -121 c 1
 152 -94 l 1
 201 -9 l 1
 93 -5 23 66 22 168 c 1xfa
EndSplineSet
Validated: 33
AlternateSubs2: "'aalt' Access All Alternates in Latin lookup 0 subtable" uni0219.sc
Ligature2: "ccmp_lig subtable" s.sc cedillacmb
Substitution2: "locl_ROM subtable" uni0219.sc
EndChar

StartChar: t.sc
Encoding: 364 -1 225
Width: 354
VWidth: 0
GlyphClass: 2
Flags: W
TeX: 547 0
HStem: 0 21G<140 214> 480 67<7 140 214 347>
VStem: 140 74<0 480>
AnchorPoint: "bot_acc" 177 -123 basechar 0
AnchorPoint: "dotbelow" 177 -123 basechar 0
AnchorPoint: "ogon_acc" 142 -123 basechar 0
AnchorPoint: "top_accl" 177 670 basechar 0
AnchorPoint: "dotabove" 177 670 basechar 0
LayerCount: 2
Fore
SplineSet
7 480 m 1
 7 547 l 1
 347 547 l 1
 347 480 l 1
 214 480 l 1
 214 0 l 1
 140 0 l 1
 140 480 l 1
 7 480 l 1
EndSplineSet
Validated: 1
EndChar

StartChar: tcedilla.sc
Encoding: 365 -1 226
Width: 354
VWidth: 0
GlyphClass: 3
Flags: W
TeX: 547 -249
HStem: -249 56<161.77 240.463> -97 56<194.686 239.366> 480 67<7 140 214 347>
VStem: 99 57<-186.672 -160> 140 74<1 480> 249 56<-185.428 -104.696>
AnchorPoint: "bot_acc" 166 -359 basechar 0
AnchorPoint: "dotbelow" 166 -359 basechar 0
AnchorPoint: "ogon_acc" 166 -359 basechar 0
AnchorPoint: "top_accl" 177 670 basechar 0
AnchorPoint: "dotabove" 177 670 basechar 0
LayerCount: 2
Fore
SplineSet
7 480 m 1xec
 7 547 l 1
 347 547 l 1
 347 480 l 1
 214 480 l 1
 214 1 l 1xec
 219 1 l 1
 194 -41 l 2
 197 -41 199 -41 201 -41 c 0
 259 -41 305 -88 305 -145 c 0
 305 -202 259 -249 201 -249 c 0
 149 -249 106 -210 99 -160 c 1
 156 -160 l 1xf4
 162 -179 180 -193 201 -193 c 0
 228 -193 249 -172 249 -145 c 0
 249 -119 228 -97 201 -97 c 0
 184 -97 168 -107 160 -121 c 1
 112 -94 l 1
 166 0 l 1
 140 0 l 1
 140 480 l 1
 7 480 l 1xec
EndSplineSet
Validated: 1
AlternateSubs2: "'aalt' Access All Alternates in Latin lookup 0 subtable" uni021B.sc
Ligature2: "ccmp_lig subtable" t.sc cedillacmb
Substitution2: "locl_ROM subtable" uni021B.sc
EndChar

StartChar: u.sc
Encoding: 366 -1 227
Width: 564
VWidth: 0
GlyphClass: 2
Flags: W
TeX: 547 0
HStem: -9 68<202.999 361.001> 527 20G<77 151 413 487>
VStem: 77 74<116.415 547> 413 74<116.415 547>
AnchorPoint: "bot_acc" 282 -123 basechar 0
AnchorPoint: "dotbelow" 282 -123 basechar 0
AnchorPoint: "ogon_acc" 282 -123 basechar 0
AnchorPoint: "top_accl" 282 670 basechar 0
AnchorPoint: "dotabove" 282 670 basechar 0
LayerCount: 2
Fore
SplineSet
77 208 m 2
 77 547 l 1
 151 547 l 1
 151 208 l 2
 151 107 197 59 282 59 c 0
 367 59 413 107 413 208 c 2
 413 547 l 1
 487 547 l 1
 487 208 l 2
 487 59 405 -9 282 -9 c 0
 159 -9 77 59 77 208 c 2
EndSplineSet
Validated: 1
EndChar

StartChar: uogonek.sc
Encoding: 367 -1 228
Width: 564
VWidth: 0
GlyphClass: 3
Flags: W
TeX: 547 -250
HStem: -250 74<303.481 391> -9 68<203.197 291> 527 20G<77 151 413 487>
VStem: 77 74<116.415 547> 220 74<-167.62 -60.6504> 413 74<113.604 547>
AnchorPoint: "bot_acc" 306 -360 basechar 0
AnchorPoint: "dotbelow" 306 -360 basechar 0
AnchorPoint: "ogon_acc" 306 -360 basechar 0
AnchorPoint: "top_accl" 282 670 basechar 0
AnchorPoint: "dotabove" 282 670 basechar 0
LayerCount: 2
Fore
SplineSet
77 208 m 2
 77 547 l 1
 151 547 l 1
 151 208 l 2
 151 107 197 59 282 59 c 0
 367 59 413 107 413 208 c 2
 413 547 l 1
 487 547 l 1
 487 208 l 2
 487 111 452 48 394 16 c 0
 339 -14 294 -63 294 -125 c 0
 294 -152 314 -176 341 -176 c 0
 358 -176 374 -174 391 -171 c 1
 391 -246 l 1
 374 -249 358 -250 341 -250 c 0
 273 -250 220 -193 220 -125 c 0
 220 -77 253 -39 291 -9 c 1
 282 -9 l 2
 159 -9 77 59 77 208 c 2
EndSplineSet
Validated: 1
Ligature2: "ccmp_lig subtable" u.sc ogonekcomb
EndChar

StartChar: v.sc
Encoding: 368 -1 229
Width: 601
VWidth: 0
GlyphClass: 2
Flags: W
TeX: 547 0
HStem: 0 21G<257.932 342.104> 527 20G<19 109.869 492.131 582>
AnchorPoint: "bot_acc" 301 -123 basechar 0
AnchorPoint: "dotbelow" 301 -123 basechar 0
AnchorPoint: "ogon_acc" 261 -123 basechar 0
AnchorPoint: "top_accl" 301 670 basechar 0
AnchorPoint: "dotabove" 301 670 basechar 0
LayerCount: 2
Fore
SplineSet
19 547 m 1
 101 547 l 1
 301 96 l 1
 501 547 l 1
 582 547 l 1
 333 0 l 1
 267 0 l 1
 19 547 l 1
EndSplineSet
Validated: 1
EndChar

StartChar: w.sc
Encoding: 369 -1 230
Width: 804
VWidth: 0
GlyphClass: 2
Flags: W
TeX: 547 0
HStem: 0 21G<186.711 284.894 518.058 616.289> 527 20G<21 104.213 362.923 441.032 699.741 782>
AnchorPoint: "bot_acc" 402 -123 basechar 0
AnchorPoint: "dotbelow" 402 -123 basechar 0
AnchorPoint: "ogon_acc" 538 -123 basechar 0
AnchorPoint: "top_accl" 402 670 basechar 0
AnchorPoint: "dotabove" 402 670 basechar 0
LayerCount: 2
Fore
SplineSet
21 547 m 1
 98 547 l 1
 235 106 l 1
 369 547 l 1
 435 547 l 1
 568 106 l 1
 706 547 l 1
 782 547 l 1
 610 0 l 1
 524 0 l 1
 401 414 l 1
 279 0 l 1
 193 0 l 1
 21 547 l 1
EndSplineSet
Validated: 1
EndChar

StartChar: x.sc
Encoding: 370 -1 231
Width: 528
VWidth: 0
GlyphClass: 2
Flags: W
TeX: 547 0
HStem: 0 21G<13 117.57 410.43 515> 527 20G<24 128.563 399.437 503>
AnchorPoint: "bot_acc" 264 -123 basechar 0
AnchorPoint: "dotbelow" 264 -123 basechar 0
AnchorPoint: "ogon_acc" 443 -123 basechar 0
AnchorPoint: "top_accl" 264 670 basechar 0
AnchorPoint: "dotabove" 264 670 basechar 0
LayerCount: 2
Fore
SplineSet
13 0 m 1
 217 280 l 1
 24 547 l 1
 114 547 l 1
 264 341 l 1
 414 547 l 1
 503 547 l 1
 310 280 l 1
 515 0 l 1
 425 0 l 1
 264 221 l 1
 103 0 l 1
 13 0 l 1
EndSplineSet
Validated: 1
EndChar

StartChar: y.sc
Encoding: 371 -1 232
Width: 515
VWidth: 0
GlyphClass: 2
Flags: W
TeX: 547 0
HStem: 0 21G<220 294> 527 20G<11 106.181 408.611 504>
VStem: 220 74<0 183>
AnchorPoint: "bot_acc" 257 -123 basechar 0
AnchorPoint: "dotbelow" 257 -123 basechar 0
AnchorPoint: "ogon_acc" 222 -123 basechar 0
AnchorPoint: "top_accl" 257 670 basechar 0
AnchorPoint: "dotabove" 257 670 basechar 0
LayerCount: 2
Fore
SplineSet
11 547 m 1
 95 547 l 1
 256 259 l 1
 420 547 l 1
 504 547 l 1
 294 183 l 1
 294 0 l 1
 220 0 l 1
 220 183 l 1
 11 547 l 1
EndSplineSet
Validated: 1
EndChar

StartChar: z.sc
Encoding: 372 -1 233
Width: 397
VWidth: 0
GlyphClass: 2
Flags: W
TeX: 547 0
HStem: 0 68<106 390> 480 67<24 291>
AnchorPoint: "bot_acc" 203 -123 basechar 0
AnchorPoint: "dotbelow" 203 -123 basechar 0
AnchorPoint: "ogon_acc" 318 -123 basechar 0
AnchorPoint: "top_accl" 203 670 basechar 0
AnchorPoint: "dotabove" 203 670 basechar 0
LayerCount: 2
Fore
SplineSet
15 0 m 1
 15 61 l 1
 291 480 l 1
 24 480 l 1
 24 547 l 1
 381 547 l 1
 381 486 l 1
 106 68 l 1
 390 68 l 1
 390 0 l 1
 15 0 l 1
EndSplineSet
Validated: 1
EndChar

StartChar: ohorn.sc
Encoding: 373 -1 234
Width: 747
VWidth: 0
GlyphClass: 2
Flags: W
TeX: 557 -9
HStem: -9 68<264.652 468.99> 488 69<265.862 470.297> 527 20G<657 721>
VStem: 53 74<185.529 360.433> 607 75<187.587 361.333> 657 64<470.91 547>
AnchorPoint: "bot_acc" 367 -123 basechar 0
AnchorPoint: "dotbelow" 367 -123 basechar 0
AnchorPoint: "ogon_acc" 367 -123 basechar 0
AnchorPoint: "top_accl" 367 670 basechar 0
AnchorPoint: "dotabove" 367 670 basechar 0
LayerCount: 2
Fore
SplineSet
53 277 m 0xb8
 53 428 196 557 367 557 c 0xd8
 468 557 558 513 616 446 c 1
 639 469 657 502 657 547 c 1
 721 547 l 1xb4
 721 473 691 423 653 391 c 1
 671 355 682 315 682 273 c 0
 682 120 541 -9 367 -9 c 0
 192 -9 53 119 53 277 c 0xb8
127 275 m 0
 127 155 236 59 367 59 c 0
 497 59 607 155 607 273 c 0
 607 391 497 488 367 488 c 0
 238 488 127 391 127 275 c 0
EndSplineSet
Validated: 1
EndChar

StartChar: uhorn.sc
Encoding: 374 -1 235
Width: 667
VWidth: 0
GlyphClass: 2
Flags: W
TeX: 547 -9
HStem: -9 68<227.999 386.001> 527 20G<102 176 438 512 560 624>
VStem: 102 74<116.415 547> 438 74<116.415 374.133 440 547> 560 64<472.252 547>
AnchorPoint: "bot_acc" 307 -123 basechar 0
AnchorPoint: "dotbelow" 307 -123 basechar 0
AnchorPoint: "ogon_acc" 307 -123 basechar 0
AnchorPoint: "top_accl" 307 670 basechar 0
AnchorPoint: "dotabove" 307 670 basechar 0
LayerCount: 2
Fore
SplineSet
102 208 m 2
 102 547 l 1
 176 547 l 1
 176 208 l 2
 176 107 222 59 307 59 c 0
 392 59 438 107 438 208 c 2
 438 547 l 1
 512 547 l 1
 512 440 l 1
 539 463 560 498 560 547 c 1
 624 547 l 1
 624 446 570 391 512 362 c 1
 512 208 l 2
 512 59 430 -9 307 -9 c 0
 184 -9 102 59 102 208 c 2
EndSplineSet
Validated: 1
EndChar

StartChar: ae.sc
Encoding: 375 -1 236
Width: 814
VWidth: 0
Flags: W
TeX: 547 0
HStem: 0 68<517 768> 178 68<294 443> 243 67<517 759> 480 67<517 768>
VStem: 443 74<68 178 310 444>
LayerCount: 2
Fore
SplineSet
15 0 m 1xd8
 431 547 l 1
 768 547 l 1
 768 480 l 1
 517 480 l 1
 517 310 l 1
 759 310 l 1
 759 243 l 1
 517 243 l 1xb8
 517 68 l 1
 768 68 l 1
 768 0 l 1
 443 0 l 1
 443 178 l 1
 242 178 l 1
 106 0 l 1
 15 0 l 1xd8
294 246 m 1xd8
 443 246 l 1
 443 444 l 1
 294 246 l 1xd8
EndSplineSet
Validated: 1
EndChar

StartChar: oe.sc
Encoding: 376 -1 237
Width: 960
VWidth: 0
Flags: W
TeX: 547 0
HStem: -9 68<248.991 462.548> 0 68<664 914> 243 67<664 906> 480 67<664 914> 488 69<247.895 462.735>
VStem: 40 74<186.768 366.192> 590 74<68 91 178.868 243 310 370.554 458 480>
LayerCount: 2
Fore
SplineSet
40 275 m 0xa6
 40 435 172 557 352 557 c 0xae
 453 557 538 521 590 458 c 1
 590 547 l 1
 914 547 l 1
 914 480 l 1
 664 480 l 1
 664 310 l 1
 906 310 l 1
 906 243 l 1
 664 243 l 1
 664 68 l 1
 914 68 l 1
 914 0 l 1
 590 0 l 1x76
 590 91 l 1
 539 26 461 -9 362 -9 c 0
 175 -9 40 112 40 275 c 0xa6
114 278 m 0
 114 151 219 59 358 59 c 0
 491 59 591 150 591 275 c 0
 591 400 490 488 352 488 c 0
 216 488 114 396 114 278 c 0
EndSplineSet
Validated: 1
EndChar

StartChar: thorn.sc
Encoding: 377 -1 238
Width: 503
VWidth: 0
Flags: W
TeX: 547 0
HStem: 0 21G<77 151> 118 68<151 363.58> 385 67<151 367.081> 527 20G<77 145>
VStem: 77 74<0 118 186 385 452 547> 402 74<219.77 351.702>
LayerCount: 2
Fore
SplineSet
77 0 m 1
 77 547 l 1
 145 547 l 1
 145 452 l 1
 245 452 l 2
 411 452 476 398 476 283 c 0
 476 178 419 118 254 118 c 2
 151 118 l 1
 151 0 l 1
 77 0 l 1
151 186 m 1
 250 186 l 2
 358 186 402 211 402 283 c 0
 402 384 330 385 225 385 c 2
 151 385 l 1
 151 186 l 1
EndSplineSet
Validated: 1
EndChar

StartChar: eth.sc
Encoding: 378 -1 239
Width: 658
VWidth: 0
Flags: W
TeX: 547 0
HStem: 0 68<187 412.262> 248 67<37 113 187 348> 480 67<187 417.49>
VStem: 113 74<68 248 315 480> 544 75<182.632 366.396>
LayerCount: 2
Fore
SplineSet
37 248 m 1
 37 315 l 1
 113 315 l 1
 113 547 l 1
 257 547 l 2
 364 547 426 536 482 505 c 0
 571 457 619 375 619 272 c 0
 619 115 510 0 277 0 c 2
 113 0 l 1
 113 248 l 1
 37 248 l 1
187 68 m 1
 260 68 l 2
 360 68 419 81 464 114 c 0
 515 151 544 208 544 274 c 0
 544 349 507 411 443 446 c 0
 400 470 346 480 260 480 c 2
 187 480 l 1
 187 315 l 1
 348 315 l 1
 348 248 l 1
 187 248 l 1
 187 68 l 1
EndSplineSet
Validated: 1
EndChar

StartChar: oslash.sc
Encoding: 379 -1 240
Width: 720
VWidth: 0
GlyphClass: 2
Flags: W
TeX: 608 -61
HStem: -9 68<260.669 469.766> 488 69<260.884 472.772>
VStem: 52 74<182.713 359.823> 605 75<183.81 365.023>
AnchorPoint: "bot_acc" 366 -123 basechar 0
AnchorPoint: "dotbelow" 366 -123 basechar 0
AnchorPoint: "ogon_acc" 366 -123 basechar 0
AnchorPoint: "top_accl" 366 670 basechar 0
AnchorPoint: "dotabove" 366 670 basechar 0
LayerCount: 2
Fore
SplineSet
52 274 m 0
 52 431 188 557 363 557 c 0
 422 557 482 542 523 519 c 1
 597 608 l 1
 654 568 l 1
 581 480 l 1
 647 426 680 357 680 275 c 0
 680 117 543 -9 368 -9 c 0
 312 -9 257 4 210 28 c 1
 135 -61 l 1
 77 -22 l 1
 150 67 l 1
 86 119 52 192 52 274 c 0
126 271 m 0
 126 212 150 163 196 121 c 1
 478 464 l 1
 444 480 404 488 363 488 c 0
 231 488 126 393 126 271 c 0
255 83 m 1
 293 66 327 59 367 59 c 0
 499 59 605 153 605 273 c 0
 605 334 583 382 536 425 c 1
 255 83 l 1
EndSplineSet
Validated: 1
EndChar

StartChar: f_i
Encoding: 129 64257 241
Width: 487
VWidth: 0
GlyphClass: 3
Flags: W
TeX: 739 0
HStem: 0 21G<101 175 350 424> 480 67<16 101 175 311> 607 126<350 424> 672 67<213.514 311>
VStem: 101 74<0 480 547 633.464> 350 74<0 547 607 733>
LayerCount: 2
Fore
SplineSet
16 480 m 1xdc
 16 547 l 1
 101 547 l 1
 99 674 170 739 311 739 c 1
 311 672 l 1
 210 672 174 638 175 547 c 1
 311 547 l 1
 311 480 l 1
 175 480 l 1
 175 0 l 1
 101 0 l 1
 101 480 l 1
 16 480 l 1xdc
350 0 m 1
 350 547 l 1
 424 547 l 1
 424 0 l 1
 350 0 l 1
350 607 m 1xec
 350 733 l 1
 424 733 l 1
 424 607 l 1
 350 607 l 1xec
EndSplineSet
Validated: 33
Ligature2: "liga_PLK subtable" f i
Ligature2: "liga_NLDb subtable" f i
Ligature2: "liga_f_i subtable" f i
EndChar

StartChar: f_l
Encoding: 130 64258 242
Width: 485
VWidth: 0
GlyphClass: 3
Flags: W
TeX: 739 0
HStem: 0 21G<101 175 348 422> 480 67<16 101 175 311> 672 67<213.514 311>
VStem: 101 74<0 480 547 633.464> 348 74<0 739>
LayerCount: 2
Fore
SplineSet
16 480 m 1
 16 547 l 1
 101 547 l 1
 99 674 170 739 311 739 c 1
 311 672 l 1
 210 672 174 638 175 547 c 1
 311 547 l 1
 311 480 l 1
 175 480 l 1
 175 0 l 1
 101 0 l 1
 101 480 l 1
 16 480 l 1
348 0 m 1
 348 739 l 1
 422 739 l 1
 422 0 l 1
 348 0 l 1
EndSplineSet
Validated: 33
Ligature2: "liga_f_f_l subtable" f l
EndChar

StartChar: f_f
Encoding: 380 64256 243
Width: 574
VWidth: 0
GlyphClass: 3
Flags: W
TeX: 739 0
HStem: 0 21G<101 175 348 422> 480 67<16 101 175 348 422 558> 672 67<213.514 311 460.514 558>
VStem: 101 74<0 480 547 633.464> 348 74<0 480 547 633.464>
LayerCount: 2
Fore
SplineSet
16 480 m 1
 16 547 l 1
 101 547 l 1
 99 674 170 739 311 739 c 1
 311 672 l 1
 210 672 174 638 175 547 c 1
 348 547 l 1
 346 674 417 739 558 739 c 1
 558 672 l 1
 457 672 421 638 422 547 c 1
 558 547 l 1
 558 480 l 1
 422 480 l 1
 422 0 l 1
 348 0 l 1
 348 480 l 1
 175 480 l 1
 175 0 l 1
 101 0 l 1
 101 480 l 1
 16 480 l 1
EndSplineSet
Validated: 33
Ligature2: "liga_f_f_l subtable" f f
EndChar

StartChar: f_f_i
Encoding: 381 64259 244
Width: 732
VWidth: 0
GlyphClass: 3
Flags: W
TeX: 739 0
HStem: 0 21G<101 175 348 422 595 669> 480 67<16 101 175 348 422 558> 607 126<595 669> 672 67<213.514 311 460.514 558>
VStem: 101 74<0 480 547 633.464> 348 74<0 480 547 633.464> 595 74<0 547 607 733>
CounterMasks: 1 0e
LayerCount: 2
Fore
SplineSet
16 480 m 1xde
 16 547 l 1
 101 547 l 1
 99 674 170 739 311 739 c 1
 311 672 l 1
 210 672 174 638 175 547 c 1
 348 547 l 1
 346 674 417 739 558 739 c 1
 558 672 l 1
 457 672 421 638 422 547 c 1
 558 547 l 1
 558 480 l 1
 422 480 l 1
 422 0 l 1
 348 0 l 1
 348 480 l 1
 175 480 l 1
 175 0 l 1
 101 0 l 1
 101 480 l 1
 16 480 l 1xde
595 0 m 1
 595 547 l 1
 669 547 l 1
 669 0 l 1
 595 0 l 1
595 607 m 1xee
 595 733 l 1
 669 733 l 1
 669 607 l 1
 595 607 l 1xee
EndSplineSet
Validated: 33
Ligature2: "liga_PLK subtable" f_f i
Ligature2: "liga_NLDb subtable" f_f i
Ligature2: "liga_f_i subtable" f_f i
EndChar

StartChar: f_f_l
Encoding: 382 64260 245
Width: 732
VWidth: 0
GlyphClass: 3
Flags: W
TeX: 739 0
HStem: 0 21G<101 175 348 422 595 669> 480 67<16 101 175 348 422 558> 672 67<213.514 311 460.514 558>
VStem: 101 74<0 480 547 633.464> 348 74<0 480 547 633.464> 595 74<0 739>
CounterMasks: 1 1c
LayerCount: 2
Fore
SplineSet
16 480 m 1
 16 547 l 1
 101 547 l 1
 99 674 170 739 311 739 c 1
 311 672 l 1
 210 672 174 638 175 547 c 1
 348 547 l 1
 346 674 417 739 558 739 c 1
 558 672 l 1
 457 672 421 638 422 547 c 1
 558 547 l 1
 558 480 l 1
 422 480 l 1
 422 0 l 1
 348 0 l 1
 348 480 l 1
 175 480 l 1
 175 0 l 1
 101 0 l 1
 101 480 l 1
 16 480 l 1
595 0 m 1
 595 739 l 1
 669 739 l 1
 669 0 l 1
 595 0 l 1
EndSplineSet
Validated: 33
Ligature2: "liga_f_f_l subtable" f f l
EndChar

StartChar: f_k
Encoding: 383 -1 246
Width: 787
VWidth: 0
GlyphClass: 3
Flags: W
TeX: 739 0
HStem: 0 21G<101 175 348 422 673.379 782> 480 67<16 101 175 311> 672 67<213.514 311>
VStem: 101 74<0 480 547 633.464> 348 74<0 113 215 739>
LayerCount: 2
Fore
SplineSet
16 480 m 1
 16 547 l 1
 101 547 l 1
 99 674 170 739 311 739 c 1
 311 672 l 1
 210 672 174 638 175 547 c 1
 311 547 l 1
 311 480 l 1
 175 480 l 1
 175 0 l 1
 101 0 l 1
 101 480 l 1
 16 480 l 1
348 0 m 1
 348 739 l 1
 422 739 l 1
 422 215 l 1
 677 547 l 1
 768 547 l 1
 555 272 l 1
 782 0 l 1
 690 0 l 1
 508 219 l 1
 422 113 l 1
 422 0 l 1
 348 0 l 1
EndSplineSet
Validated: 33
Ligature2: "liga_PLK subtable" f k
EndChar

StartChar: hyphendbl
Encoding: 384 11840 247
Width: 332
VWidth: 0
Flags: W
TeX: 407 0
HStem: 122 63<31 302> 344 63<31 302>
VStem: 31 271<122 185 344 407>
LayerCount: 2
Fore
SplineSet
31 122 m 1
 31 185 l 1
 302 185 l 1
 302 122 l 1
 31 122 l 1
31 344 m 1
 31 407 l 1
 302 407 l 1
 302 344 l 1
 31 344 l 1
EndSplineSet
Validated: 1
EndChar

StartChar: died
Encoding: 385 -1 248
Width: 626
VWidth: 0
Flags: W
TeX: 739 0
HStem: 0 21G<276 350> 510 74<63 276 350 563> 719 20G<276 350>
VStem: 276 74<0 510 584 739>
LayerCount: 2
Fore
SplineSet
63 510 m 1
 63 584 l 1
 276 584 l 1
 276 739 l 1
 350 739 l 1
 350 584 l 1
 563 584 l 1
 563 510 l 1
 350 510 l 1
 350 0 l 1
 276 0 l 1
 276 510 l 1
 63 510 l 1
EndSplineSet
Validated: 1
EndChar

StartChar: dong
Encoding: 386 8363 249
Width: 673
VWidth: 0
Flags: W
TeX: 739 -68
HStem: -68 68<63 609> 100 58<225.141 396.369> 529 58<224.284 393.46> 623 53<364 493 556 609> 719 20G<493 556>
VStem: 63 63<258.252 430.696> 493 63<111 195 252.487 432.874 502 623 676 739>
LayerCount: 2
Fore
SplineSet
63 0 m 1
 609 0 l 1
 609 -68 l 1
 63 -68 l 1
 63 0 l 1
63 343 m 0
 63 481 170 587 310 587 c 0
 383 587 447 557 493 502 c 1
 493 623 l 1
 364 623 l 1
 364 676 l 1
 493 676 l 1
 493 739 l 1
 556 739 l 1
 556 676 l 1
 609 676 l 1
 609 623 l 1
 556 623 l 1
 556 111 l 1
 493 111 l 1
 493 195 l 1
 446 128 393 100 316 100 c 0
 172 100 63 205 63 343 c 0
126 346 m 0
 126 238 207 158 314 158 c 0
 414 158 495 243 495 345 c 0
 495 447 411 529 308 529 c 0
 207 529 126 447 126 346 c 0
EndSplineSet
Validated: 1
EndChar

StartChar: threequartersemdash
Encoding: 144 -1 250
Width: 750
VWidth: 0
GlyphClass: 3
Flags: W
TeX: 296 0
HStem: 233 63<0 750>
LayerCount: 2
Fore
SplineSet
0 233 m 1
 0 296 l 1
 750 296 l 1
 750 233 l 1
 0 233 l 1
EndSplineSet
Validated: 1
Ligature2: "'dlig' Discretionary Ligatures in Latin lookup 12 subtable" hyphen hyphen hyphen
EndChar

StartChar: emdash.alt
Encoding: 387 -1 251
Width: 667
VWidth: 0
Flags: W
TeX: 296 0
HStem: 233 63<0 667>
LayerCount: 2
Fore
SplineSet
0 233 m 1
 0 296 l 1
 667 296 l 1
 667 233 l 1
 0 233 l 1
EndSplineSet
Validated: 1
EndChar

